%TF.GenerationSoftware,KiCad,Pcbnew,9.0.7*%
%TF.CreationDate,2026-03-30T23:30:41+02:00*%
%TF.ProjectId,Board,426f6172-642e-46b6-9963-61645f706362,rev?*%
%TF.SameCoordinates,Original*%
%TF.FileFunction,Legend,Top*%
%TF.FilePolarity,Positive*%
%FSLAX46Y46*%
G04 Gerber Fmt 4.6, Leading zero omitted, Abs format (unit mm)*
G04 Created by KiCad (PCBNEW 9.0.7) date 2026-03-30 23:30:41*
%MOMM*%
%LPD*%
G01*
G04 APERTURE LIST*
%ADD10C,0.100000*%
%ADD11C,0.150000*%
%ADD12C,0.000000*%
%ADD13C,0.200000*%
%ADD14C,0.127000*%
%ADD15C,0.120000*%
G04 APERTURE END LIST*
D10*
G36*
X145426779Y-49800000D02*
G01*
X145097784Y-48923595D01*
X145092227Y-48923595D01*
X145099188Y-49040526D01*
X145101997Y-49193789D01*
X145101997Y-49800000D01*
X144985799Y-49800000D01*
X144985799Y-48800375D01*
X145171973Y-48800375D01*
X145480024Y-49619382D01*
X145485580Y-49619382D01*
X145799188Y-48800375D01*
X145984019Y-48800375D01*
X145984019Y-49800000D01*
X145859394Y-49800000D01*
X145859394Y-49185423D01*
X145862875Y-49041198D01*
X145869225Y-48925000D01*
X145863607Y-48925000D01*
X145530399Y-49800000D01*
X145426779Y-49800000D01*
G37*
G36*
X146592009Y-49041493D02*
G01*
X146647374Y-49053812D01*
X146691054Y-49072596D01*
X146725235Y-49097191D01*
X146752384Y-49129196D01*
X146772845Y-49170300D01*
X146786182Y-49222639D01*
X146791058Y-49288982D01*
X146791058Y-49800000D01*
X146701482Y-49800000D01*
X146677669Y-49693571D01*
X146672112Y-49693571D01*
X146620221Y-49748576D01*
X146569164Y-49784612D01*
X146532013Y-49799935D01*
X146483287Y-49810177D01*
X146420115Y-49813982D01*
X146353851Y-49807593D01*
X146298076Y-49789450D01*
X146250671Y-49760127D01*
X146222407Y-49730884D01*
X146201615Y-49694218D01*
X146188313Y-49648488D01*
X146183622Y-49592821D01*
X146310877Y-49592821D01*
X146315634Y-49632950D01*
X146328641Y-49662900D01*
X146349345Y-49685205D01*
X146376436Y-49701088D01*
X146408907Y-49711039D01*
X146448080Y-49714576D01*
X146509646Y-49708394D01*
X146561728Y-49690775D01*
X146606289Y-49662124D01*
X146632800Y-49633797D01*
X146652321Y-49598506D01*
X146664800Y-49554729D01*
X146669303Y-49500375D01*
X146669303Y-49433208D01*
X146558661Y-49437421D01*
X146465039Y-49446448D01*
X146403363Y-49462248D01*
X146364794Y-49482178D01*
X146334931Y-49511768D01*
X146317120Y-49547936D01*
X146310877Y-49592821D01*
X146183622Y-49592821D01*
X146183504Y-49591416D01*
X146189283Y-49537401D01*
X146205814Y-49491642D01*
X146232898Y-49452355D01*
X146271676Y-49418492D01*
X146316122Y-49393928D01*
X146374088Y-49373882D01*
X146448631Y-49359397D01*
X146543274Y-49351997D01*
X146670708Y-49347784D01*
X146670708Y-49303026D01*
X146665200Y-49241689D01*
X146650982Y-49200114D01*
X146630102Y-49172784D01*
X146600965Y-49153359D01*
X146563490Y-49140924D01*
X146515308Y-49136392D01*
X146457572Y-49140824D01*
X146403262Y-49153916D01*
X146303855Y-49193789D01*
X146266058Y-49101404D01*
X146317926Y-49077388D01*
X146382257Y-49055914D01*
X146450526Y-49041764D01*
X146522269Y-49036985D01*
X146592009Y-49041493D01*
G37*
G36*
X147645603Y-49800000D02*
G01*
X147546196Y-49800000D01*
X147528000Y-49699188D01*
X147522383Y-49699188D01*
X147483823Y-49742735D01*
X147432807Y-49780399D01*
X147394062Y-49798318D01*
X147346629Y-49809832D01*
X147288581Y-49813982D01*
X147220287Y-49807553D01*
X147161311Y-49789116D01*
X147109814Y-49759086D01*
X147064549Y-49716713D01*
X147030111Y-49666390D01*
X147003905Y-49603179D01*
X146986811Y-49524257D01*
X146980769Y-49428995D01*
X147107964Y-49428995D01*
X147114345Y-49517581D01*
X147131581Y-49585699D01*
X147157667Y-49637639D01*
X147185440Y-49669853D01*
X147218915Y-49692667D01*
X147259217Y-49706813D01*
X147308182Y-49711828D01*
X147367888Y-49706977D01*
X147413837Y-49693809D01*
X147448988Y-49673654D01*
X147475488Y-49646737D01*
X147500535Y-49600616D01*
X147517415Y-49536823D01*
X147523787Y-49450000D01*
X147523787Y-49427590D01*
X147517741Y-49334839D01*
X147501593Y-49264835D01*
X147477564Y-49212718D01*
X147451343Y-49181472D01*
X147415849Y-49158372D01*
X147368792Y-49143344D01*
X147306777Y-49137796D01*
X147258918Y-49143034D01*
X147219169Y-49157914D01*
X147185753Y-49182187D01*
X147157667Y-49216931D01*
X147131358Y-49271892D01*
X147114221Y-49341410D01*
X147107964Y-49428995D01*
X146980769Y-49428995D01*
X146980591Y-49426186D01*
X146986837Y-49328222D01*
X147004037Y-49249051D01*
X147030467Y-49185330D01*
X147065282Y-49134316D01*
X147110959Y-49091214D01*
X147162719Y-49060744D01*
X147221788Y-49042079D01*
X147289986Y-49035580D01*
X147347163Y-49039569D01*
X147393900Y-49050631D01*
X147432074Y-49067821D01*
X147482859Y-49103987D01*
X147522383Y-49146222D01*
X147530809Y-49146222D01*
X147525863Y-49092306D01*
X147522383Y-49035580D01*
X147522383Y-48736017D01*
X147645603Y-48736017D01*
X147645603Y-49800000D01*
G37*
G36*
X148236347Y-49040554D02*
G01*
X148291163Y-49054752D01*
X148339009Y-49077590D01*
X148381449Y-49109246D01*
X148416747Y-49148398D01*
X148445376Y-49195926D01*
X148465515Y-49247998D01*
X148478098Y-49307081D01*
X148482501Y-49374406D01*
X148482501Y-49448595D01*
X147968675Y-49448595D01*
X147974476Y-49512660D01*
X147987817Y-49565042D01*
X148007706Y-49607786D01*
X148033766Y-49642524D01*
X148066940Y-49670876D01*
X148106175Y-49691485D01*
X148152678Y-49704429D01*
X148208094Y-49709019D01*
X148277382Y-49705489D01*
X148334795Y-49695708D01*
X148390134Y-49679707D01*
X148448918Y-49657178D01*
X148448918Y-49765012D01*
X148391233Y-49787095D01*
X148335528Y-49802076D01*
X148276880Y-49810767D01*
X148202477Y-49813982D01*
X148132646Y-49808922D01*
X148070274Y-49794316D01*
X148014166Y-49770629D01*
X147963851Y-49737134D01*
X147921604Y-49694322D01*
X147886793Y-49641120D01*
X147862329Y-49582047D01*
X147846814Y-49512485D01*
X147841303Y-49430399D01*
X147846186Y-49350593D01*
X147971484Y-49350593D01*
X148353724Y-49350593D01*
X148347621Y-49288469D01*
X148332383Y-49237633D01*
X148308906Y-49195926D01*
X148284996Y-49170641D01*
X148255118Y-49152260D01*
X148217983Y-49140594D01*
X148171702Y-49136392D01*
X148115441Y-49143100D01*
X148069834Y-49162070D01*
X148032423Y-49193117D01*
X148004061Y-49233677D01*
X147983464Y-49285286D01*
X147971484Y-49350593D01*
X147846186Y-49350593D01*
X147846281Y-49349044D01*
X147860353Y-49279152D01*
X147882580Y-49219007D01*
X147914513Y-49163783D01*
X147953134Y-49118922D01*
X147998778Y-49083208D01*
X148050569Y-49057085D01*
X148108235Y-49041105D01*
X148173107Y-49035580D01*
X148236347Y-49040554D01*
G37*
G36*
X148980573Y-48994975D02*
G01*
X148978436Y-49083941D01*
X148973551Y-49148970D01*
X148980573Y-49148970D01*
X149018068Y-49105830D01*
X149068745Y-49069225D01*
X149107398Y-49052053D01*
X149154833Y-49040982D01*
X149212971Y-49036985D01*
X149281222Y-49043407D01*
X149340303Y-49061839D01*
X149392024Y-49091889D01*
X149437613Y-49134316D01*
X149472404Y-49184663D01*
X149498852Y-49247875D01*
X149516093Y-49326767D01*
X149522365Y-49424781D01*
X149516062Y-49522717D01*
X149498714Y-49601739D01*
X149472060Y-49665237D01*
X149436941Y-49715980D01*
X149390951Y-49758825D01*
X149339169Y-49789071D01*
X149280423Y-49807560D01*
X149212971Y-49813982D01*
X149154829Y-49809992D01*
X149107394Y-49798941D01*
X149068745Y-49781803D01*
X149017843Y-49745708D01*
X148980573Y-49704806D01*
X148970743Y-49704806D01*
X148945525Y-49800000D01*
X148857353Y-49800000D01*
X148857353Y-49420629D01*
X148980573Y-49420629D01*
X148980573Y-49426186D01*
X148986539Y-49518036D01*
X149002445Y-49587109D01*
X149026064Y-49638311D01*
X149051882Y-49668932D01*
X149086901Y-49691604D01*
X149133406Y-49706372D01*
X149194774Y-49711828D01*
X149243706Y-49706814D01*
X149283988Y-49692670D01*
X149317455Y-49669856D01*
X149345228Y-49637639D01*
X149371141Y-49585634D01*
X149388460Y-49515858D01*
X149394931Y-49423377D01*
X149389344Y-49336901D01*
X149374368Y-49271261D01*
X149352023Y-49222130D01*
X149323308Y-49186034D01*
X149288074Y-49160599D01*
X149245037Y-49144820D01*
X149191966Y-49139200D01*
X149132525Y-49144294D01*
X149087081Y-49158112D01*
X149052540Y-49179316D01*
X149026735Y-49207833D01*
X149003093Y-49256066D01*
X148986807Y-49324847D01*
X148980573Y-49420629D01*
X148857353Y-49420629D01*
X148857353Y-48736017D01*
X148980573Y-48736017D01*
X148980573Y-48994975D01*
G37*
G36*
X149572130Y-49049624D02*
G01*
X149703715Y-49049624D01*
X149866137Y-49476622D01*
X149903934Y-49583722D01*
X149929152Y-49680992D01*
X149934708Y-49680992D01*
X149961331Y-49589340D01*
X149999127Y-49475218D01*
X150151718Y-49049624D01*
X150284708Y-49049624D01*
X149961331Y-49903620D01*
X149931256Y-49972379D01*
X149897314Y-50028236D01*
X149859787Y-50073002D01*
X149826845Y-50099844D01*
X149788110Y-50119392D01*
X149742445Y-50131669D01*
X149688328Y-50136017D01*
X149629527Y-50132475D01*
X149586113Y-50124781D01*
X149586113Y-50026779D01*
X149623176Y-50032397D01*
X149668728Y-50035205D01*
X149710273Y-50030870D01*
X149744515Y-50018621D01*
X149773019Y-49998813D01*
X149807881Y-49957510D01*
X149835301Y-49902215D01*
X149874502Y-49802808D01*
X149572130Y-49049624D01*
G37*
G36*
X151361758Y-49800000D02*
G01*
X151231577Y-49800000D01*
X151111165Y-49490605D01*
X150714942Y-49490605D01*
X150595935Y-49800000D01*
X150468562Y-49800000D01*
X150632536Y-49378620D01*
X150756952Y-49378620D01*
X151073368Y-49378620D01*
X150961383Y-49076186D01*
X150947339Y-49035642D01*
X150928471Y-48974703D01*
X150913756Y-48926404D01*
X150891346Y-49011095D01*
X150870341Y-49076186D01*
X150756952Y-49378620D01*
X150632536Y-49378620D01*
X150859167Y-48796222D01*
X150972557Y-48796222D01*
X151361758Y-49800000D01*
G37*
G36*
X151989706Y-49462578D02*
G01*
X152135275Y-49462578D01*
X152135275Y-49573220D01*
X151989706Y-49573220D01*
X151989706Y-49800000D01*
X151870699Y-49800000D01*
X151870699Y-49573220D01*
X151391861Y-49573220D01*
X151391861Y-49468196D01*
X151395786Y-49462578D01*
X151512273Y-49462578D01*
X151870699Y-49462578D01*
X151870699Y-49147627D01*
X151873508Y-49023735D01*
X151877721Y-48926404D01*
X151872103Y-48926404D01*
X151844077Y-48983801D01*
X151811898Y-49035580D01*
X151512273Y-49462578D01*
X151395786Y-49462578D01*
X151862273Y-48794818D01*
X151989706Y-48794818D01*
X151989706Y-49462578D01*
G37*
G36*
X152659603Y-49800000D02*
G01*
X152539253Y-49800000D01*
X152539253Y-49101404D01*
X152540596Y-49004806D01*
X152544809Y-48929213D01*
X152504204Y-48967009D01*
X152458042Y-49006210D01*
X152351613Y-49092978D01*
X152287255Y-49010423D01*
X152557449Y-48800375D01*
X152659603Y-48800375D01*
X152659603Y-49800000D01*
G37*
G36*
X153829344Y-49800000D02*
G01*
X153680966Y-49800000D01*
X153326753Y-49322627D01*
X153224598Y-49412203D01*
X153224598Y-49800000D01*
X153098569Y-49800000D01*
X153098569Y-48800375D01*
X153224598Y-48800375D01*
X153224598Y-49293196D01*
X153309961Y-49198002D01*
X153396789Y-49102808D01*
X153666983Y-48800375D01*
X153813956Y-48800375D01*
X153417794Y-49235799D01*
X153829344Y-49800000D01*
G37*
D11*
X132439819Y-78156904D02*
X133249342Y-78156904D01*
X133249342Y-78156904D02*
X133344580Y-78109285D01*
X133344580Y-78109285D02*
X133392200Y-78061666D01*
X133392200Y-78061666D02*
X133439819Y-77966428D01*
X133439819Y-77966428D02*
X133439819Y-77775952D01*
X133439819Y-77775952D02*
X133392200Y-77680714D01*
X133392200Y-77680714D02*
X133344580Y-77633095D01*
X133344580Y-77633095D02*
X133249342Y-77585476D01*
X133249342Y-77585476D02*
X132439819Y-77585476D01*
X132535057Y-77156904D02*
X132487438Y-77109285D01*
X132487438Y-77109285D02*
X132439819Y-77014047D01*
X132439819Y-77014047D02*
X132439819Y-76775952D01*
X132439819Y-76775952D02*
X132487438Y-76680714D01*
X132487438Y-76680714D02*
X132535057Y-76633095D01*
X132535057Y-76633095D02*
X132630295Y-76585476D01*
X132630295Y-76585476D02*
X132725533Y-76585476D01*
X132725533Y-76585476D02*
X132868390Y-76633095D01*
X132868390Y-76633095D02*
X133439819Y-77204523D01*
X133439819Y-77204523D02*
X133439819Y-76585476D01*
X131853095Y-49774819D02*
X131853095Y-50584342D01*
X131853095Y-50584342D02*
X131900714Y-50679580D01*
X131900714Y-50679580D02*
X131948333Y-50727200D01*
X131948333Y-50727200D02*
X132043571Y-50774819D01*
X132043571Y-50774819D02*
X132234047Y-50774819D01*
X132234047Y-50774819D02*
X132329285Y-50727200D01*
X132329285Y-50727200D02*
X132376904Y-50679580D01*
X132376904Y-50679580D02*
X132424523Y-50584342D01*
X132424523Y-50584342D02*
X132424523Y-49774819D01*
X133424523Y-50774819D02*
X132853095Y-50774819D01*
X133138809Y-50774819D02*
X133138809Y-49774819D01*
X133138809Y-49774819D02*
X133043571Y-49917676D01*
X133043571Y-49917676D02*
X132948333Y-50012914D01*
X132948333Y-50012914D02*
X132853095Y-50060533D01*
X146964761Y-63054819D02*
X146631428Y-62578628D01*
X146393333Y-63054819D02*
X146393333Y-62054819D01*
X146393333Y-62054819D02*
X146774285Y-62054819D01*
X146774285Y-62054819D02*
X146869523Y-62102438D01*
X146869523Y-62102438D02*
X146917142Y-62150057D01*
X146917142Y-62150057D02*
X146964761Y-62245295D01*
X146964761Y-62245295D02*
X146964761Y-62388152D01*
X146964761Y-62388152D02*
X146917142Y-62483390D01*
X146917142Y-62483390D02*
X146869523Y-62531009D01*
X146869523Y-62531009D02*
X146774285Y-62578628D01*
X146774285Y-62578628D02*
X146393333Y-62578628D01*
X147250476Y-62054819D02*
X147583809Y-63054819D01*
X147583809Y-63054819D02*
X147917142Y-62054819D01*
X148774285Y-63054819D02*
X148202857Y-63054819D01*
X148488571Y-63054819D02*
X148488571Y-62054819D01*
X148488571Y-62054819D02*
X148393333Y-62197676D01*
X148393333Y-62197676D02*
X148298095Y-62292914D01*
X148298095Y-62292914D02*
X148202857Y-62340533D01*
X132443333Y-61424819D02*
X132110000Y-60948628D01*
X131871905Y-61424819D02*
X131871905Y-60424819D01*
X131871905Y-60424819D02*
X132252857Y-60424819D01*
X132252857Y-60424819D02*
X132348095Y-60472438D01*
X132348095Y-60472438D02*
X132395714Y-60520057D01*
X132395714Y-60520057D02*
X132443333Y-60615295D01*
X132443333Y-60615295D02*
X132443333Y-60758152D01*
X132443333Y-60758152D02*
X132395714Y-60853390D01*
X132395714Y-60853390D02*
X132348095Y-60901009D01*
X132348095Y-60901009D02*
X132252857Y-60948628D01*
X132252857Y-60948628D02*
X131871905Y-60948628D01*
X132776667Y-60424819D02*
X133395714Y-60424819D01*
X133395714Y-60424819D02*
X133062381Y-60805771D01*
X133062381Y-60805771D02*
X133205238Y-60805771D01*
X133205238Y-60805771D02*
X133300476Y-60853390D01*
X133300476Y-60853390D02*
X133348095Y-60901009D01*
X133348095Y-60901009D02*
X133395714Y-60996247D01*
X133395714Y-60996247D02*
X133395714Y-61234342D01*
X133395714Y-61234342D02*
X133348095Y-61329580D01*
X133348095Y-61329580D02*
X133300476Y-61377200D01*
X133300476Y-61377200D02*
X133205238Y-61424819D01*
X133205238Y-61424819D02*
X132919524Y-61424819D01*
X132919524Y-61424819D02*
X132824286Y-61377200D01*
X132824286Y-61377200D02*
X132776667Y-61329580D01*
X132553333Y-47414819D02*
X132220000Y-46938628D01*
X131981905Y-47414819D02*
X131981905Y-46414819D01*
X131981905Y-46414819D02*
X132362857Y-46414819D01*
X132362857Y-46414819D02*
X132458095Y-46462438D01*
X132458095Y-46462438D02*
X132505714Y-46510057D01*
X132505714Y-46510057D02*
X132553333Y-46605295D01*
X132553333Y-46605295D02*
X132553333Y-46748152D01*
X132553333Y-46748152D02*
X132505714Y-46843390D01*
X132505714Y-46843390D02*
X132458095Y-46891009D01*
X132458095Y-46891009D02*
X132362857Y-46938628D01*
X132362857Y-46938628D02*
X131981905Y-46938628D01*
X132934286Y-46510057D02*
X132981905Y-46462438D01*
X132981905Y-46462438D02*
X133077143Y-46414819D01*
X133077143Y-46414819D02*
X133315238Y-46414819D01*
X133315238Y-46414819D02*
X133410476Y-46462438D01*
X133410476Y-46462438D02*
X133458095Y-46510057D01*
X133458095Y-46510057D02*
X133505714Y-46605295D01*
X133505714Y-46605295D02*
X133505714Y-46700533D01*
X133505714Y-46700533D02*
X133458095Y-46843390D01*
X133458095Y-46843390D02*
X132886667Y-47414819D01*
X132886667Y-47414819D02*
X133505714Y-47414819D01*
X122579819Y-77983333D02*
X123294104Y-77983333D01*
X123294104Y-77983333D02*
X123436961Y-78030952D01*
X123436961Y-78030952D02*
X123532200Y-78126190D01*
X123532200Y-78126190D02*
X123579819Y-78269047D01*
X123579819Y-78269047D02*
X123579819Y-78364285D01*
X122675057Y-77554761D02*
X122627438Y-77507142D01*
X122627438Y-77507142D02*
X122579819Y-77411904D01*
X122579819Y-77411904D02*
X122579819Y-77173809D01*
X122579819Y-77173809D02*
X122627438Y-77078571D01*
X122627438Y-77078571D02*
X122675057Y-77030952D01*
X122675057Y-77030952D02*
X122770295Y-76983333D01*
X122770295Y-76983333D02*
X122865533Y-76983333D01*
X122865533Y-76983333D02*
X123008390Y-77030952D01*
X123008390Y-77030952D02*
X123579819Y-77602380D01*
X123579819Y-77602380D02*
X123579819Y-76983333D01*
X132726666Y-64894819D02*
X132726666Y-65609104D01*
X132726666Y-65609104D02*
X132679047Y-65751961D01*
X132679047Y-65751961D02*
X132583809Y-65847200D01*
X132583809Y-65847200D02*
X132440952Y-65894819D01*
X132440952Y-65894819D02*
X132345714Y-65894819D01*
X133726666Y-65894819D02*
X133155238Y-65894819D01*
X133440952Y-65894819D02*
X133440952Y-64894819D01*
X133440952Y-64894819D02*
X133345714Y-65037676D01*
X133345714Y-65037676D02*
X133250476Y-65132914D01*
X133250476Y-65132914D02*
X133155238Y-65180533D01*
X141705714Y-52834819D02*
X141705714Y-51834819D01*
X141705714Y-51834819D02*
X141943809Y-51834819D01*
X141943809Y-51834819D02*
X142086666Y-51882438D01*
X142086666Y-51882438D02*
X142181904Y-51977676D01*
X142181904Y-51977676D02*
X142229523Y-52072914D01*
X142229523Y-52072914D02*
X142277142Y-52263390D01*
X142277142Y-52263390D02*
X142277142Y-52406247D01*
X142277142Y-52406247D02*
X142229523Y-52596723D01*
X142229523Y-52596723D02*
X142181904Y-52691961D01*
X142181904Y-52691961D02*
X142086666Y-52787200D01*
X142086666Y-52787200D02*
X141943809Y-52834819D01*
X141943809Y-52834819D02*
X141705714Y-52834819D01*
X143229523Y-52834819D02*
X142658095Y-52834819D01*
X142943809Y-52834819D02*
X142943809Y-51834819D01*
X142943809Y-51834819D02*
X142848571Y-51977676D01*
X142848571Y-51977676D02*
X142753333Y-52072914D01*
X142753333Y-52072914D02*
X142658095Y-52120533D01*
X143848571Y-51834819D02*
X143943809Y-51834819D01*
X143943809Y-51834819D02*
X144039047Y-51882438D01*
X144039047Y-51882438D02*
X144086666Y-51930057D01*
X144086666Y-51930057D02*
X144134285Y-52025295D01*
X144134285Y-52025295D02*
X144181904Y-52215771D01*
X144181904Y-52215771D02*
X144181904Y-52453866D01*
X144181904Y-52453866D02*
X144134285Y-52644342D01*
X144134285Y-52644342D02*
X144086666Y-52739580D01*
X144086666Y-52739580D02*
X144039047Y-52787200D01*
X144039047Y-52787200D02*
X143943809Y-52834819D01*
X143943809Y-52834819D02*
X143848571Y-52834819D01*
X143848571Y-52834819D02*
X143753333Y-52787200D01*
X143753333Y-52787200D02*
X143705714Y-52739580D01*
X143705714Y-52739580D02*
X143658095Y-52644342D01*
X143658095Y-52644342D02*
X143610476Y-52453866D01*
X143610476Y-52453866D02*
X143610476Y-52215771D01*
X143610476Y-52215771D02*
X143658095Y-52025295D01*
X143658095Y-52025295D02*
X143705714Y-51930057D01*
X143705714Y-51930057D02*
X143753333Y-51882438D01*
X143753333Y-51882438D02*
X143848571Y-51834819D01*
X141921905Y-29963656D02*
X141921905Y-28963656D01*
X141921905Y-28963656D02*
X142160000Y-28963656D01*
X142160000Y-28963656D02*
X142302857Y-29011275D01*
X142302857Y-29011275D02*
X142398095Y-29106513D01*
X142398095Y-29106513D02*
X142445714Y-29201751D01*
X142445714Y-29201751D02*
X142493333Y-29392227D01*
X142493333Y-29392227D02*
X142493333Y-29535084D01*
X142493333Y-29535084D02*
X142445714Y-29725560D01*
X142445714Y-29725560D02*
X142398095Y-29820798D01*
X142398095Y-29820798D02*
X142302857Y-29916037D01*
X142302857Y-29916037D02*
X142160000Y-29963656D01*
X142160000Y-29963656D02*
X141921905Y-29963656D01*
X143350476Y-28963656D02*
X143160000Y-28963656D01*
X143160000Y-28963656D02*
X143064762Y-29011275D01*
X143064762Y-29011275D02*
X143017143Y-29058894D01*
X143017143Y-29058894D02*
X142921905Y-29201751D01*
X142921905Y-29201751D02*
X142874286Y-29392227D01*
X142874286Y-29392227D02*
X142874286Y-29773179D01*
X142874286Y-29773179D02*
X142921905Y-29868417D01*
X142921905Y-29868417D02*
X142969524Y-29916037D01*
X142969524Y-29916037D02*
X143064762Y-29963656D01*
X143064762Y-29963656D02*
X143255238Y-29963656D01*
X143255238Y-29963656D02*
X143350476Y-29916037D01*
X143350476Y-29916037D02*
X143398095Y-29868417D01*
X143398095Y-29868417D02*
X143445714Y-29773179D01*
X143445714Y-29773179D02*
X143445714Y-29535084D01*
X143445714Y-29535084D02*
X143398095Y-29439846D01*
X143398095Y-29439846D02*
X143350476Y-29392227D01*
X143350476Y-29392227D02*
X143255238Y-29344608D01*
X143255238Y-29344608D02*
X143064762Y-29344608D01*
X143064762Y-29344608D02*
X142969524Y-29392227D01*
X142969524Y-29392227D02*
X142921905Y-29439846D01*
X142921905Y-29439846D02*
X142874286Y-29535084D01*
X161831905Y-57654819D02*
X161831905Y-56654819D01*
X161831905Y-56654819D02*
X162070000Y-56654819D01*
X162070000Y-56654819D02*
X162212857Y-56702438D01*
X162212857Y-56702438D02*
X162308095Y-56797676D01*
X162308095Y-56797676D02*
X162355714Y-56892914D01*
X162355714Y-56892914D02*
X162403333Y-57083390D01*
X162403333Y-57083390D02*
X162403333Y-57226247D01*
X162403333Y-57226247D02*
X162355714Y-57416723D01*
X162355714Y-57416723D02*
X162308095Y-57511961D01*
X162308095Y-57511961D02*
X162212857Y-57607200D01*
X162212857Y-57607200D02*
X162070000Y-57654819D01*
X162070000Y-57654819D02*
X161831905Y-57654819D01*
X163308095Y-56654819D02*
X162831905Y-56654819D01*
X162831905Y-56654819D02*
X162784286Y-57131009D01*
X162784286Y-57131009D02*
X162831905Y-57083390D01*
X162831905Y-57083390D02*
X162927143Y-57035771D01*
X162927143Y-57035771D02*
X163165238Y-57035771D01*
X163165238Y-57035771D02*
X163260476Y-57083390D01*
X163260476Y-57083390D02*
X163308095Y-57131009D01*
X163308095Y-57131009D02*
X163355714Y-57226247D01*
X163355714Y-57226247D02*
X163355714Y-57464342D01*
X163355714Y-57464342D02*
X163308095Y-57559580D01*
X163308095Y-57559580D02*
X163260476Y-57607200D01*
X163260476Y-57607200D02*
X163165238Y-57654819D01*
X163165238Y-57654819D02*
X162927143Y-57654819D01*
X162927143Y-57654819D02*
X162831905Y-57607200D01*
X162831905Y-57607200D02*
X162784286Y-57559580D01*
X123761905Y-46444819D02*
X123761905Y-45444819D01*
X123761905Y-45444819D02*
X124000000Y-45444819D01*
X124000000Y-45444819D02*
X124142857Y-45492438D01*
X124142857Y-45492438D02*
X124238095Y-45587676D01*
X124238095Y-45587676D02*
X124285714Y-45682914D01*
X124285714Y-45682914D02*
X124333333Y-45873390D01*
X124333333Y-45873390D02*
X124333333Y-46016247D01*
X124333333Y-46016247D02*
X124285714Y-46206723D01*
X124285714Y-46206723D02*
X124238095Y-46301961D01*
X124238095Y-46301961D02*
X124142857Y-46397200D01*
X124142857Y-46397200D02*
X124000000Y-46444819D01*
X124000000Y-46444819D02*
X123761905Y-46444819D01*
X124714286Y-45540057D02*
X124761905Y-45492438D01*
X124761905Y-45492438D02*
X124857143Y-45444819D01*
X124857143Y-45444819D02*
X125095238Y-45444819D01*
X125095238Y-45444819D02*
X125190476Y-45492438D01*
X125190476Y-45492438D02*
X125238095Y-45540057D01*
X125238095Y-45540057D02*
X125285714Y-45635295D01*
X125285714Y-45635295D02*
X125285714Y-45730533D01*
X125285714Y-45730533D02*
X125238095Y-45873390D01*
X125238095Y-45873390D02*
X124666667Y-46444819D01*
X124666667Y-46444819D02*
X125285714Y-46444819D01*
X135981905Y-40573929D02*
X135981905Y-39573929D01*
X135981905Y-39573929D02*
X136220000Y-39573929D01*
X136220000Y-39573929D02*
X136362857Y-39621548D01*
X136362857Y-39621548D02*
X136458095Y-39716786D01*
X136458095Y-39716786D02*
X136505714Y-39812024D01*
X136505714Y-39812024D02*
X136553333Y-40002500D01*
X136553333Y-40002500D02*
X136553333Y-40145357D01*
X136553333Y-40145357D02*
X136505714Y-40335833D01*
X136505714Y-40335833D02*
X136458095Y-40431071D01*
X136458095Y-40431071D02*
X136362857Y-40526310D01*
X136362857Y-40526310D02*
X136220000Y-40573929D01*
X136220000Y-40573929D02*
X135981905Y-40573929D01*
X137505714Y-40573929D02*
X136934286Y-40573929D01*
X137220000Y-40573929D02*
X137220000Y-39573929D01*
X137220000Y-39573929D02*
X137124762Y-39716786D01*
X137124762Y-39716786D02*
X137029524Y-39812024D01*
X137029524Y-39812024D02*
X136934286Y-39859643D01*
X154413333Y-53689580D02*
X154365714Y-53737200D01*
X154365714Y-53737200D02*
X154222857Y-53784819D01*
X154222857Y-53784819D02*
X154127619Y-53784819D01*
X154127619Y-53784819D02*
X153984762Y-53737200D01*
X153984762Y-53737200D02*
X153889524Y-53641961D01*
X153889524Y-53641961D02*
X153841905Y-53546723D01*
X153841905Y-53546723D02*
X153794286Y-53356247D01*
X153794286Y-53356247D02*
X153794286Y-53213390D01*
X153794286Y-53213390D02*
X153841905Y-53022914D01*
X153841905Y-53022914D02*
X153889524Y-52927676D01*
X153889524Y-52927676D02*
X153984762Y-52832438D01*
X153984762Y-52832438D02*
X154127619Y-52784819D01*
X154127619Y-52784819D02*
X154222857Y-52784819D01*
X154222857Y-52784819D02*
X154365714Y-52832438D01*
X154365714Y-52832438D02*
X154413333Y-52880057D01*
X154746667Y-52784819D02*
X155365714Y-52784819D01*
X155365714Y-52784819D02*
X155032381Y-53165771D01*
X155032381Y-53165771D02*
X155175238Y-53165771D01*
X155175238Y-53165771D02*
X155270476Y-53213390D01*
X155270476Y-53213390D02*
X155318095Y-53261009D01*
X155318095Y-53261009D02*
X155365714Y-53356247D01*
X155365714Y-53356247D02*
X155365714Y-53594342D01*
X155365714Y-53594342D02*
X155318095Y-53689580D01*
X155318095Y-53689580D02*
X155270476Y-53737200D01*
X155270476Y-53737200D02*
X155175238Y-53784819D01*
X155175238Y-53784819D02*
X154889524Y-53784819D01*
X154889524Y-53784819D02*
X154794286Y-53737200D01*
X154794286Y-53737200D02*
X154746667Y-53689580D01*
X159243333Y-80419580D02*
X159195714Y-80467200D01*
X159195714Y-80467200D02*
X159052857Y-80514819D01*
X159052857Y-80514819D02*
X158957619Y-80514819D01*
X158957619Y-80514819D02*
X158814762Y-80467200D01*
X158814762Y-80467200D02*
X158719524Y-80371961D01*
X158719524Y-80371961D02*
X158671905Y-80276723D01*
X158671905Y-80276723D02*
X158624286Y-80086247D01*
X158624286Y-80086247D02*
X158624286Y-79943390D01*
X158624286Y-79943390D02*
X158671905Y-79752914D01*
X158671905Y-79752914D02*
X158719524Y-79657676D01*
X158719524Y-79657676D02*
X158814762Y-79562438D01*
X158814762Y-79562438D02*
X158957619Y-79514819D01*
X158957619Y-79514819D02*
X159052857Y-79514819D01*
X159052857Y-79514819D02*
X159195714Y-79562438D01*
X159195714Y-79562438D02*
X159243333Y-79610057D01*
X159624286Y-79610057D02*
X159671905Y-79562438D01*
X159671905Y-79562438D02*
X159767143Y-79514819D01*
X159767143Y-79514819D02*
X160005238Y-79514819D01*
X160005238Y-79514819D02*
X160100476Y-79562438D01*
X160100476Y-79562438D02*
X160148095Y-79610057D01*
X160148095Y-79610057D02*
X160195714Y-79705295D01*
X160195714Y-79705295D02*
X160195714Y-79800533D01*
X160195714Y-79800533D02*
X160148095Y-79943390D01*
X160148095Y-79943390D02*
X159576667Y-80514819D01*
X159576667Y-80514819D02*
X160195714Y-80514819D01*
D12*
%TO.C,G\u002A\u002A\u002A*%
G36*
X124858993Y-64053027D02*
G01*
X124869874Y-64061514D01*
X124883544Y-64078415D01*
X124901346Y-64105986D01*
X124924629Y-64146480D01*
X124954739Y-64202154D01*
X124993021Y-64275263D01*
X125040822Y-64368061D01*
X125051675Y-64389244D01*
X125225015Y-64727789D01*
X125590905Y-64793231D01*
X125684694Y-64810221D01*
X125771495Y-64826353D01*
X125847965Y-64840975D01*
X125910759Y-64853432D01*
X125956533Y-64863071D01*
X125981941Y-64869239D01*
X125984933Y-64870248D01*
X126006691Y-64886523D01*
X126013072Y-64901745D01*
X126004820Y-64915447D01*
X125981419Y-64944994D01*
X125944903Y-64988054D01*
X125897305Y-65042297D01*
X125840660Y-65105390D01*
X125777000Y-65175003D01*
X125738241Y-65216828D01*
X125658537Y-65302865D01*
X125594892Y-65372640D01*
X125545917Y-65427811D01*
X125510223Y-65470036D01*
X125486419Y-65500974D01*
X125473117Y-65522283D01*
X125468926Y-65535622D01*
X125469153Y-65537966D01*
X125475569Y-65571531D01*
X125484103Y-65622808D01*
X125494233Y-65688003D01*
X125505436Y-65763327D01*
X125517192Y-65844987D01*
X125528977Y-65929192D01*
X125540269Y-66012149D01*
X125550547Y-66090068D01*
X125559289Y-66159157D01*
X125565972Y-66215623D01*
X125570075Y-66255676D01*
X125571075Y-66275523D01*
X125570866Y-66276713D01*
X125554124Y-66293402D01*
X125544395Y-66295554D01*
X125528727Y-66290132D01*
X125493674Y-66274790D01*
X125442159Y-66250912D01*
X125377108Y-66219882D01*
X125301446Y-66183085D01*
X125218099Y-66141906D01*
X125187577Y-66126676D01*
X124850000Y-65957798D01*
X124512423Y-66126676D01*
X124427073Y-66169065D01*
X124348381Y-66207557D01*
X124279274Y-66240768D01*
X124222677Y-66267313D01*
X124181514Y-66285808D01*
X124158712Y-66294868D01*
X124155605Y-66295554D01*
X124134832Y-66285405D01*
X124128896Y-66276091D01*
X124129218Y-66260644D01*
X124132687Y-66224238D01*
X124138789Y-66170659D01*
X124147010Y-66103691D01*
X124156837Y-66027120D01*
X124167756Y-65944729D01*
X124179253Y-65860305D01*
X124190814Y-65777631D01*
X124201926Y-65700493D01*
X124212074Y-65632676D01*
X124220746Y-65577963D01*
X124227427Y-65540141D01*
X124230832Y-65525105D01*
X124223616Y-65512933D01*
X124201192Y-65484886D01*
X124165562Y-65443242D01*
X124118728Y-65390278D01*
X124062691Y-65328269D01*
X123999453Y-65259495D01*
X123961482Y-65218705D01*
X123894776Y-65146725D01*
X123833919Y-65079841D01*
X123780963Y-65020404D01*
X123737960Y-64970764D01*
X123706961Y-64933272D01*
X123706254Y-64932312D01*
X123820599Y-64932312D01*
X123826190Y-64943398D01*
X123846957Y-64970288D01*
X123880870Y-65010634D01*
X123925897Y-65062084D01*
X123980008Y-65122291D01*
X124041173Y-65188904D01*
X124058216Y-65207235D01*
X124121635Y-65275670D01*
X124179315Y-65338675D01*
X124229077Y-65393810D01*
X124268744Y-65438632D01*
X124296135Y-65470702D01*
X124309072Y-65487577D01*
X124309779Y-65489076D01*
X124308856Y-65504449D01*
X124304723Y-65540574D01*
X124297947Y-65593478D01*
X124289093Y-65659187D01*
X124278728Y-65733729D01*
X124267416Y-65813130D01*
X124255724Y-65893417D01*
X124244217Y-65970615D01*
X124233462Y-66040752D01*
X124224023Y-66099855D01*
X124216757Y-66142353D01*
X124213836Y-66169779D01*
X124216462Y-66182825D01*
X124217147Y-66182998D01*
X124229950Y-66177620D01*
X124262108Y-66162454D01*
X124310636Y-66138958D01*
X124372548Y-66108589D01*
X124444855Y-66072804D01*
X124524573Y-66033058D01*
X124524840Y-66032925D01*
X124605609Y-65992970D01*
X124680034Y-65957020D01*
X124744911Y-65926553D01*
X124797032Y-65903051D01*
X124833193Y-65887992D01*
X124850000Y-65882851D01*
X124867558Y-65888285D01*
X124904203Y-65903604D01*
X124956738Y-65927331D01*
X125021966Y-65957991D01*
X125096692Y-65994108D01*
X125176616Y-66033653D01*
X125256298Y-66073296D01*
X125328385Y-66108730D01*
X125389948Y-66138550D01*
X125438057Y-66161351D01*
X125469781Y-66175727D01*
X125482190Y-66180272D01*
X125482231Y-66180244D01*
X125481563Y-66167264D01*
X125477521Y-66132849D01*
X125470554Y-66080283D01*
X125461109Y-66012849D01*
X125449637Y-65933833D01*
X125437297Y-65851229D01*
X125424080Y-65762891D01*
X125412226Y-65681773D01*
X125402234Y-65611443D01*
X125394602Y-65555469D01*
X125389830Y-65517419D01*
X125388392Y-65501413D01*
X125396968Y-65485041D01*
X125421566Y-65452517D01*
X125460714Y-65405566D01*
X125512939Y-65345914D01*
X125576768Y-65275284D01*
X125638582Y-65208404D01*
X125701585Y-65140231D01*
X125758113Y-65077865D01*
X125806137Y-65023641D01*
X125843630Y-64979895D01*
X125868563Y-64948959D01*
X125878910Y-64933168D01*
X125878892Y-64931755D01*
X125864491Y-64927376D01*
X125828716Y-64919379D01*
X125774841Y-64908411D01*
X125706138Y-64895120D01*
X125625881Y-64880151D01*
X125537342Y-64864151D01*
X125531585Y-64863128D01*
X125442253Y-64846940D01*
X125360662Y-64831545D01*
X125290161Y-64817621D01*
X125234099Y-64805851D01*
X125195822Y-64796915D01*
X125178682Y-64791493D01*
X125178438Y-64791326D01*
X125168823Y-64777399D01*
X125149615Y-64744174D01*
X125122461Y-64694700D01*
X125089010Y-64632022D01*
X125050907Y-64559188D01*
X125010570Y-64480756D01*
X124969897Y-64401680D01*
X124932622Y-64330462D01*
X124900309Y-64269994D01*
X124874526Y-64223168D01*
X124856839Y-64192878D01*
X124848814Y-64182015D01*
X124848792Y-64182014D01*
X124840883Y-64192717D01*
X124823339Y-64222900D01*
X124797716Y-64269674D01*
X124765569Y-64330150D01*
X124728455Y-64401438D01*
X124687929Y-64480649D01*
X124687016Y-64482448D01*
X124645842Y-64562554D01*
X124607358Y-64635410D01*
X124573251Y-64697981D01*
X124545208Y-64747230D01*
X124524916Y-64780122D01*
X124514103Y-64793599D01*
X124496698Y-64798590D01*
X124458101Y-64807195D01*
X124401761Y-64818727D01*
X124331125Y-64832498D01*
X124249642Y-64847821D01*
X124162161Y-64863757D01*
X124074037Y-64879824D01*
X123993978Y-64894920D01*
X123925295Y-64908379D01*
X123871299Y-64919539D01*
X123835302Y-64927733D01*
X123820615Y-64932298D01*
X123820599Y-64932312D01*
X123706254Y-64932312D01*
X123690017Y-64910279D01*
X123687433Y-64904684D01*
X123697014Y-64881709D01*
X123708813Y-64872327D01*
X123726283Y-64867419D01*
X123765143Y-64858802D01*
X123822150Y-64847121D01*
X123894064Y-64833019D01*
X123977642Y-64817140D01*
X124069644Y-64800127D01*
X124102369Y-64794180D01*
X124474038Y-64726945D01*
X124647403Y-64388822D01*
X124697308Y-64291877D01*
X124737414Y-64215067D01*
X124769069Y-64156138D01*
X124793621Y-64112835D01*
X124812419Y-64082902D01*
X124826811Y-64064085D01*
X124838145Y-64054127D01*
X124847769Y-64050775D01*
X124849552Y-64050699D01*
X124858993Y-64053027D01*
G37*
G36*
X156175830Y-73323027D02*
G01*
X156186711Y-73331514D01*
X156200381Y-73348415D01*
X156218183Y-73375986D01*
X156241466Y-73416480D01*
X156271576Y-73472154D01*
X156309858Y-73545263D01*
X156357659Y-73638061D01*
X156368512Y-73659244D01*
X156541852Y-73997789D01*
X156907742Y-74063231D01*
X157001531Y-74080221D01*
X157088332Y-74096353D01*
X157164802Y-74110975D01*
X157227596Y-74123432D01*
X157273370Y-74133071D01*
X157298778Y-74139239D01*
X157301770Y-74140248D01*
X157323528Y-74156523D01*
X157329909Y-74171745D01*
X157321657Y-74185447D01*
X157298256Y-74214994D01*
X157261740Y-74258054D01*
X157214142Y-74312297D01*
X157157497Y-74375390D01*
X157093837Y-74445003D01*
X157055078Y-74486828D01*
X156975374Y-74572865D01*
X156911729Y-74642640D01*
X156862754Y-74697811D01*
X156827060Y-74740036D01*
X156803256Y-74770974D01*
X156789954Y-74792283D01*
X156785763Y-74805622D01*
X156785990Y-74807966D01*
X156792406Y-74841531D01*
X156800940Y-74892808D01*
X156811070Y-74958003D01*
X156822273Y-75033327D01*
X156834029Y-75114987D01*
X156845814Y-75199192D01*
X156857106Y-75282149D01*
X156867384Y-75360068D01*
X156876126Y-75429157D01*
X156882809Y-75485623D01*
X156886912Y-75525676D01*
X156887912Y-75545523D01*
X156887703Y-75546713D01*
X156870961Y-75563402D01*
X156861232Y-75565554D01*
X156845564Y-75560132D01*
X156810511Y-75544790D01*
X156758996Y-75520912D01*
X156693945Y-75489882D01*
X156618283Y-75453085D01*
X156534936Y-75411906D01*
X156504414Y-75396676D01*
X156166837Y-75227798D01*
X155829260Y-75396676D01*
X155743910Y-75439065D01*
X155665218Y-75477557D01*
X155596111Y-75510768D01*
X155539514Y-75537313D01*
X155498351Y-75555808D01*
X155475549Y-75564868D01*
X155472442Y-75565554D01*
X155451669Y-75555405D01*
X155445733Y-75546091D01*
X155446055Y-75530644D01*
X155449524Y-75494238D01*
X155455626Y-75440659D01*
X155463847Y-75373691D01*
X155473674Y-75297120D01*
X155484593Y-75214729D01*
X155496090Y-75130305D01*
X155507651Y-75047631D01*
X155518763Y-74970493D01*
X155528911Y-74902676D01*
X155537583Y-74847963D01*
X155544264Y-74810141D01*
X155547669Y-74795105D01*
X155540453Y-74782933D01*
X155518029Y-74754886D01*
X155482399Y-74713242D01*
X155435565Y-74660278D01*
X155379528Y-74598269D01*
X155316290Y-74529495D01*
X155278319Y-74488705D01*
X155211613Y-74416725D01*
X155150756Y-74349841D01*
X155097800Y-74290404D01*
X155054797Y-74240764D01*
X155023798Y-74203272D01*
X155023091Y-74202312D01*
X155137436Y-74202312D01*
X155143027Y-74213398D01*
X155163794Y-74240288D01*
X155197707Y-74280634D01*
X155242734Y-74332084D01*
X155296845Y-74392291D01*
X155358010Y-74458904D01*
X155375053Y-74477235D01*
X155438472Y-74545670D01*
X155496152Y-74608675D01*
X155545914Y-74663810D01*
X155585581Y-74708632D01*
X155612972Y-74740702D01*
X155625909Y-74757577D01*
X155626616Y-74759076D01*
X155625693Y-74774449D01*
X155621560Y-74810574D01*
X155614784Y-74863478D01*
X155605930Y-74929187D01*
X155595565Y-75003729D01*
X155584253Y-75083130D01*
X155572561Y-75163417D01*
X155561054Y-75240615D01*
X155550299Y-75310752D01*
X155540860Y-75369855D01*
X155533594Y-75412353D01*
X155530673Y-75439779D01*
X155533299Y-75452825D01*
X155533984Y-75452998D01*
X155546787Y-75447620D01*
X155578945Y-75432454D01*
X155627473Y-75408958D01*
X155689385Y-75378589D01*
X155761692Y-75342804D01*
X155841410Y-75303058D01*
X155841677Y-75302925D01*
X155922446Y-75262970D01*
X155996871Y-75227020D01*
X156061748Y-75196553D01*
X156113869Y-75173051D01*
X156150030Y-75157992D01*
X156166837Y-75152851D01*
X156184395Y-75158285D01*
X156221040Y-75173604D01*
X156273575Y-75197331D01*
X156338803Y-75227991D01*
X156413529Y-75264108D01*
X156493453Y-75303653D01*
X156573135Y-75343296D01*
X156645222Y-75378730D01*
X156706785Y-75408550D01*
X156754894Y-75431351D01*
X156786618Y-75445727D01*
X156799027Y-75450272D01*
X156799068Y-75450244D01*
X156798400Y-75437264D01*
X156794358Y-75402849D01*
X156787391Y-75350283D01*
X156777946Y-75282849D01*
X156766474Y-75203833D01*
X156754134Y-75121229D01*
X156740917Y-75032891D01*
X156729063Y-74951773D01*
X156719071Y-74881443D01*
X156711439Y-74825469D01*
X156706667Y-74787419D01*
X156705229Y-74771413D01*
X156713805Y-74755041D01*
X156738403Y-74722517D01*
X156777551Y-74675566D01*
X156829776Y-74615914D01*
X156893605Y-74545284D01*
X156955419Y-74478404D01*
X157018422Y-74410231D01*
X157074950Y-74347865D01*
X157122974Y-74293641D01*
X157160467Y-74249895D01*
X157185400Y-74218959D01*
X157195747Y-74203168D01*
X157195729Y-74201755D01*
X157181328Y-74197376D01*
X157145553Y-74189379D01*
X157091678Y-74178411D01*
X157022975Y-74165120D01*
X156942718Y-74150151D01*
X156854179Y-74134151D01*
X156848422Y-74133128D01*
X156759090Y-74116940D01*
X156677499Y-74101545D01*
X156606998Y-74087621D01*
X156550936Y-74075851D01*
X156512659Y-74066915D01*
X156495519Y-74061493D01*
X156495275Y-74061326D01*
X156485660Y-74047399D01*
X156466452Y-74014174D01*
X156439298Y-73964700D01*
X156405847Y-73902022D01*
X156367744Y-73829188D01*
X156327407Y-73750756D01*
X156286734Y-73671680D01*
X156249459Y-73600462D01*
X156217146Y-73539994D01*
X156191363Y-73493168D01*
X156173676Y-73462878D01*
X156165651Y-73452015D01*
X156165629Y-73452014D01*
X156157720Y-73462717D01*
X156140176Y-73492900D01*
X156114553Y-73539674D01*
X156082406Y-73600150D01*
X156045292Y-73671438D01*
X156004766Y-73750649D01*
X156003853Y-73752448D01*
X155962679Y-73832554D01*
X155924195Y-73905410D01*
X155890088Y-73967981D01*
X155862045Y-74017230D01*
X155841753Y-74050122D01*
X155830940Y-74063599D01*
X155813535Y-74068590D01*
X155774938Y-74077195D01*
X155718598Y-74088727D01*
X155647962Y-74102498D01*
X155566479Y-74117821D01*
X155478998Y-74133757D01*
X155390874Y-74149824D01*
X155310815Y-74164920D01*
X155242132Y-74178379D01*
X155188136Y-74189539D01*
X155152139Y-74197733D01*
X155137452Y-74202298D01*
X155137436Y-74202312D01*
X155023091Y-74202312D01*
X155006854Y-74180279D01*
X155004270Y-74174684D01*
X155013851Y-74151709D01*
X155025650Y-74142327D01*
X155043120Y-74137419D01*
X155081980Y-74128802D01*
X155138987Y-74117121D01*
X155210901Y-74103019D01*
X155294479Y-74087140D01*
X155386481Y-74070127D01*
X155419206Y-74064180D01*
X155790875Y-73996945D01*
X155964240Y-73658822D01*
X156014145Y-73561877D01*
X156054251Y-73485067D01*
X156085906Y-73426138D01*
X156110458Y-73382835D01*
X156129256Y-73352902D01*
X156143648Y-73334085D01*
X156154982Y-73324127D01*
X156164606Y-73320775D01*
X156166389Y-73320699D01*
X156175830Y-73323027D01*
G37*
G36*
X141748993Y-25203027D02*
G01*
X141759874Y-25211514D01*
X141773544Y-25228415D01*
X141791346Y-25255986D01*
X141814629Y-25296480D01*
X141844739Y-25352154D01*
X141883021Y-25425263D01*
X141930822Y-25518061D01*
X141941675Y-25539244D01*
X142115015Y-25877789D01*
X142480905Y-25943231D01*
X142574694Y-25960221D01*
X142661495Y-25976353D01*
X142737965Y-25990975D01*
X142800759Y-26003432D01*
X142846533Y-26013071D01*
X142871941Y-26019239D01*
X142874933Y-26020248D01*
X142896691Y-26036523D01*
X142903072Y-26051745D01*
X142894820Y-26065447D01*
X142871419Y-26094994D01*
X142834903Y-26138054D01*
X142787305Y-26192297D01*
X142730660Y-26255390D01*
X142667000Y-26325003D01*
X142628241Y-26366828D01*
X142548537Y-26452865D01*
X142484892Y-26522640D01*
X142435917Y-26577811D01*
X142400223Y-26620036D01*
X142376419Y-26650974D01*
X142363117Y-26672283D01*
X142358926Y-26685622D01*
X142359153Y-26687966D01*
X142365569Y-26721531D01*
X142374103Y-26772808D01*
X142384233Y-26838003D01*
X142395436Y-26913327D01*
X142407192Y-26994987D01*
X142418977Y-27079192D01*
X142430269Y-27162149D01*
X142440547Y-27240068D01*
X142449289Y-27309157D01*
X142455972Y-27365623D01*
X142460075Y-27405676D01*
X142461075Y-27425523D01*
X142460866Y-27426713D01*
X142444124Y-27443402D01*
X142434395Y-27445554D01*
X142418727Y-27440132D01*
X142383674Y-27424790D01*
X142332159Y-27400912D01*
X142267108Y-27369882D01*
X142191446Y-27333085D01*
X142108099Y-27291906D01*
X142077577Y-27276676D01*
X141740000Y-27107798D01*
X141402423Y-27276676D01*
X141317073Y-27319065D01*
X141238381Y-27357557D01*
X141169274Y-27390768D01*
X141112677Y-27417313D01*
X141071514Y-27435808D01*
X141048712Y-27444868D01*
X141045605Y-27445554D01*
X141024832Y-27435405D01*
X141018896Y-27426091D01*
X141019218Y-27410644D01*
X141022687Y-27374238D01*
X141028789Y-27320659D01*
X141037010Y-27253691D01*
X141046837Y-27177120D01*
X141057756Y-27094729D01*
X141069253Y-27010305D01*
X141080814Y-26927631D01*
X141091926Y-26850493D01*
X141102074Y-26782676D01*
X141110746Y-26727963D01*
X141117427Y-26690141D01*
X141120832Y-26675105D01*
X141113616Y-26662933D01*
X141091192Y-26634886D01*
X141055562Y-26593242D01*
X141008728Y-26540278D01*
X140952691Y-26478269D01*
X140889453Y-26409495D01*
X140851482Y-26368705D01*
X140784776Y-26296725D01*
X140723919Y-26229841D01*
X140670963Y-26170404D01*
X140627960Y-26120764D01*
X140596961Y-26083272D01*
X140596254Y-26082312D01*
X140710599Y-26082312D01*
X140716190Y-26093398D01*
X140736957Y-26120288D01*
X140770870Y-26160634D01*
X140815897Y-26212084D01*
X140870008Y-26272291D01*
X140931173Y-26338904D01*
X140948216Y-26357235D01*
X141011635Y-26425670D01*
X141069315Y-26488675D01*
X141119077Y-26543810D01*
X141158744Y-26588632D01*
X141186135Y-26620702D01*
X141199072Y-26637577D01*
X141199779Y-26639076D01*
X141198856Y-26654449D01*
X141194723Y-26690574D01*
X141187947Y-26743478D01*
X141179093Y-26809187D01*
X141168728Y-26883729D01*
X141157416Y-26963130D01*
X141145724Y-27043417D01*
X141134217Y-27120615D01*
X141123462Y-27190752D01*
X141114023Y-27249855D01*
X141106757Y-27292353D01*
X141103836Y-27319779D01*
X141106462Y-27332825D01*
X141107147Y-27332998D01*
X141119950Y-27327620D01*
X141152108Y-27312454D01*
X141200636Y-27288958D01*
X141262548Y-27258589D01*
X141334855Y-27222804D01*
X141414573Y-27183058D01*
X141414840Y-27182925D01*
X141495609Y-27142970D01*
X141570034Y-27107020D01*
X141634911Y-27076553D01*
X141687032Y-27053051D01*
X141723193Y-27037992D01*
X141740000Y-27032851D01*
X141757558Y-27038285D01*
X141794203Y-27053604D01*
X141846738Y-27077331D01*
X141911966Y-27107991D01*
X141986692Y-27144108D01*
X142066616Y-27183653D01*
X142146298Y-27223296D01*
X142218385Y-27258730D01*
X142279948Y-27288550D01*
X142328057Y-27311351D01*
X142359781Y-27325727D01*
X142372190Y-27330272D01*
X142372231Y-27330244D01*
X142371563Y-27317264D01*
X142367521Y-27282849D01*
X142360554Y-27230283D01*
X142351109Y-27162849D01*
X142339637Y-27083833D01*
X142327297Y-27001229D01*
X142314080Y-26912891D01*
X142302226Y-26831773D01*
X142292234Y-26761443D01*
X142284602Y-26705469D01*
X142279830Y-26667419D01*
X142278392Y-26651413D01*
X142286968Y-26635041D01*
X142311566Y-26602517D01*
X142350714Y-26555566D01*
X142402939Y-26495914D01*
X142466768Y-26425284D01*
X142528582Y-26358404D01*
X142591585Y-26290231D01*
X142648113Y-26227865D01*
X142696137Y-26173641D01*
X142733630Y-26129895D01*
X142758563Y-26098959D01*
X142768910Y-26083168D01*
X142768892Y-26081755D01*
X142754491Y-26077376D01*
X142718716Y-26069379D01*
X142664841Y-26058411D01*
X142596138Y-26045120D01*
X142515881Y-26030151D01*
X142427342Y-26014151D01*
X142421585Y-26013128D01*
X142332253Y-25996940D01*
X142250662Y-25981545D01*
X142180161Y-25967621D01*
X142124099Y-25955851D01*
X142085822Y-25946915D01*
X142068682Y-25941493D01*
X142068438Y-25941326D01*
X142058823Y-25927399D01*
X142039615Y-25894174D01*
X142012461Y-25844700D01*
X141979010Y-25782022D01*
X141940907Y-25709188D01*
X141900570Y-25630756D01*
X141859897Y-25551680D01*
X141822622Y-25480462D01*
X141790309Y-25419994D01*
X141764526Y-25373168D01*
X141746839Y-25342878D01*
X141738814Y-25332015D01*
X141738792Y-25332014D01*
X141730883Y-25342717D01*
X141713339Y-25372900D01*
X141687716Y-25419674D01*
X141655569Y-25480150D01*
X141618455Y-25551438D01*
X141577929Y-25630649D01*
X141577016Y-25632448D01*
X141535842Y-25712554D01*
X141497358Y-25785410D01*
X141463251Y-25847981D01*
X141435208Y-25897230D01*
X141414916Y-25930122D01*
X141404103Y-25943599D01*
X141386698Y-25948590D01*
X141348101Y-25957195D01*
X141291761Y-25968727D01*
X141221125Y-25982498D01*
X141139642Y-25997821D01*
X141052161Y-26013757D01*
X140964037Y-26029824D01*
X140883978Y-26044920D01*
X140815295Y-26058379D01*
X140761299Y-26069539D01*
X140725302Y-26077733D01*
X140710615Y-26082298D01*
X140710599Y-26082312D01*
X140596254Y-26082312D01*
X140580017Y-26060279D01*
X140577433Y-26054684D01*
X140587014Y-26031709D01*
X140598813Y-26022327D01*
X140616283Y-26017419D01*
X140655143Y-26008802D01*
X140712150Y-25997121D01*
X140784064Y-25983019D01*
X140867642Y-25967140D01*
X140959644Y-25950127D01*
X140992369Y-25944180D01*
X141364038Y-25876945D01*
X141537403Y-25538822D01*
X141587308Y-25441877D01*
X141627414Y-25365067D01*
X141659069Y-25306138D01*
X141683621Y-25262835D01*
X141702419Y-25232902D01*
X141716811Y-25214085D01*
X141728145Y-25204127D01*
X141737769Y-25200775D01*
X141739552Y-25200699D01*
X141748993Y-25203027D01*
G37*
G36*
X164318993Y-48713027D02*
G01*
X164329874Y-48721514D01*
X164343544Y-48738415D01*
X164361346Y-48765986D01*
X164384629Y-48806480D01*
X164414739Y-48862154D01*
X164453021Y-48935263D01*
X164500822Y-49028061D01*
X164511675Y-49049244D01*
X164685015Y-49387789D01*
X165050905Y-49453231D01*
X165144694Y-49470221D01*
X165231495Y-49486353D01*
X165307965Y-49500975D01*
X165370759Y-49513432D01*
X165416533Y-49523071D01*
X165441941Y-49529239D01*
X165444933Y-49530248D01*
X165466691Y-49546523D01*
X165473072Y-49561745D01*
X165464820Y-49575447D01*
X165441419Y-49604994D01*
X165404903Y-49648054D01*
X165357305Y-49702297D01*
X165300660Y-49765390D01*
X165237000Y-49835003D01*
X165198241Y-49876828D01*
X165118537Y-49962865D01*
X165054892Y-50032640D01*
X165005917Y-50087811D01*
X164970223Y-50130036D01*
X164946419Y-50160974D01*
X164933117Y-50182283D01*
X164928926Y-50195622D01*
X164929153Y-50197966D01*
X164935569Y-50231531D01*
X164944103Y-50282808D01*
X164954233Y-50348003D01*
X164965436Y-50423327D01*
X164977192Y-50504987D01*
X164988977Y-50589192D01*
X165000269Y-50672149D01*
X165010547Y-50750068D01*
X165019289Y-50819157D01*
X165025972Y-50875623D01*
X165030075Y-50915676D01*
X165031075Y-50935523D01*
X165030866Y-50936713D01*
X165014124Y-50953402D01*
X165004395Y-50955554D01*
X164988727Y-50950132D01*
X164953674Y-50934790D01*
X164902159Y-50910912D01*
X164837108Y-50879882D01*
X164761446Y-50843085D01*
X164678099Y-50801906D01*
X164647577Y-50786676D01*
X164310000Y-50617798D01*
X163972423Y-50786676D01*
X163887073Y-50829065D01*
X163808381Y-50867557D01*
X163739274Y-50900768D01*
X163682677Y-50927313D01*
X163641514Y-50945808D01*
X163618712Y-50954868D01*
X163615605Y-50955554D01*
X163594832Y-50945405D01*
X163588896Y-50936091D01*
X163589218Y-50920644D01*
X163592687Y-50884238D01*
X163598789Y-50830659D01*
X163607010Y-50763691D01*
X163616837Y-50687120D01*
X163627756Y-50604729D01*
X163639253Y-50520305D01*
X163650814Y-50437631D01*
X163661926Y-50360493D01*
X163672074Y-50292676D01*
X163680746Y-50237963D01*
X163687427Y-50200141D01*
X163690832Y-50185105D01*
X163683616Y-50172933D01*
X163661192Y-50144886D01*
X163625562Y-50103242D01*
X163578728Y-50050278D01*
X163522691Y-49988269D01*
X163459453Y-49919495D01*
X163421482Y-49878705D01*
X163354776Y-49806725D01*
X163293919Y-49739841D01*
X163240963Y-49680404D01*
X163197960Y-49630764D01*
X163166961Y-49593272D01*
X163166254Y-49592312D01*
X163280599Y-49592312D01*
X163286190Y-49603398D01*
X163306957Y-49630288D01*
X163340870Y-49670634D01*
X163385897Y-49722084D01*
X163440008Y-49782291D01*
X163501173Y-49848904D01*
X163518216Y-49867235D01*
X163581635Y-49935670D01*
X163639315Y-49998675D01*
X163689077Y-50053810D01*
X163728744Y-50098632D01*
X163756135Y-50130702D01*
X163769072Y-50147577D01*
X163769779Y-50149076D01*
X163768856Y-50164449D01*
X163764723Y-50200574D01*
X163757947Y-50253478D01*
X163749093Y-50319187D01*
X163738728Y-50393729D01*
X163727416Y-50473130D01*
X163715724Y-50553417D01*
X163704217Y-50630615D01*
X163693462Y-50700752D01*
X163684023Y-50759855D01*
X163676757Y-50802353D01*
X163673836Y-50829779D01*
X163676462Y-50842825D01*
X163677147Y-50842998D01*
X163689950Y-50837620D01*
X163722108Y-50822454D01*
X163770636Y-50798958D01*
X163832548Y-50768589D01*
X163904855Y-50732804D01*
X163984573Y-50693058D01*
X163984840Y-50692925D01*
X164065609Y-50652970D01*
X164140034Y-50617020D01*
X164204911Y-50586553D01*
X164257032Y-50563051D01*
X164293193Y-50547992D01*
X164310000Y-50542851D01*
X164327558Y-50548285D01*
X164364203Y-50563604D01*
X164416738Y-50587331D01*
X164481966Y-50617991D01*
X164556692Y-50654108D01*
X164636616Y-50693653D01*
X164716298Y-50733296D01*
X164788385Y-50768730D01*
X164849948Y-50798550D01*
X164898057Y-50821351D01*
X164929781Y-50835727D01*
X164942190Y-50840272D01*
X164942231Y-50840244D01*
X164941563Y-50827264D01*
X164937521Y-50792849D01*
X164930554Y-50740283D01*
X164921109Y-50672849D01*
X164909637Y-50593833D01*
X164897297Y-50511229D01*
X164884080Y-50422891D01*
X164872226Y-50341773D01*
X164862234Y-50271443D01*
X164854602Y-50215469D01*
X164849830Y-50177419D01*
X164848392Y-50161413D01*
X164856968Y-50145041D01*
X164881566Y-50112517D01*
X164920714Y-50065566D01*
X164972939Y-50005914D01*
X165036768Y-49935284D01*
X165098582Y-49868404D01*
X165161585Y-49800231D01*
X165218113Y-49737865D01*
X165266137Y-49683641D01*
X165303630Y-49639895D01*
X165328563Y-49608959D01*
X165338910Y-49593168D01*
X165338892Y-49591755D01*
X165324491Y-49587376D01*
X165288716Y-49579379D01*
X165234841Y-49568411D01*
X165166138Y-49555120D01*
X165085881Y-49540151D01*
X164997342Y-49524151D01*
X164991585Y-49523128D01*
X164902253Y-49506940D01*
X164820662Y-49491545D01*
X164750161Y-49477621D01*
X164694099Y-49465851D01*
X164655822Y-49456915D01*
X164638682Y-49451493D01*
X164638438Y-49451326D01*
X164628823Y-49437399D01*
X164609615Y-49404174D01*
X164582461Y-49354700D01*
X164549010Y-49292022D01*
X164510907Y-49219188D01*
X164470570Y-49140756D01*
X164429897Y-49061680D01*
X164392622Y-48990462D01*
X164360309Y-48929994D01*
X164334526Y-48883168D01*
X164316839Y-48852878D01*
X164308814Y-48842015D01*
X164308792Y-48842014D01*
X164300883Y-48852717D01*
X164283339Y-48882900D01*
X164257716Y-48929674D01*
X164225569Y-48990150D01*
X164188455Y-49061438D01*
X164147929Y-49140649D01*
X164147016Y-49142448D01*
X164105842Y-49222554D01*
X164067358Y-49295410D01*
X164033251Y-49357981D01*
X164005208Y-49407230D01*
X163984916Y-49440122D01*
X163974103Y-49453599D01*
X163956698Y-49458590D01*
X163918101Y-49467195D01*
X163861761Y-49478727D01*
X163791125Y-49492498D01*
X163709642Y-49507821D01*
X163622161Y-49523757D01*
X163534037Y-49539824D01*
X163453978Y-49554920D01*
X163385295Y-49568379D01*
X163331299Y-49579539D01*
X163295302Y-49587733D01*
X163280615Y-49592298D01*
X163280599Y-49592312D01*
X163166254Y-49592312D01*
X163150017Y-49570279D01*
X163147433Y-49564684D01*
X163157014Y-49541709D01*
X163168813Y-49532327D01*
X163186283Y-49527419D01*
X163225143Y-49518802D01*
X163282150Y-49507121D01*
X163354064Y-49493019D01*
X163437642Y-49477140D01*
X163529644Y-49460127D01*
X163562369Y-49454180D01*
X163934038Y-49386945D01*
X164107403Y-49048822D01*
X164157308Y-48951877D01*
X164197414Y-48875067D01*
X164229069Y-48816138D01*
X164253621Y-48772835D01*
X164272419Y-48742902D01*
X164286811Y-48724085D01*
X164298145Y-48714127D01*
X164307769Y-48710775D01*
X164309552Y-48710699D01*
X164318993Y-48713027D01*
G37*
G36*
X148508993Y-51173027D02*
G01*
X148519874Y-51181514D01*
X148533544Y-51198415D01*
X148551346Y-51225986D01*
X148574629Y-51266480D01*
X148604739Y-51322154D01*
X148643021Y-51395263D01*
X148690822Y-51488061D01*
X148701675Y-51509244D01*
X148875015Y-51847789D01*
X149240905Y-51913231D01*
X149334694Y-51930221D01*
X149421495Y-51946353D01*
X149497965Y-51960975D01*
X149560759Y-51973432D01*
X149606533Y-51983071D01*
X149631941Y-51989239D01*
X149634933Y-51990248D01*
X149656691Y-52006523D01*
X149663072Y-52021745D01*
X149654820Y-52035447D01*
X149631419Y-52064994D01*
X149594903Y-52108054D01*
X149547305Y-52162297D01*
X149490660Y-52225390D01*
X149427000Y-52295003D01*
X149388241Y-52336828D01*
X149308537Y-52422865D01*
X149244892Y-52492640D01*
X149195917Y-52547811D01*
X149160223Y-52590036D01*
X149136419Y-52620974D01*
X149123117Y-52642283D01*
X149118926Y-52655622D01*
X149119153Y-52657966D01*
X149125569Y-52691531D01*
X149134103Y-52742808D01*
X149144233Y-52808003D01*
X149155436Y-52883327D01*
X149167192Y-52964987D01*
X149178977Y-53049192D01*
X149190269Y-53132149D01*
X149200547Y-53210068D01*
X149209289Y-53279157D01*
X149215972Y-53335623D01*
X149220075Y-53375676D01*
X149221075Y-53395523D01*
X149220866Y-53396713D01*
X149204124Y-53413402D01*
X149194395Y-53415554D01*
X149178727Y-53410132D01*
X149143674Y-53394790D01*
X149092159Y-53370912D01*
X149027108Y-53339882D01*
X148951446Y-53303085D01*
X148868099Y-53261906D01*
X148837577Y-53246676D01*
X148500000Y-53077798D01*
X148162423Y-53246676D01*
X148077073Y-53289065D01*
X147998381Y-53327557D01*
X147929274Y-53360768D01*
X147872677Y-53387313D01*
X147831514Y-53405808D01*
X147808712Y-53414868D01*
X147805605Y-53415554D01*
X147784832Y-53405405D01*
X147778896Y-53396091D01*
X147779218Y-53380644D01*
X147782687Y-53344238D01*
X147788789Y-53290659D01*
X147797010Y-53223691D01*
X147806837Y-53147120D01*
X147817756Y-53064729D01*
X147829253Y-52980305D01*
X147840814Y-52897631D01*
X147851926Y-52820493D01*
X147862074Y-52752676D01*
X147870746Y-52697963D01*
X147877427Y-52660141D01*
X147880832Y-52645105D01*
X147873616Y-52632933D01*
X147851192Y-52604886D01*
X147815562Y-52563242D01*
X147768728Y-52510278D01*
X147712691Y-52448269D01*
X147649453Y-52379495D01*
X147611482Y-52338705D01*
X147544776Y-52266725D01*
X147483919Y-52199841D01*
X147430963Y-52140404D01*
X147387960Y-52090764D01*
X147356961Y-52053272D01*
X147356254Y-52052312D01*
X147470599Y-52052312D01*
X147476190Y-52063398D01*
X147496957Y-52090288D01*
X147530870Y-52130634D01*
X147575897Y-52182084D01*
X147630008Y-52242291D01*
X147691173Y-52308904D01*
X147708216Y-52327235D01*
X147771635Y-52395670D01*
X147829315Y-52458675D01*
X147879077Y-52513810D01*
X147918744Y-52558632D01*
X147946135Y-52590702D01*
X147959072Y-52607577D01*
X147959779Y-52609076D01*
X147958856Y-52624449D01*
X147954723Y-52660574D01*
X147947947Y-52713478D01*
X147939093Y-52779187D01*
X147928728Y-52853729D01*
X147917416Y-52933130D01*
X147905724Y-53013417D01*
X147894217Y-53090615D01*
X147883462Y-53160752D01*
X147874023Y-53219855D01*
X147866757Y-53262353D01*
X147863836Y-53289779D01*
X147866462Y-53302825D01*
X147867147Y-53302998D01*
X147879950Y-53297620D01*
X147912108Y-53282454D01*
X147960636Y-53258958D01*
X148022548Y-53228589D01*
X148094855Y-53192804D01*
X148174573Y-53153058D01*
X148174840Y-53152925D01*
X148255609Y-53112970D01*
X148330034Y-53077020D01*
X148394911Y-53046553D01*
X148447032Y-53023051D01*
X148483193Y-53007992D01*
X148500000Y-53002851D01*
X148517558Y-53008285D01*
X148554203Y-53023604D01*
X148606738Y-53047331D01*
X148671966Y-53077991D01*
X148746692Y-53114108D01*
X148826616Y-53153653D01*
X148906298Y-53193296D01*
X148978385Y-53228730D01*
X149039948Y-53258550D01*
X149088057Y-53281351D01*
X149119781Y-53295727D01*
X149132190Y-53300272D01*
X149132231Y-53300244D01*
X149131563Y-53287264D01*
X149127521Y-53252849D01*
X149120554Y-53200283D01*
X149111109Y-53132849D01*
X149099637Y-53053833D01*
X149087297Y-52971229D01*
X149074080Y-52882891D01*
X149062226Y-52801773D01*
X149052234Y-52731443D01*
X149044602Y-52675469D01*
X149039830Y-52637419D01*
X149038392Y-52621413D01*
X149046968Y-52605041D01*
X149071566Y-52572517D01*
X149110714Y-52525566D01*
X149162939Y-52465914D01*
X149226768Y-52395284D01*
X149288582Y-52328404D01*
X149351585Y-52260231D01*
X149408113Y-52197865D01*
X149456137Y-52143641D01*
X149493630Y-52099895D01*
X149518563Y-52068959D01*
X149528910Y-52053168D01*
X149528892Y-52051755D01*
X149514491Y-52047376D01*
X149478716Y-52039379D01*
X149424841Y-52028411D01*
X149356138Y-52015120D01*
X149275881Y-52000151D01*
X149187342Y-51984151D01*
X149181585Y-51983128D01*
X149092253Y-51966940D01*
X149010662Y-51951545D01*
X148940161Y-51937621D01*
X148884099Y-51925851D01*
X148845822Y-51916915D01*
X148828682Y-51911493D01*
X148828438Y-51911326D01*
X148818823Y-51897399D01*
X148799615Y-51864174D01*
X148772461Y-51814700D01*
X148739010Y-51752022D01*
X148700907Y-51679188D01*
X148660570Y-51600756D01*
X148619897Y-51521680D01*
X148582622Y-51450462D01*
X148550309Y-51389994D01*
X148524526Y-51343168D01*
X148506839Y-51312878D01*
X148498814Y-51302015D01*
X148498792Y-51302014D01*
X148490883Y-51312717D01*
X148473339Y-51342900D01*
X148447716Y-51389674D01*
X148415569Y-51450150D01*
X148378455Y-51521438D01*
X148337929Y-51600649D01*
X148337016Y-51602448D01*
X148295842Y-51682554D01*
X148257358Y-51755410D01*
X148223251Y-51817981D01*
X148195208Y-51867230D01*
X148174916Y-51900122D01*
X148164103Y-51913599D01*
X148146698Y-51918590D01*
X148108101Y-51927195D01*
X148051761Y-51938727D01*
X147981125Y-51952498D01*
X147899642Y-51967821D01*
X147812161Y-51983757D01*
X147724037Y-51999824D01*
X147643978Y-52014920D01*
X147575295Y-52028379D01*
X147521299Y-52039539D01*
X147485302Y-52047733D01*
X147470615Y-52052298D01*
X147470599Y-52052312D01*
X147356254Y-52052312D01*
X147340017Y-52030279D01*
X147337433Y-52024684D01*
X147347014Y-52001709D01*
X147358813Y-51992327D01*
X147376283Y-51987419D01*
X147415143Y-51978802D01*
X147472150Y-51967121D01*
X147544064Y-51953019D01*
X147627642Y-51937140D01*
X147719644Y-51920127D01*
X147752369Y-51914180D01*
X148124038Y-51846945D01*
X148297403Y-51508822D01*
X148347308Y-51411877D01*
X148387414Y-51335067D01*
X148419069Y-51276138D01*
X148443621Y-51232835D01*
X148462419Y-51202902D01*
X148476811Y-51184085D01*
X148488145Y-51174127D01*
X148497769Y-51170775D01*
X148499552Y-51170699D01*
X148508993Y-51173027D01*
G37*
G36*
X152358993Y-45153027D02*
G01*
X152369874Y-45161514D01*
X152383544Y-45178415D01*
X152401346Y-45205986D01*
X152424629Y-45246480D01*
X152454739Y-45302154D01*
X152493021Y-45375263D01*
X152540822Y-45468061D01*
X152551675Y-45489244D01*
X152725015Y-45827789D01*
X153090905Y-45893231D01*
X153184694Y-45910221D01*
X153271495Y-45926353D01*
X153347965Y-45940975D01*
X153410759Y-45953432D01*
X153456533Y-45963071D01*
X153481941Y-45969239D01*
X153484933Y-45970248D01*
X153506691Y-45986523D01*
X153513072Y-46001745D01*
X153504820Y-46015447D01*
X153481419Y-46044994D01*
X153444903Y-46088054D01*
X153397305Y-46142297D01*
X153340660Y-46205390D01*
X153277000Y-46275003D01*
X153238241Y-46316828D01*
X153158537Y-46402865D01*
X153094892Y-46472640D01*
X153045917Y-46527811D01*
X153010223Y-46570036D01*
X152986419Y-46600974D01*
X152973117Y-46622283D01*
X152968926Y-46635622D01*
X152969153Y-46637966D01*
X152975569Y-46671531D01*
X152984103Y-46722808D01*
X152994233Y-46788003D01*
X153005436Y-46863327D01*
X153017192Y-46944987D01*
X153028977Y-47029192D01*
X153040269Y-47112149D01*
X153050547Y-47190068D01*
X153059289Y-47259157D01*
X153065972Y-47315623D01*
X153070075Y-47355676D01*
X153071075Y-47375523D01*
X153070866Y-47376713D01*
X153054124Y-47393402D01*
X153044395Y-47395554D01*
X153028727Y-47390132D01*
X152993674Y-47374790D01*
X152942159Y-47350912D01*
X152877108Y-47319882D01*
X152801446Y-47283085D01*
X152718099Y-47241906D01*
X152687577Y-47226676D01*
X152350000Y-47057798D01*
X152012423Y-47226676D01*
X151927073Y-47269065D01*
X151848381Y-47307557D01*
X151779274Y-47340768D01*
X151722677Y-47367313D01*
X151681514Y-47385808D01*
X151658712Y-47394868D01*
X151655605Y-47395554D01*
X151634832Y-47385405D01*
X151628896Y-47376091D01*
X151629218Y-47360644D01*
X151632687Y-47324238D01*
X151638789Y-47270659D01*
X151647010Y-47203691D01*
X151656837Y-47127120D01*
X151667756Y-47044729D01*
X151679253Y-46960305D01*
X151690814Y-46877631D01*
X151701926Y-46800493D01*
X151712074Y-46732676D01*
X151720746Y-46677963D01*
X151727427Y-46640141D01*
X151730832Y-46625105D01*
X151723616Y-46612933D01*
X151701192Y-46584886D01*
X151665562Y-46543242D01*
X151618728Y-46490278D01*
X151562691Y-46428269D01*
X151499453Y-46359495D01*
X151461482Y-46318705D01*
X151394776Y-46246725D01*
X151333919Y-46179841D01*
X151280963Y-46120404D01*
X151237960Y-46070764D01*
X151206961Y-46033272D01*
X151206254Y-46032312D01*
X151320599Y-46032312D01*
X151326190Y-46043398D01*
X151346957Y-46070288D01*
X151380870Y-46110634D01*
X151425897Y-46162084D01*
X151480008Y-46222291D01*
X151541173Y-46288904D01*
X151558216Y-46307235D01*
X151621635Y-46375670D01*
X151679315Y-46438675D01*
X151729077Y-46493810D01*
X151768744Y-46538632D01*
X151796135Y-46570702D01*
X151809072Y-46587577D01*
X151809779Y-46589076D01*
X151808856Y-46604449D01*
X151804723Y-46640574D01*
X151797947Y-46693478D01*
X151789093Y-46759187D01*
X151778728Y-46833729D01*
X151767416Y-46913130D01*
X151755724Y-46993417D01*
X151744217Y-47070615D01*
X151733462Y-47140752D01*
X151724023Y-47199855D01*
X151716757Y-47242353D01*
X151713836Y-47269779D01*
X151716462Y-47282825D01*
X151717147Y-47282998D01*
X151729950Y-47277620D01*
X151762108Y-47262454D01*
X151810636Y-47238958D01*
X151872548Y-47208589D01*
X151944855Y-47172804D01*
X152024573Y-47133058D01*
X152024840Y-47132925D01*
X152105609Y-47092970D01*
X152180034Y-47057020D01*
X152244911Y-47026553D01*
X152297032Y-47003051D01*
X152333193Y-46987992D01*
X152350000Y-46982851D01*
X152367558Y-46988285D01*
X152404203Y-47003604D01*
X152456738Y-47027331D01*
X152521966Y-47057991D01*
X152596692Y-47094108D01*
X152676616Y-47133653D01*
X152756298Y-47173296D01*
X152828385Y-47208730D01*
X152889948Y-47238550D01*
X152938057Y-47261351D01*
X152969781Y-47275727D01*
X152982190Y-47280272D01*
X152982231Y-47280244D01*
X152981563Y-47267264D01*
X152977521Y-47232849D01*
X152970554Y-47180283D01*
X152961109Y-47112849D01*
X152949637Y-47033833D01*
X152937297Y-46951229D01*
X152924080Y-46862891D01*
X152912226Y-46781773D01*
X152902234Y-46711443D01*
X152894602Y-46655469D01*
X152889830Y-46617419D01*
X152888392Y-46601413D01*
X152896968Y-46585041D01*
X152921566Y-46552517D01*
X152960714Y-46505566D01*
X153012939Y-46445914D01*
X153076768Y-46375284D01*
X153138582Y-46308404D01*
X153201585Y-46240231D01*
X153258113Y-46177865D01*
X153306137Y-46123641D01*
X153343630Y-46079895D01*
X153368563Y-46048959D01*
X153378910Y-46033168D01*
X153378892Y-46031755D01*
X153364491Y-46027376D01*
X153328716Y-46019379D01*
X153274841Y-46008411D01*
X153206138Y-45995120D01*
X153125881Y-45980151D01*
X153037342Y-45964151D01*
X153031585Y-45963128D01*
X152942253Y-45946940D01*
X152860662Y-45931545D01*
X152790161Y-45917621D01*
X152734099Y-45905851D01*
X152695822Y-45896915D01*
X152678682Y-45891493D01*
X152678438Y-45891326D01*
X152668823Y-45877399D01*
X152649615Y-45844174D01*
X152622461Y-45794700D01*
X152589010Y-45732022D01*
X152550907Y-45659188D01*
X152510570Y-45580756D01*
X152469897Y-45501680D01*
X152432622Y-45430462D01*
X152400309Y-45369994D01*
X152374526Y-45323168D01*
X152356839Y-45292878D01*
X152348814Y-45282015D01*
X152348792Y-45282014D01*
X152340883Y-45292717D01*
X152323339Y-45322900D01*
X152297716Y-45369674D01*
X152265569Y-45430150D01*
X152228455Y-45501438D01*
X152187929Y-45580649D01*
X152187016Y-45582448D01*
X152145842Y-45662554D01*
X152107358Y-45735410D01*
X152073251Y-45797981D01*
X152045208Y-45847230D01*
X152024916Y-45880122D01*
X152014103Y-45893599D01*
X151996698Y-45898590D01*
X151958101Y-45907195D01*
X151901761Y-45918727D01*
X151831125Y-45932498D01*
X151749642Y-45947821D01*
X151662161Y-45963757D01*
X151574037Y-45979824D01*
X151493978Y-45994920D01*
X151425295Y-46008379D01*
X151371299Y-46019539D01*
X151335302Y-46027733D01*
X151320615Y-46032298D01*
X151320599Y-46032312D01*
X151206254Y-46032312D01*
X151190017Y-46010279D01*
X151187433Y-46004684D01*
X151197014Y-45981709D01*
X151208813Y-45972327D01*
X151226283Y-45967419D01*
X151265143Y-45958802D01*
X151322150Y-45947121D01*
X151394064Y-45933019D01*
X151477642Y-45917140D01*
X151569644Y-45900127D01*
X151602369Y-45894180D01*
X151974038Y-45826945D01*
X152147403Y-45488822D01*
X152197308Y-45391877D01*
X152237414Y-45315067D01*
X152269069Y-45256138D01*
X152293621Y-45212835D01*
X152312419Y-45182902D01*
X152326811Y-45164085D01*
X152338145Y-45154127D01*
X152347769Y-45150775D01*
X152349552Y-45150699D01*
X152358993Y-45153027D01*
G37*
G36*
X162448993Y-88273027D02*
G01*
X162459874Y-88281514D01*
X162473544Y-88298415D01*
X162491346Y-88325986D01*
X162514629Y-88366480D01*
X162544739Y-88422154D01*
X162583021Y-88495263D01*
X162630822Y-88588061D01*
X162641675Y-88609244D01*
X162815015Y-88947789D01*
X163180905Y-89013231D01*
X163274694Y-89030221D01*
X163361495Y-89046353D01*
X163437965Y-89060975D01*
X163500759Y-89073432D01*
X163546533Y-89083071D01*
X163571941Y-89089239D01*
X163574933Y-89090248D01*
X163596691Y-89106523D01*
X163603072Y-89121745D01*
X163594820Y-89135447D01*
X163571419Y-89164994D01*
X163534903Y-89208054D01*
X163487305Y-89262297D01*
X163430660Y-89325390D01*
X163367000Y-89395003D01*
X163328241Y-89436828D01*
X163248537Y-89522865D01*
X163184892Y-89592640D01*
X163135917Y-89647811D01*
X163100223Y-89690036D01*
X163076419Y-89720974D01*
X163063117Y-89742283D01*
X163058926Y-89755622D01*
X163059153Y-89757966D01*
X163065569Y-89791531D01*
X163074103Y-89842808D01*
X163084233Y-89908003D01*
X163095436Y-89983327D01*
X163107192Y-90064987D01*
X163118977Y-90149192D01*
X163130269Y-90232149D01*
X163140547Y-90310068D01*
X163149289Y-90379157D01*
X163155972Y-90435623D01*
X163160075Y-90475676D01*
X163161075Y-90495523D01*
X163160866Y-90496713D01*
X163144124Y-90513402D01*
X163134395Y-90515554D01*
X163118727Y-90510132D01*
X163083674Y-90494790D01*
X163032159Y-90470912D01*
X162967108Y-90439882D01*
X162891446Y-90403085D01*
X162808099Y-90361906D01*
X162777577Y-90346676D01*
X162440000Y-90177798D01*
X162102423Y-90346676D01*
X162017073Y-90389065D01*
X161938381Y-90427557D01*
X161869274Y-90460768D01*
X161812677Y-90487313D01*
X161771514Y-90505808D01*
X161748712Y-90514868D01*
X161745605Y-90515554D01*
X161724832Y-90505405D01*
X161718896Y-90496091D01*
X161719218Y-90480644D01*
X161722687Y-90444238D01*
X161728789Y-90390659D01*
X161737010Y-90323691D01*
X161746837Y-90247120D01*
X161757756Y-90164729D01*
X161769253Y-90080305D01*
X161780814Y-89997631D01*
X161791926Y-89920493D01*
X161802074Y-89852676D01*
X161810746Y-89797963D01*
X161817427Y-89760141D01*
X161820832Y-89745105D01*
X161813616Y-89732933D01*
X161791192Y-89704886D01*
X161755562Y-89663242D01*
X161708728Y-89610278D01*
X161652691Y-89548269D01*
X161589453Y-89479495D01*
X161551482Y-89438705D01*
X161484776Y-89366725D01*
X161423919Y-89299841D01*
X161370963Y-89240404D01*
X161327960Y-89190764D01*
X161296961Y-89153272D01*
X161296254Y-89152312D01*
X161410599Y-89152312D01*
X161416190Y-89163398D01*
X161436957Y-89190288D01*
X161470870Y-89230634D01*
X161515897Y-89282084D01*
X161570008Y-89342291D01*
X161631173Y-89408904D01*
X161648216Y-89427235D01*
X161711635Y-89495670D01*
X161769315Y-89558675D01*
X161819077Y-89613810D01*
X161858744Y-89658632D01*
X161886135Y-89690702D01*
X161899072Y-89707577D01*
X161899779Y-89709076D01*
X161898856Y-89724449D01*
X161894723Y-89760574D01*
X161887947Y-89813478D01*
X161879093Y-89879187D01*
X161868728Y-89953729D01*
X161857416Y-90033130D01*
X161845724Y-90113417D01*
X161834217Y-90190615D01*
X161823462Y-90260752D01*
X161814023Y-90319855D01*
X161806757Y-90362353D01*
X161803836Y-90389779D01*
X161806462Y-90402825D01*
X161807147Y-90402998D01*
X161819950Y-90397620D01*
X161852108Y-90382454D01*
X161900636Y-90358958D01*
X161962548Y-90328589D01*
X162034855Y-90292804D01*
X162114573Y-90253058D01*
X162114840Y-90252925D01*
X162195609Y-90212970D01*
X162270034Y-90177020D01*
X162334911Y-90146553D01*
X162387032Y-90123051D01*
X162423193Y-90107992D01*
X162440000Y-90102851D01*
X162457558Y-90108285D01*
X162494203Y-90123604D01*
X162546738Y-90147331D01*
X162611966Y-90177991D01*
X162686692Y-90214108D01*
X162766616Y-90253653D01*
X162846298Y-90293296D01*
X162918385Y-90328730D01*
X162979948Y-90358550D01*
X163028057Y-90381351D01*
X163059781Y-90395727D01*
X163072190Y-90400272D01*
X163072231Y-90400244D01*
X163071563Y-90387264D01*
X163067521Y-90352849D01*
X163060554Y-90300283D01*
X163051109Y-90232849D01*
X163039637Y-90153833D01*
X163027297Y-90071229D01*
X163014080Y-89982891D01*
X163002226Y-89901773D01*
X162992234Y-89831443D01*
X162984602Y-89775469D01*
X162979830Y-89737419D01*
X162978392Y-89721413D01*
X162986968Y-89705041D01*
X163011566Y-89672517D01*
X163050714Y-89625566D01*
X163102939Y-89565914D01*
X163166768Y-89495284D01*
X163228582Y-89428404D01*
X163291585Y-89360231D01*
X163348113Y-89297865D01*
X163396137Y-89243641D01*
X163433630Y-89199895D01*
X163458563Y-89168959D01*
X163468910Y-89153168D01*
X163468892Y-89151755D01*
X163454491Y-89147376D01*
X163418716Y-89139379D01*
X163364841Y-89128411D01*
X163296138Y-89115120D01*
X163215881Y-89100151D01*
X163127342Y-89084151D01*
X163121585Y-89083128D01*
X163032253Y-89066940D01*
X162950662Y-89051545D01*
X162880161Y-89037621D01*
X162824099Y-89025851D01*
X162785822Y-89016915D01*
X162768682Y-89011493D01*
X162768438Y-89011326D01*
X162758823Y-88997399D01*
X162739615Y-88964174D01*
X162712461Y-88914700D01*
X162679010Y-88852022D01*
X162640907Y-88779188D01*
X162600570Y-88700756D01*
X162559897Y-88621680D01*
X162522622Y-88550462D01*
X162490309Y-88489994D01*
X162464526Y-88443168D01*
X162446839Y-88412878D01*
X162438814Y-88402015D01*
X162438792Y-88402014D01*
X162430883Y-88412717D01*
X162413339Y-88442900D01*
X162387716Y-88489674D01*
X162355569Y-88550150D01*
X162318455Y-88621438D01*
X162277929Y-88700649D01*
X162277016Y-88702448D01*
X162235842Y-88782554D01*
X162197358Y-88855410D01*
X162163251Y-88917981D01*
X162135208Y-88967230D01*
X162114916Y-89000122D01*
X162104103Y-89013599D01*
X162086698Y-89018590D01*
X162048101Y-89027195D01*
X161991761Y-89038727D01*
X161921125Y-89052498D01*
X161839642Y-89067821D01*
X161752161Y-89083757D01*
X161664037Y-89099824D01*
X161583978Y-89114920D01*
X161515295Y-89128379D01*
X161461299Y-89139539D01*
X161425302Y-89147733D01*
X161410615Y-89152298D01*
X161410599Y-89152312D01*
X161296254Y-89152312D01*
X161280017Y-89130279D01*
X161277433Y-89124684D01*
X161287014Y-89101709D01*
X161298813Y-89092327D01*
X161316283Y-89087419D01*
X161355143Y-89078802D01*
X161412150Y-89067121D01*
X161484064Y-89053019D01*
X161567642Y-89037140D01*
X161659644Y-89020127D01*
X161692369Y-89014180D01*
X162064038Y-88946945D01*
X162237403Y-88608822D01*
X162287308Y-88511877D01*
X162327414Y-88435067D01*
X162359069Y-88376138D01*
X162383621Y-88332835D01*
X162402419Y-88302902D01*
X162416811Y-88284085D01*
X162428145Y-88274127D01*
X162437769Y-88270775D01*
X162439552Y-88270699D01*
X162448993Y-88273027D01*
G37*
G36*
X123188993Y-86333027D02*
G01*
X123199874Y-86341514D01*
X123213544Y-86358415D01*
X123231346Y-86385986D01*
X123254629Y-86426480D01*
X123284739Y-86482154D01*
X123323021Y-86555263D01*
X123370822Y-86648061D01*
X123381675Y-86669244D01*
X123555015Y-87007789D01*
X123920905Y-87073231D01*
X124014694Y-87090221D01*
X124101495Y-87106353D01*
X124177965Y-87120975D01*
X124240759Y-87133432D01*
X124286533Y-87143071D01*
X124311941Y-87149239D01*
X124314933Y-87150248D01*
X124336691Y-87166523D01*
X124343072Y-87181745D01*
X124334820Y-87195447D01*
X124311419Y-87224994D01*
X124274903Y-87268054D01*
X124227305Y-87322297D01*
X124170660Y-87385390D01*
X124107000Y-87455003D01*
X124068241Y-87496828D01*
X123988537Y-87582865D01*
X123924892Y-87652640D01*
X123875917Y-87707811D01*
X123840223Y-87750036D01*
X123816419Y-87780974D01*
X123803117Y-87802283D01*
X123798926Y-87815622D01*
X123799153Y-87817966D01*
X123805569Y-87851531D01*
X123814103Y-87902808D01*
X123824233Y-87968003D01*
X123835436Y-88043327D01*
X123847192Y-88124987D01*
X123858977Y-88209192D01*
X123870269Y-88292149D01*
X123880547Y-88370068D01*
X123889289Y-88439157D01*
X123895972Y-88495623D01*
X123900075Y-88535676D01*
X123901075Y-88555523D01*
X123900866Y-88556713D01*
X123884124Y-88573402D01*
X123874395Y-88575554D01*
X123858727Y-88570132D01*
X123823674Y-88554790D01*
X123772159Y-88530912D01*
X123707108Y-88499882D01*
X123631446Y-88463085D01*
X123548099Y-88421906D01*
X123517577Y-88406676D01*
X123180000Y-88237798D01*
X122842423Y-88406676D01*
X122757073Y-88449065D01*
X122678381Y-88487557D01*
X122609274Y-88520768D01*
X122552677Y-88547313D01*
X122511514Y-88565808D01*
X122488712Y-88574868D01*
X122485605Y-88575554D01*
X122464832Y-88565405D01*
X122458896Y-88556091D01*
X122459218Y-88540644D01*
X122462687Y-88504238D01*
X122468789Y-88450659D01*
X122477010Y-88383691D01*
X122486837Y-88307120D01*
X122497756Y-88224729D01*
X122509253Y-88140305D01*
X122520814Y-88057631D01*
X122531926Y-87980493D01*
X122542074Y-87912676D01*
X122550746Y-87857963D01*
X122557427Y-87820141D01*
X122560832Y-87805105D01*
X122553616Y-87792933D01*
X122531192Y-87764886D01*
X122495562Y-87723242D01*
X122448728Y-87670278D01*
X122392691Y-87608269D01*
X122329453Y-87539495D01*
X122291482Y-87498705D01*
X122224776Y-87426725D01*
X122163919Y-87359841D01*
X122110963Y-87300404D01*
X122067960Y-87250764D01*
X122036961Y-87213272D01*
X122036254Y-87212312D01*
X122150599Y-87212312D01*
X122156190Y-87223398D01*
X122176957Y-87250288D01*
X122210870Y-87290634D01*
X122255897Y-87342084D01*
X122310008Y-87402291D01*
X122371173Y-87468904D01*
X122388216Y-87487235D01*
X122451635Y-87555670D01*
X122509315Y-87618675D01*
X122559077Y-87673810D01*
X122598744Y-87718632D01*
X122626135Y-87750702D01*
X122639072Y-87767577D01*
X122639779Y-87769076D01*
X122638856Y-87784449D01*
X122634723Y-87820574D01*
X122627947Y-87873478D01*
X122619093Y-87939187D01*
X122608728Y-88013729D01*
X122597416Y-88093130D01*
X122585724Y-88173417D01*
X122574217Y-88250615D01*
X122563462Y-88320752D01*
X122554023Y-88379855D01*
X122546757Y-88422353D01*
X122543836Y-88449779D01*
X122546462Y-88462825D01*
X122547147Y-88462998D01*
X122559950Y-88457620D01*
X122592108Y-88442454D01*
X122640636Y-88418958D01*
X122702548Y-88388589D01*
X122774855Y-88352804D01*
X122854573Y-88313058D01*
X122854840Y-88312925D01*
X122935609Y-88272970D01*
X123010034Y-88237020D01*
X123074911Y-88206553D01*
X123127032Y-88183051D01*
X123163193Y-88167992D01*
X123180000Y-88162851D01*
X123197558Y-88168285D01*
X123234203Y-88183604D01*
X123286738Y-88207331D01*
X123351966Y-88237991D01*
X123426692Y-88274108D01*
X123506616Y-88313653D01*
X123586298Y-88353296D01*
X123658385Y-88388730D01*
X123719948Y-88418550D01*
X123768057Y-88441351D01*
X123799781Y-88455727D01*
X123812190Y-88460272D01*
X123812231Y-88460244D01*
X123811563Y-88447264D01*
X123807521Y-88412849D01*
X123800554Y-88360283D01*
X123791109Y-88292849D01*
X123779637Y-88213833D01*
X123767297Y-88131229D01*
X123754080Y-88042891D01*
X123742226Y-87961773D01*
X123732234Y-87891443D01*
X123724602Y-87835469D01*
X123719830Y-87797419D01*
X123718392Y-87781413D01*
X123726968Y-87765041D01*
X123751566Y-87732517D01*
X123790714Y-87685566D01*
X123842939Y-87625914D01*
X123906768Y-87555284D01*
X123968582Y-87488404D01*
X124031585Y-87420231D01*
X124088113Y-87357865D01*
X124136137Y-87303641D01*
X124173630Y-87259895D01*
X124198563Y-87228959D01*
X124208910Y-87213168D01*
X124208892Y-87211755D01*
X124194491Y-87207376D01*
X124158716Y-87199379D01*
X124104841Y-87188411D01*
X124036138Y-87175120D01*
X123955881Y-87160151D01*
X123867342Y-87144151D01*
X123861585Y-87143128D01*
X123772253Y-87126940D01*
X123690662Y-87111545D01*
X123620161Y-87097621D01*
X123564099Y-87085851D01*
X123525822Y-87076915D01*
X123508682Y-87071493D01*
X123508438Y-87071326D01*
X123498823Y-87057399D01*
X123479615Y-87024174D01*
X123452461Y-86974700D01*
X123419010Y-86912022D01*
X123380907Y-86839188D01*
X123340570Y-86760756D01*
X123299897Y-86681680D01*
X123262622Y-86610462D01*
X123230309Y-86549994D01*
X123204526Y-86503168D01*
X123186839Y-86472878D01*
X123178814Y-86462015D01*
X123178792Y-86462014D01*
X123170883Y-86472717D01*
X123153339Y-86502900D01*
X123127716Y-86549674D01*
X123095569Y-86610150D01*
X123058455Y-86681438D01*
X123017929Y-86760649D01*
X123017016Y-86762448D01*
X122975842Y-86842554D01*
X122937358Y-86915410D01*
X122903251Y-86977981D01*
X122875208Y-87027230D01*
X122854916Y-87060122D01*
X122844103Y-87073599D01*
X122826698Y-87078590D01*
X122788101Y-87087195D01*
X122731761Y-87098727D01*
X122661125Y-87112498D01*
X122579642Y-87127821D01*
X122492161Y-87143757D01*
X122404037Y-87159824D01*
X122323978Y-87174920D01*
X122255295Y-87188379D01*
X122201299Y-87199539D01*
X122165302Y-87207733D01*
X122150615Y-87212298D01*
X122150599Y-87212312D01*
X122036254Y-87212312D01*
X122020017Y-87190279D01*
X122017433Y-87184684D01*
X122027014Y-87161709D01*
X122038813Y-87152327D01*
X122056283Y-87147419D01*
X122095143Y-87138802D01*
X122152150Y-87127121D01*
X122224064Y-87113019D01*
X122307642Y-87097140D01*
X122399644Y-87080127D01*
X122432369Y-87074180D01*
X122804038Y-87006945D01*
X122977403Y-86668822D01*
X123027308Y-86571877D01*
X123067414Y-86495067D01*
X123099069Y-86436138D01*
X123123621Y-86392835D01*
X123142419Y-86362902D01*
X123156811Y-86344085D01*
X123168145Y-86334127D01*
X123177769Y-86330775D01*
X123179552Y-86330699D01*
X123188993Y-86333027D01*
G37*
G36*
X151488993Y-82503027D02*
G01*
X151499874Y-82511514D01*
X151513544Y-82528415D01*
X151531346Y-82555986D01*
X151554629Y-82596480D01*
X151584739Y-82652154D01*
X151623021Y-82725263D01*
X151670822Y-82818061D01*
X151681675Y-82839244D01*
X151855015Y-83177789D01*
X152220905Y-83243231D01*
X152314694Y-83260221D01*
X152401495Y-83276353D01*
X152477965Y-83290975D01*
X152540759Y-83303432D01*
X152586533Y-83313071D01*
X152611941Y-83319239D01*
X152614933Y-83320248D01*
X152636691Y-83336523D01*
X152643072Y-83351745D01*
X152634820Y-83365447D01*
X152611419Y-83394994D01*
X152574903Y-83438054D01*
X152527305Y-83492297D01*
X152470660Y-83555390D01*
X152407000Y-83625003D01*
X152368241Y-83666828D01*
X152288537Y-83752865D01*
X152224892Y-83822640D01*
X152175917Y-83877811D01*
X152140223Y-83920036D01*
X152116419Y-83950974D01*
X152103117Y-83972283D01*
X152098926Y-83985622D01*
X152099153Y-83987966D01*
X152105569Y-84021531D01*
X152114103Y-84072808D01*
X152124233Y-84138003D01*
X152135436Y-84213327D01*
X152147192Y-84294987D01*
X152158977Y-84379192D01*
X152170269Y-84462149D01*
X152180547Y-84540068D01*
X152189289Y-84609157D01*
X152195972Y-84665623D01*
X152200075Y-84705676D01*
X152201075Y-84725523D01*
X152200866Y-84726713D01*
X152184124Y-84743402D01*
X152174395Y-84745554D01*
X152158727Y-84740132D01*
X152123674Y-84724790D01*
X152072159Y-84700912D01*
X152007108Y-84669882D01*
X151931446Y-84633085D01*
X151848099Y-84591906D01*
X151817577Y-84576676D01*
X151480000Y-84407798D01*
X151142423Y-84576676D01*
X151057073Y-84619065D01*
X150978381Y-84657557D01*
X150909274Y-84690768D01*
X150852677Y-84717313D01*
X150811514Y-84735808D01*
X150788712Y-84744868D01*
X150785605Y-84745554D01*
X150764832Y-84735405D01*
X150758896Y-84726091D01*
X150759218Y-84710644D01*
X150762687Y-84674238D01*
X150768789Y-84620659D01*
X150777010Y-84553691D01*
X150786837Y-84477120D01*
X150797756Y-84394729D01*
X150809253Y-84310305D01*
X150820814Y-84227631D01*
X150831926Y-84150493D01*
X150842074Y-84082676D01*
X150850746Y-84027963D01*
X150857427Y-83990141D01*
X150860832Y-83975105D01*
X150853616Y-83962933D01*
X150831192Y-83934886D01*
X150795562Y-83893242D01*
X150748728Y-83840278D01*
X150692691Y-83778269D01*
X150629453Y-83709495D01*
X150591482Y-83668705D01*
X150524776Y-83596725D01*
X150463919Y-83529841D01*
X150410963Y-83470404D01*
X150367960Y-83420764D01*
X150336961Y-83383272D01*
X150336254Y-83382312D01*
X150450599Y-83382312D01*
X150456190Y-83393398D01*
X150476957Y-83420288D01*
X150510870Y-83460634D01*
X150555897Y-83512084D01*
X150610008Y-83572291D01*
X150671173Y-83638904D01*
X150688216Y-83657235D01*
X150751635Y-83725670D01*
X150809315Y-83788675D01*
X150859077Y-83843810D01*
X150898744Y-83888632D01*
X150926135Y-83920702D01*
X150939072Y-83937577D01*
X150939779Y-83939076D01*
X150938856Y-83954449D01*
X150934723Y-83990574D01*
X150927947Y-84043478D01*
X150919093Y-84109187D01*
X150908728Y-84183729D01*
X150897416Y-84263130D01*
X150885724Y-84343417D01*
X150874217Y-84420615D01*
X150863462Y-84490752D01*
X150854023Y-84549855D01*
X150846757Y-84592353D01*
X150843836Y-84619779D01*
X150846462Y-84632825D01*
X150847147Y-84632998D01*
X150859950Y-84627620D01*
X150892108Y-84612454D01*
X150940636Y-84588958D01*
X151002548Y-84558589D01*
X151074855Y-84522804D01*
X151154573Y-84483058D01*
X151154840Y-84482925D01*
X151235609Y-84442970D01*
X151310034Y-84407020D01*
X151374911Y-84376553D01*
X151427032Y-84353051D01*
X151463193Y-84337992D01*
X151480000Y-84332851D01*
X151497558Y-84338285D01*
X151534203Y-84353604D01*
X151586738Y-84377331D01*
X151651966Y-84407991D01*
X151726692Y-84444108D01*
X151806616Y-84483653D01*
X151886298Y-84523296D01*
X151958385Y-84558730D01*
X152019948Y-84588550D01*
X152068057Y-84611351D01*
X152099781Y-84625727D01*
X152112190Y-84630272D01*
X152112231Y-84630244D01*
X152111563Y-84617264D01*
X152107521Y-84582849D01*
X152100554Y-84530283D01*
X152091109Y-84462849D01*
X152079637Y-84383833D01*
X152067297Y-84301229D01*
X152054080Y-84212891D01*
X152042226Y-84131773D01*
X152032234Y-84061443D01*
X152024602Y-84005469D01*
X152019830Y-83967419D01*
X152018392Y-83951413D01*
X152026968Y-83935041D01*
X152051566Y-83902517D01*
X152090714Y-83855566D01*
X152142939Y-83795914D01*
X152206768Y-83725284D01*
X152268582Y-83658404D01*
X152331585Y-83590231D01*
X152388113Y-83527865D01*
X152436137Y-83473641D01*
X152473630Y-83429895D01*
X152498563Y-83398959D01*
X152508910Y-83383168D01*
X152508892Y-83381755D01*
X152494491Y-83377376D01*
X152458716Y-83369379D01*
X152404841Y-83358411D01*
X152336138Y-83345120D01*
X152255881Y-83330151D01*
X152167342Y-83314151D01*
X152161585Y-83313128D01*
X152072253Y-83296940D01*
X151990662Y-83281545D01*
X151920161Y-83267621D01*
X151864099Y-83255851D01*
X151825822Y-83246915D01*
X151808682Y-83241493D01*
X151808438Y-83241326D01*
X151798823Y-83227399D01*
X151779615Y-83194174D01*
X151752461Y-83144700D01*
X151719010Y-83082022D01*
X151680907Y-83009188D01*
X151640570Y-82930756D01*
X151599897Y-82851680D01*
X151562622Y-82780462D01*
X151530309Y-82719994D01*
X151504526Y-82673168D01*
X151486839Y-82642878D01*
X151478814Y-82632015D01*
X151478792Y-82632014D01*
X151470883Y-82642717D01*
X151453339Y-82672900D01*
X151427716Y-82719674D01*
X151395569Y-82780150D01*
X151358455Y-82851438D01*
X151317929Y-82930649D01*
X151317016Y-82932448D01*
X151275842Y-83012554D01*
X151237358Y-83085410D01*
X151203251Y-83147981D01*
X151175208Y-83197230D01*
X151154916Y-83230122D01*
X151144103Y-83243599D01*
X151126698Y-83248590D01*
X151088101Y-83257195D01*
X151031761Y-83268727D01*
X150961125Y-83282498D01*
X150879642Y-83297821D01*
X150792161Y-83313757D01*
X150704037Y-83329824D01*
X150623978Y-83344920D01*
X150555295Y-83358379D01*
X150501299Y-83369539D01*
X150465302Y-83377733D01*
X150450615Y-83382298D01*
X150450599Y-83382312D01*
X150336254Y-83382312D01*
X150320017Y-83360279D01*
X150317433Y-83354684D01*
X150327014Y-83331709D01*
X150338813Y-83322327D01*
X150356283Y-83317419D01*
X150395143Y-83308802D01*
X150452150Y-83297121D01*
X150524064Y-83283019D01*
X150607642Y-83267140D01*
X150699644Y-83250127D01*
X150732369Y-83244180D01*
X151104038Y-83176945D01*
X151277403Y-82838822D01*
X151327308Y-82741877D01*
X151367414Y-82665067D01*
X151399069Y-82606138D01*
X151423621Y-82562835D01*
X151442419Y-82532902D01*
X151456811Y-82514085D01*
X151468145Y-82504127D01*
X151477769Y-82500775D01*
X151479552Y-82500699D01*
X151488993Y-82503027D01*
G37*
G36*
X154278993Y-59833027D02*
G01*
X154289874Y-59841514D01*
X154303544Y-59858415D01*
X154321346Y-59885986D01*
X154344629Y-59926480D01*
X154374739Y-59982154D01*
X154413021Y-60055263D01*
X154460822Y-60148061D01*
X154471675Y-60169244D01*
X154645015Y-60507789D01*
X155010905Y-60573231D01*
X155104694Y-60590221D01*
X155191495Y-60606353D01*
X155267965Y-60620975D01*
X155330759Y-60633432D01*
X155376533Y-60643071D01*
X155401941Y-60649239D01*
X155404933Y-60650248D01*
X155426691Y-60666523D01*
X155433072Y-60681745D01*
X155424820Y-60695447D01*
X155401419Y-60724994D01*
X155364903Y-60768054D01*
X155317305Y-60822297D01*
X155260660Y-60885390D01*
X155197000Y-60955003D01*
X155158241Y-60996828D01*
X155078537Y-61082865D01*
X155014892Y-61152640D01*
X154965917Y-61207811D01*
X154930223Y-61250036D01*
X154906419Y-61280974D01*
X154893117Y-61302283D01*
X154888926Y-61315622D01*
X154889153Y-61317966D01*
X154895569Y-61351531D01*
X154904103Y-61402808D01*
X154914233Y-61468003D01*
X154925436Y-61543327D01*
X154937192Y-61624987D01*
X154948977Y-61709192D01*
X154960269Y-61792149D01*
X154970547Y-61870068D01*
X154979289Y-61939157D01*
X154985972Y-61995623D01*
X154990075Y-62035676D01*
X154991075Y-62055523D01*
X154990866Y-62056713D01*
X154974124Y-62073402D01*
X154964395Y-62075554D01*
X154948727Y-62070132D01*
X154913674Y-62054790D01*
X154862159Y-62030912D01*
X154797108Y-61999882D01*
X154721446Y-61963085D01*
X154638099Y-61921906D01*
X154607577Y-61906676D01*
X154270000Y-61737798D01*
X153932423Y-61906676D01*
X153847073Y-61949065D01*
X153768381Y-61987557D01*
X153699274Y-62020768D01*
X153642677Y-62047313D01*
X153601514Y-62065808D01*
X153578712Y-62074868D01*
X153575605Y-62075554D01*
X153554832Y-62065405D01*
X153548896Y-62056091D01*
X153549218Y-62040644D01*
X153552687Y-62004238D01*
X153558789Y-61950659D01*
X153567010Y-61883691D01*
X153576837Y-61807120D01*
X153587756Y-61724729D01*
X153599253Y-61640305D01*
X153610814Y-61557631D01*
X153621926Y-61480493D01*
X153632074Y-61412676D01*
X153640746Y-61357963D01*
X153647427Y-61320141D01*
X153650832Y-61305105D01*
X153643616Y-61292933D01*
X153621192Y-61264886D01*
X153585562Y-61223242D01*
X153538728Y-61170278D01*
X153482691Y-61108269D01*
X153419453Y-61039495D01*
X153381482Y-60998705D01*
X153314776Y-60926725D01*
X153253919Y-60859841D01*
X153200963Y-60800404D01*
X153157960Y-60750764D01*
X153126961Y-60713272D01*
X153126254Y-60712312D01*
X153240599Y-60712312D01*
X153246190Y-60723398D01*
X153266957Y-60750288D01*
X153300870Y-60790634D01*
X153345897Y-60842084D01*
X153400008Y-60902291D01*
X153461173Y-60968904D01*
X153478216Y-60987235D01*
X153541635Y-61055670D01*
X153599315Y-61118675D01*
X153649077Y-61173810D01*
X153688744Y-61218632D01*
X153716135Y-61250702D01*
X153729072Y-61267577D01*
X153729779Y-61269076D01*
X153728856Y-61284449D01*
X153724723Y-61320574D01*
X153717947Y-61373478D01*
X153709093Y-61439187D01*
X153698728Y-61513729D01*
X153687416Y-61593130D01*
X153675724Y-61673417D01*
X153664217Y-61750615D01*
X153653462Y-61820752D01*
X153644023Y-61879855D01*
X153636757Y-61922353D01*
X153633836Y-61949779D01*
X153636462Y-61962825D01*
X153637147Y-61962998D01*
X153649950Y-61957620D01*
X153682108Y-61942454D01*
X153730636Y-61918958D01*
X153792548Y-61888589D01*
X153864855Y-61852804D01*
X153944573Y-61813058D01*
X153944840Y-61812925D01*
X154025609Y-61772970D01*
X154100034Y-61737020D01*
X154164911Y-61706553D01*
X154217032Y-61683051D01*
X154253193Y-61667992D01*
X154270000Y-61662851D01*
X154287558Y-61668285D01*
X154324203Y-61683604D01*
X154376738Y-61707331D01*
X154441966Y-61737991D01*
X154516692Y-61774108D01*
X154596616Y-61813653D01*
X154676298Y-61853296D01*
X154748385Y-61888730D01*
X154809948Y-61918550D01*
X154858057Y-61941351D01*
X154889781Y-61955727D01*
X154902190Y-61960272D01*
X154902231Y-61960244D01*
X154901563Y-61947264D01*
X154897521Y-61912849D01*
X154890554Y-61860283D01*
X154881109Y-61792849D01*
X154869637Y-61713833D01*
X154857297Y-61631229D01*
X154844080Y-61542891D01*
X154832226Y-61461773D01*
X154822234Y-61391443D01*
X154814602Y-61335469D01*
X154809830Y-61297419D01*
X154808392Y-61281413D01*
X154816968Y-61265041D01*
X154841566Y-61232517D01*
X154880714Y-61185566D01*
X154932939Y-61125914D01*
X154996768Y-61055284D01*
X155058582Y-60988404D01*
X155121585Y-60920231D01*
X155178113Y-60857865D01*
X155226137Y-60803641D01*
X155263630Y-60759895D01*
X155288563Y-60728959D01*
X155298910Y-60713168D01*
X155298892Y-60711755D01*
X155284491Y-60707376D01*
X155248716Y-60699379D01*
X155194841Y-60688411D01*
X155126138Y-60675120D01*
X155045881Y-60660151D01*
X154957342Y-60644151D01*
X154951585Y-60643128D01*
X154862253Y-60626940D01*
X154780662Y-60611545D01*
X154710161Y-60597621D01*
X154654099Y-60585851D01*
X154615822Y-60576915D01*
X154598682Y-60571493D01*
X154598438Y-60571326D01*
X154588823Y-60557399D01*
X154569615Y-60524174D01*
X154542461Y-60474700D01*
X154509010Y-60412022D01*
X154470907Y-60339188D01*
X154430570Y-60260756D01*
X154389897Y-60181680D01*
X154352622Y-60110462D01*
X154320309Y-60049994D01*
X154294526Y-60003168D01*
X154276839Y-59972878D01*
X154268814Y-59962015D01*
X154268792Y-59962014D01*
X154260883Y-59972717D01*
X154243339Y-60002900D01*
X154217716Y-60049674D01*
X154185569Y-60110150D01*
X154148455Y-60181438D01*
X154107929Y-60260649D01*
X154107016Y-60262448D01*
X154065842Y-60342554D01*
X154027358Y-60415410D01*
X153993251Y-60477981D01*
X153965208Y-60527230D01*
X153944916Y-60560122D01*
X153934103Y-60573599D01*
X153916698Y-60578590D01*
X153878101Y-60587195D01*
X153821761Y-60598727D01*
X153751125Y-60612498D01*
X153669642Y-60627821D01*
X153582161Y-60643757D01*
X153494037Y-60659824D01*
X153413978Y-60674920D01*
X153345295Y-60688379D01*
X153291299Y-60699539D01*
X153255302Y-60707733D01*
X153240615Y-60712298D01*
X153240599Y-60712312D01*
X153126254Y-60712312D01*
X153110017Y-60690279D01*
X153107433Y-60684684D01*
X153117014Y-60661709D01*
X153128813Y-60652327D01*
X153146283Y-60647419D01*
X153185143Y-60638802D01*
X153242150Y-60627121D01*
X153314064Y-60613019D01*
X153397642Y-60597140D01*
X153489644Y-60580127D01*
X153522369Y-60574180D01*
X153894038Y-60506945D01*
X154067403Y-60168822D01*
X154117308Y-60071877D01*
X154157414Y-59995067D01*
X154189069Y-59936138D01*
X154213621Y-59892835D01*
X154232419Y-59862902D01*
X154246811Y-59844085D01*
X154258145Y-59834127D01*
X154267769Y-59830775D01*
X154269552Y-59830699D01*
X154278993Y-59833027D01*
G37*
G36*
X156868993Y-67553027D02*
G01*
X156879874Y-67561514D01*
X156893544Y-67578415D01*
X156911346Y-67605986D01*
X156934629Y-67646480D01*
X156964739Y-67702154D01*
X157003021Y-67775263D01*
X157050822Y-67868061D01*
X157061675Y-67889244D01*
X157235015Y-68227789D01*
X157600905Y-68293231D01*
X157694694Y-68310221D01*
X157781495Y-68326353D01*
X157857965Y-68340975D01*
X157920759Y-68353432D01*
X157966533Y-68363071D01*
X157991941Y-68369239D01*
X157994933Y-68370248D01*
X158016691Y-68386523D01*
X158023072Y-68401745D01*
X158014820Y-68415447D01*
X157991419Y-68444994D01*
X157954903Y-68488054D01*
X157907305Y-68542297D01*
X157850660Y-68605390D01*
X157787000Y-68675003D01*
X157748241Y-68716828D01*
X157668537Y-68802865D01*
X157604892Y-68872640D01*
X157555917Y-68927811D01*
X157520223Y-68970036D01*
X157496419Y-69000974D01*
X157483117Y-69022283D01*
X157478926Y-69035622D01*
X157479153Y-69037966D01*
X157485569Y-69071531D01*
X157494103Y-69122808D01*
X157504233Y-69188003D01*
X157515436Y-69263327D01*
X157527192Y-69344987D01*
X157538977Y-69429192D01*
X157550269Y-69512149D01*
X157560547Y-69590068D01*
X157569289Y-69659157D01*
X157575972Y-69715623D01*
X157580075Y-69755676D01*
X157581075Y-69775523D01*
X157580866Y-69776713D01*
X157564124Y-69793402D01*
X157554395Y-69795554D01*
X157538727Y-69790132D01*
X157503674Y-69774790D01*
X157452159Y-69750912D01*
X157387108Y-69719882D01*
X157311446Y-69683085D01*
X157228099Y-69641906D01*
X157197577Y-69626676D01*
X156860000Y-69457798D01*
X156522423Y-69626676D01*
X156437073Y-69669065D01*
X156358381Y-69707557D01*
X156289274Y-69740768D01*
X156232677Y-69767313D01*
X156191514Y-69785808D01*
X156168712Y-69794868D01*
X156165605Y-69795554D01*
X156144832Y-69785405D01*
X156138896Y-69776091D01*
X156139218Y-69760644D01*
X156142687Y-69724238D01*
X156148789Y-69670659D01*
X156157010Y-69603691D01*
X156166837Y-69527120D01*
X156177756Y-69444729D01*
X156189253Y-69360305D01*
X156200814Y-69277631D01*
X156211926Y-69200493D01*
X156222074Y-69132676D01*
X156230746Y-69077963D01*
X156237427Y-69040141D01*
X156240832Y-69025105D01*
X156233616Y-69012933D01*
X156211192Y-68984886D01*
X156175562Y-68943242D01*
X156128728Y-68890278D01*
X156072691Y-68828269D01*
X156009453Y-68759495D01*
X155971482Y-68718705D01*
X155904776Y-68646725D01*
X155843919Y-68579841D01*
X155790963Y-68520404D01*
X155747960Y-68470764D01*
X155716961Y-68433272D01*
X155716254Y-68432312D01*
X155830599Y-68432312D01*
X155836190Y-68443398D01*
X155856957Y-68470288D01*
X155890870Y-68510634D01*
X155935897Y-68562084D01*
X155990008Y-68622291D01*
X156051173Y-68688904D01*
X156068216Y-68707235D01*
X156131635Y-68775670D01*
X156189315Y-68838675D01*
X156239077Y-68893810D01*
X156278744Y-68938632D01*
X156306135Y-68970702D01*
X156319072Y-68987577D01*
X156319779Y-68989076D01*
X156318856Y-69004449D01*
X156314723Y-69040574D01*
X156307947Y-69093478D01*
X156299093Y-69159187D01*
X156288728Y-69233729D01*
X156277416Y-69313130D01*
X156265724Y-69393417D01*
X156254217Y-69470615D01*
X156243462Y-69540752D01*
X156234023Y-69599855D01*
X156226757Y-69642353D01*
X156223836Y-69669779D01*
X156226462Y-69682825D01*
X156227147Y-69682998D01*
X156239950Y-69677620D01*
X156272108Y-69662454D01*
X156320636Y-69638958D01*
X156382548Y-69608589D01*
X156454855Y-69572804D01*
X156534573Y-69533058D01*
X156534840Y-69532925D01*
X156615609Y-69492970D01*
X156690034Y-69457020D01*
X156754911Y-69426553D01*
X156807032Y-69403051D01*
X156843193Y-69387992D01*
X156860000Y-69382851D01*
X156877558Y-69388285D01*
X156914203Y-69403604D01*
X156966738Y-69427331D01*
X157031966Y-69457991D01*
X157106692Y-69494108D01*
X157186616Y-69533653D01*
X157266298Y-69573296D01*
X157338385Y-69608730D01*
X157399948Y-69638550D01*
X157448057Y-69661351D01*
X157479781Y-69675727D01*
X157492190Y-69680272D01*
X157492231Y-69680244D01*
X157491563Y-69667264D01*
X157487521Y-69632849D01*
X157480554Y-69580283D01*
X157471109Y-69512849D01*
X157459637Y-69433833D01*
X157447297Y-69351229D01*
X157434080Y-69262891D01*
X157422226Y-69181773D01*
X157412234Y-69111443D01*
X157404602Y-69055469D01*
X157399830Y-69017419D01*
X157398392Y-69001413D01*
X157406968Y-68985041D01*
X157431566Y-68952517D01*
X157470714Y-68905566D01*
X157522939Y-68845914D01*
X157586768Y-68775284D01*
X157648582Y-68708404D01*
X157711585Y-68640231D01*
X157768113Y-68577865D01*
X157816137Y-68523641D01*
X157853630Y-68479895D01*
X157878563Y-68448959D01*
X157888910Y-68433168D01*
X157888892Y-68431755D01*
X157874491Y-68427376D01*
X157838716Y-68419379D01*
X157784841Y-68408411D01*
X157716138Y-68395120D01*
X157635881Y-68380151D01*
X157547342Y-68364151D01*
X157541585Y-68363128D01*
X157452253Y-68346940D01*
X157370662Y-68331545D01*
X157300161Y-68317621D01*
X157244099Y-68305851D01*
X157205822Y-68296915D01*
X157188682Y-68291493D01*
X157188438Y-68291326D01*
X157178823Y-68277399D01*
X157159615Y-68244174D01*
X157132461Y-68194700D01*
X157099010Y-68132022D01*
X157060907Y-68059188D01*
X157020570Y-67980756D01*
X156979897Y-67901680D01*
X156942622Y-67830462D01*
X156910309Y-67769994D01*
X156884526Y-67723168D01*
X156866839Y-67692878D01*
X156858814Y-67682015D01*
X156858792Y-67682014D01*
X156850883Y-67692717D01*
X156833339Y-67722900D01*
X156807716Y-67769674D01*
X156775569Y-67830150D01*
X156738455Y-67901438D01*
X156697929Y-67980649D01*
X156697016Y-67982448D01*
X156655842Y-68062554D01*
X156617358Y-68135410D01*
X156583251Y-68197981D01*
X156555208Y-68247230D01*
X156534916Y-68280122D01*
X156524103Y-68293599D01*
X156506698Y-68298590D01*
X156468101Y-68307195D01*
X156411761Y-68318727D01*
X156341125Y-68332498D01*
X156259642Y-68347821D01*
X156172161Y-68363757D01*
X156084037Y-68379824D01*
X156003978Y-68394920D01*
X155935295Y-68408379D01*
X155881299Y-68419539D01*
X155845302Y-68427733D01*
X155830615Y-68432298D01*
X155830599Y-68432312D01*
X155716254Y-68432312D01*
X155700017Y-68410279D01*
X155697433Y-68404684D01*
X155707014Y-68381709D01*
X155718813Y-68372327D01*
X155736283Y-68367419D01*
X155775143Y-68358802D01*
X155832150Y-68347121D01*
X155904064Y-68333019D01*
X155987642Y-68317140D01*
X156079644Y-68300127D01*
X156112369Y-68294180D01*
X156484038Y-68226945D01*
X156657403Y-67888822D01*
X156707308Y-67791877D01*
X156747414Y-67715067D01*
X156779069Y-67656138D01*
X156803621Y-67612835D01*
X156822419Y-67582902D01*
X156836811Y-67564085D01*
X156848145Y-67554127D01*
X156857769Y-67550775D01*
X156859552Y-67550699D01*
X156868993Y-67553027D01*
G37*
G36*
X175448993Y-48523027D02*
G01*
X175459874Y-48531514D01*
X175473544Y-48548415D01*
X175491346Y-48575986D01*
X175514629Y-48616480D01*
X175544739Y-48672154D01*
X175583021Y-48745263D01*
X175630822Y-48838061D01*
X175641675Y-48859244D01*
X175815015Y-49197789D01*
X176180905Y-49263231D01*
X176274694Y-49280221D01*
X176361495Y-49296353D01*
X176437965Y-49310975D01*
X176500759Y-49323432D01*
X176546533Y-49333071D01*
X176571941Y-49339239D01*
X176574933Y-49340248D01*
X176596691Y-49356523D01*
X176603072Y-49371745D01*
X176594820Y-49385447D01*
X176571419Y-49414994D01*
X176534903Y-49458054D01*
X176487305Y-49512297D01*
X176430660Y-49575390D01*
X176367000Y-49645003D01*
X176328241Y-49686828D01*
X176248537Y-49772865D01*
X176184892Y-49842640D01*
X176135917Y-49897811D01*
X176100223Y-49940036D01*
X176076419Y-49970974D01*
X176063117Y-49992283D01*
X176058926Y-50005622D01*
X176059153Y-50007966D01*
X176065569Y-50041531D01*
X176074103Y-50092808D01*
X176084233Y-50158003D01*
X176095436Y-50233327D01*
X176107192Y-50314987D01*
X176118977Y-50399192D01*
X176130269Y-50482149D01*
X176140547Y-50560068D01*
X176149289Y-50629157D01*
X176155972Y-50685623D01*
X176160075Y-50725676D01*
X176161075Y-50745523D01*
X176160866Y-50746713D01*
X176144124Y-50763402D01*
X176134395Y-50765554D01*
X176118727Y-50760132D01*
X176083674Y-50744790D01*
X176032159Y-50720912D01*
X175967108Y-50689882D01*
X175891446Y-50653085D01*
X175808099Y-50611906D01*
X175777577Y-50596676D01*
X175440000Y-50427798D01*
X175102423Y-50596676D01*
X175017073Y-50639065D01*
X174938381Y-50677557D01*
X174869274Y-50710768D01*
X174812677Y-50737313D01*
X174771514Y-50755808D01*
X174748712Y-50764868D01*
X174745605Y-50765554D01*
X174724832Y-50755405D01*
X174718896Y-50746091D01*
X174719218Y-50730644D01*
X174722687Y-50694238D01*
X174728789Y-50640659D01*
X174737010Y-50573691D01*
X174746837Y-50497120D01*
X174757756Y-50414729D01*
X174769253Y-50330305D01*
X174780814Y-50247631D01*
X174791926Y-50170493D01*
X174802074Y-50102676D01*
X174810746Y-50047963D01*
X174817427Y-50010141D01*
X174820832Y-49995105D01*
X174813616Y-49982933D01*
X174791192Y-49954886D01*
X174755562Y-49913242D01*
X174708728Y-49860278D01*
X174652691Y-49798269D01*
X174589453Y-49729495D01*
X174551482Y-49688705D01*
X174484776Y-49616725D01*
X174423919Y-49549841D01*
X174370963Y-49490404D01*
X174327960Y-49440764D01*
X174296961Y-49403272D01*
X174296254Y-49402312D01*
X174410599Y-49402312D01*
X174416190Y-49413398D01*
X174436957Y-49440288D01*
X174470870Y-49480634D01*
X174515897Y-49532084D01*
X174570008Y-49592291D01*
X174631173Y-49658904D01*
X174648216Y-49677235D01*
X174711635Y-49745670D01*
X174769315Y-49808675D01*
X174819077Y-49863810D01*
X174858744Y-49908632D01*
X174886135Y-49940702D01*
X174899072Y-49957577D01*
X174899779Y-49959076D01*
X174898856Y-49974449D01*
X174894723Y-50010574D01*
X174887947Y-50063478D01*
X174879093Y-50129187D01*
X174868728Y-50203729D01*
X174857416Y-50283130D01*
X174845724Y-50363417D01*
X174834217Y-50440615D01*
X174823462Y-50510752D01*
X174814023Y-50569855D01*
X174806757Y-50612353D01*
X174803836Y-50639779D01*
X174806462Y-50652825D01*
X174807147Y-50652998D01*
X174819950Y-50647620D01*
X174852108Y-50632454D01*
X174900636Y-50608958D01*
X174962548Y-50578589D01*
X175034855Y-50542804D01*
X175114573Y-50503058D01*
X175114840Y-50502925D01*
X175195609Y-50462970D01*
X175270034Y-50427020D01*
X175334911Y-50396553D01*
X175387032Y-50373051D01*
X175423193Y-50357992D01*
X175440000Y-50352851D01*
X175457558Y-50358285D01*
X175494203Y-50373604D01*
X175546738Y-50397331D01*
X175611966Y-50427991D01*
X175686692Y-50464108D01*
X175766616Y-50503653D01*
X175846298Y-50543296D01*
X175918385Y-50578730D01*
X175979948Y-50608550D01*
X176028057Y-50631351D01*
X176059781Y-50645727D01*
X176072190Y-50650272D01*
X176072231Y-50650244D01*
X176071563Y-50637264D01*
X176067521Y-50602849D01*
X176060554Y-50550283D01*
X176051109Y-50482849D01*
X176039637Y-50403833D01*
X176027297Y-50321229D01*
X176014080Y-50232891D01*
X176002226Y-50151773D01*
X175992234Y-50081443D01*
X175984602Y-50025469D01*
X175979830Y-49987419D01*
X175978392Y-49971413D01*
X175986968Y-49955041D01*
X176011566Y-49922517D01*
X176050714Y-49875566D01*
X176102939Y-49815914D01*
X176166768Y-49745284D01*
X176228582Y-49678404D01*
X176291585Y-49610231D01*
X176348113Y-49547865D01*
X176396137Y-49493641D01*
X176433630Y-49449895D01*
X176458563Y-49418959D01*
X176468910Y-49403168D01*
X176468892Y-49401755D01*
X176454491Y-49397376D01*
X176418716Y-49389379D01*
X176364841Y-49378411D01*
X176296138Y-49365120D01*
X176215881Y-49350151D01*
X176127342Y-49334151D01*
X176121585Y-49333128D01*
X176032253Y-49316940D01*
X175950662Y-49301545D01*
X175880161Y-49287621D01*
X175824099Y-49275851D01*
X175785822Y-49266915D01*
X175768682Y-49261493D01*
X175768438Y-49261326D01*
X175758823Y-49247399D01*
X175739615Y-49214174D01*
X175712461Y-49164700D01*
X175679010Y-49102022D01*
X175640907Y-49029188D01*
X175600570Y-48950756D01*
X175559897Y-48871680D01*
X175522622Y-48800462D01*
X175490309Y-48739994D01*
X175464526Y-48693168D01*
X175446839Y-48662878D01*
X175438814Y-48652015D01*
X175438792Y-48652014D01*
X175430883Y-48662717D01*
X175413339Y-48692900D01*
X175387716Y-48739674D01*
X175355569Y-48800150D01*
X175318455Y-48871438D01*
X175277929Y-48950649D01*
X175277016Y-48952448D01*
X175235842Y-49032554D01*
X175197358Y-49105410D01*
X175163251Y-49167981D01*
X175135208Y-49217230D01*
X175114916Y-49250122D01*
X175104103Y-49263599D01*
X175086698Y-49268590D01*
X175048101Y-49277195D01*
X174991761Y-49288727D01*
X174921125Y-49302498D01*
X174839642Y-49317821D01*
X174752161Y-49333757D01*
X174664037Y-49349824D01*
X174583978Y-49364920D01*
X174515295Y-49378379D01*
X174461299Y-49389539D01*
X174425302Y-49397733D01*
X174410615Y-49402298D01*
X174410599Y-49402312D01*
X174296254Y-49402312D01*
X174280017Y-49380279D01*
X174277433Y-49374684D01*
X174287014Y-49351709D01*
X174298813Y-49342327D01*
X174316283Y-49337419D01*
X174355143Y-49328802D01*
X174412150Y-49317121D01*
X174484064Y-49303019D01*
X174567642Y-49287140D01*
X174659644Y-49270127D01*
X174692369Y-49264180D01*
X175064038Y-49196945D01*
X175237403Y-48858822D01*
X175287308Y-48761877D01*
X175327414Y-48685067D01*
X175359069Y-48626138D01*
X175383621Y-48582835D01*
X175402419Y-48552902D01*
X175416811Y-48534085D01*
X175428145Y-48524127D01*
X175437769Y-48520775D01*
X175439552Y-48520699D01*
X175448993Y-48523027D01*
G37*
G36*
X136138993Y-35141849D02*
G01*
X136149874Y-35150336D01*
X136163544Y-35167237D01*
X136181346Y-35194808D01*
X136204629Y-35235302D01*
X136234739Y-35290976D01*
X136273021Y-35364085D01*
X136320822Y-35456883D01*
X136331675Y-35478066D01*
X136505015Y-35816611D01*
X136870905Y-35882053D01*
X136964694Y-35899043D01*
X137051495Y-35915175D01*
X137127965Y-35929797D01*
X137190759Y-35942254D01*
X137236533Y-35951893D01*
X137261941Y-35958061D01*
X137264933Y-35959070D01*
X137286691Y-35975345D01*
X137293072Y-35990567D01*
X137284820Y-36004269D01*
X137261419Y-36033816D01*
X137224903Y-36076876D01*
X137177305Y-36131119D01*
X137120660Y-36194212D01*
X137057000Y-36263825D01*
X137018241Y-36305650D01*
X136938537Y-36391687D01*
X136874892Y-36461462D01*
X136825917Y-36516633D01*
X136790223Y-36558858D01*
X136766419Y-36589796D01*
X136753117Y-36611105D01*
X136748926Y-36624444D01*
X136749153Y-36626788D01*
X136755569Y-36660353D01*
X136764103Y-36711630D01*
X136774233Y-36776825D01*
X136785436Y-36852149D01*
X136797192Y-36933809D01*
X136808977Y-37018014D01*
X136820269Y-37100971D01*
X136830547Y-37178890D01*
X136839289Y-37247979D01*
X136845972Y-37304445D01*
X136850075Y-37344498D01*
X136851075Y-37364345D01*
X136850866Y-37365535D01*
X136834124Y-37382224D01*
X136824395Y-37384376D01*
X136808727Y-37378954D01*
X136773674Y-37363612D01*
X136722159Y-37339734D01*
X136657108Y-37308704D01*
X136581446Y-37271907D01*
X136498099Y-37230728D01*
X136467577Y-37215498D01*
X136130000Y-37046620D01*
X135792423Y-37215498D01*
X135707073Y-37257887D01*
X135628381Y-37296379D01*
X135559274Y-37329590D01*
X135502677Y-37356135D01*
X135461514Y-37374630D01*
X135438712Y-37383690D01*
X135435605Y-37384376D01*
X135414832Y-37374227D01*
X135408896Y-37364913D01*
X135409218Y-37349466D01*
X135412687Y-37313060D01*
X135418789Y-37259481D01*
X135427010Y-37192513D01*
X135436837Y-37115942D01*
X135447756Y-37033551D01*
X135459253Y-36949127D01*
X135470814Y-36866453D01*
X135481926Y-36789315D01*
X135492074Y-36721498D01*
X135500746Y-36666785D01*
X135507427Y-36628963D01*
X135510832Y-36613927D01*
X135503616Y-36601755D01*
X135481192Y-36573708D01*
X135445562Y-36532064D01*
X135398728Y-36479100D01*
X135342691Y-36417091D01*
X135279453Y-36348317D01*
X135241482Y-36307527D01*
X135174776Y-36235547D01*
X135113919Y-36168663D01*
X135060963Y-36109226D01*
X135017960Y-36059586D01*
X134986961Y-36022094D01*
X134986254Y-36021134D01*
X135100599Y-36021134D01*
X135106190Y-36032220D01*
X135126957Y-36059110D01*
X135160870Y-36099456D01*
X135205897Y-36150906D01*
X135260008Y-36211113D01*
X135321173Y-36277726D01*
X135338216Y-36296057D01*
X135401635Y-36364492D01*
X135459315Y-36427497D01*
X135509077Y-36482632D01*
X135548744Y-36527454D01*
X135576135Y-36559524D01*
X135589072Y-36576399D01*
X135589779Y-36577898D01*
X135588856Y-36593271D01*
X135584723Y-36629396D01*
X135577947Y-36682300D01*
X135569093Y-36748009D01*
X135558728Y-36822551D01*
X135547416Y-36901952D01*
X135535724Y-36982239D01*
X135524217Y-37059437D01*
X135513462Y-37129574D01*
X135504023Y-37188677D01*
X135496757Y-37231175D01*
X135493836Y-37258601D01*
X135496462Y-37271647D01*
X135497147Y-37271820D01*
X135509950Y-37266442D01*
X135542108Y-37251276D01*
X135590636Y-37227780D01*
X135652548Y-37197411D01*
X135724855Y-37161626D01*
X135804573Y-37121880D01*
X135804840Y-37121747D01*
X135885609Y-37081792D01*
X135960034Y-37045842D01*
X136024911Y-37015375D01*
X136077032Y-36991873D01*
X136113193Y-36976814D01*
X136130000Y-36971673D01*
X136147558Y-36977107D01*
X136184203Y-36992426D01*
X136236738Y-37016153D01*
X136301966Y-37046813D01*
X136376692Y-37082930D01*
X136456616Y-37122475D01*
X136536298Y-37162118D01*
X136608385Y-37197552D01*
X136669948Y-37227372D01*
X136718057Y-37250173D01*
X136749781Y-37264549D01*
X136762190Y-37269094D01*
X136762231Y-37269066D01*
X136761563Y-37256086D01*
X136757521Y-37221671D01*
X136750554Y-37169105D01*
X136741109Y-37101671D01*
X136729637Y-37022655D01*
X136717297Y-36940051D01*
X136704080Y-36851713D01*
X136692226Y-36770595D01*
X136682234Y-36700265D01*
X136674602Y-36644291D01*
X136669830Y-36606241D01*
X136668392Y-36590235D01*
X136676968Y-36573863D01*
X136701566Y-36541339D01*
X136740714Y-36494388D01*
X136792939Y-36434736D01*
X136856768Y-36364106D01*
X136918582Y-36297226D01*
X136981585Y-36229053D01*
X137038113Y-36166687D01*
X137086137Y-36112463D01*
X137123630Y-36068717D01*
X137148563Y-36037781D01*
X137158910Y-36021990D01*
X137158892Y-36020577D01*
X137144491Y-36016198D01*
X137108716Y-36008201D01*
X137054841Y-35997233D01*
X136986138Y-35983942D01*
X136905881Y-35968973D01*
X136817342Y-35952973D01*
X136811585Y-35951950D01*
X136722253Y-35935762D01*
X136640662Y-35920367D01*
X136570161Y-35906443D01*
X136514099Y-35894673D01*
X136475822Y-35885737D01*
X136458682Y-35880315D01*
X136458438Y-35880148D01*
X136448823Y-35866221D01*
X136429615Y-35832996D01*
X136402461Y-35783522D01*
X136369010Y-35720844D01*
X136330907Y-35648010D01*
X136290570Y-35569578D01*
X136249897Y-35490502D01*
X136212622Y-35419284D01*
X136180309Y-35358816D01*
X136154526Y-35311990D01*
X136136839Y-35281700D01*
X136128814Y-35270837D01*
X136128792Y-35270836D01*
X136120883Y-35281539D01*
X136103339Y-35311722D01*
X136077716Y-35358496D01*
X136045569Y-35418972D01*
X136008455Y-35490260D01*
X135967929Y-35569471D01*
X135967016Y-35571270D01*
X135925842Y-35651376D01*
X135887358Y-35724232D01*
X135853251Y-35786803D01*
X135825208Y-35836052D01*
X135804916Y-35868944D01*
X135794103Y-35882421D01*
X135776698Y-35887412D01*
X135738101Y-35896017D01*
X135681761Y-35907549D01*
X135611125Y-35921320D01*
X135529642Y-35936643D01*
X135442161Y-35952579D01*
X135354037Y-35968646D01*
X135273978Y-35983742D01*
X135205295Y-35997201D01*
X135151299Y-36008361D01*
X135115302Y-36016555D01*
X135100615Y-36021120D01*
X135100599Y-36021134D01*
X134986254Y-36021134D01*
X134970017Y-35999101D01*
X134967433Y-35993506D01*
X134977014Y-35970531D01*
X134988813Y-35961149D01*
X135006283Y-35956241D01*
X135045143Y-35947624D01*
X135102150Y-35935943D01*
X135174064Y-35921841D01*
X135257642Y-35905962D01*
X135349644Y-35888949D01*
X135382369Y-35883002D01*
X135754038Y-35815767D01*
X135927403Y-35477644D01*
X135977308Y-35380699D01*
X136017414Y-35303889D01*
X136049069Y-35244960D01*
X136073621Y-35201657D01*
X136092419Y-35171724D01*
X136106811Y-35152907D01*
X136118145Y-35142949D01*
X136127769Y-35139597D01*
X136129552Y-35139521D01*
X136138993Y-35141849D01*
G37*
G36*
X148034653Y-35923027D02*
G01*
X148045534Y-35931514D01*
X148059204Y-35948415D01*
X148077006Y-35975986D01*
X148100289Y-36016480D01*
X148130399Y-36072154D01*
X148168681Y-36145263D01*
X148216482Y-36238061D01*
X148227335Y-36259244D01*
X148400675Y-36597789D01*
X148766565Y-36663231D01*
X148860354Y-36680221D01*
X148947155Y-36696353D01*
X149023625Y-36710975D01*
X149086419Y-36723432D01*
X149132193Y-36733071D01*
X149157601Y-36739239D01*
X149160593Y-36740248D01*
X149182351Y-36756523D01*
X149188732Y-36771745D01*
X149180480Y-36785447D01*
X149157079Y-36814994D01*
X149120563Y-36858054D01*
X149072965Y-36912297D01*
X149016320Y-36975390D01*
X148952660Y-37045003D01*
X148913901Y-37086828D01*
X148834197Y-37172865D01*
X148770552Y-37242640D01*
X148721577Y-37297811D01*
X148685883Y-37340036D01*
X148662079Y-37370974D01*
X148648777Y-37392283D01*
X148644586Y-37405622D01*
X148644813Y-37407966D01*
X148651229Y-37441531D01*
X148659763Y-37492808D01*
X148669893Y-37558003D01*
X148681096Y-37633327D01*
X148692852Y-37714987D01*
X148704637Y-37799192D01*
X148715929Y-37882149D01*
X148726207Y-37960068D01*
X148734949Y-38029157D01*
X148741632Y-38085623D01*
X148745735Y-38125676D01*
X148746735Y-38145523D01*
X148746526Y-38146713D01*
X148729784Y-38163402D01*
X148720055Y-38165554D01*
X148704387Y-38160132D01*
X148669334Y-38144790D01*
X148617819Y-38120912D01*
X148552768Y-38089882D01*
X148477106Y-38053085D01*
X148393759Y-38011906D01*
X148363237Y-37996676D01*
X148025660Y-37827798D01*
X147688083Y-37996676D01*
X147602733Y-38039065D01*
X147524041Y-38077557D01*
X147454934Y-38110768D01*
X147398337Y-38137313D01*
X147357174Y-38155808D01*
X147334372Y-38164868D01*
X147331265Y-38165554D01*
X147310492Y-38155405D01*
X147304556Y-38146091D01*
X147304878Y-38130644D01*
X147308347Y-38094238D01*
X147314449Y-38040659D01*
X147322670Y-37973691D01*
X147332497Y-37897120D01*
X147343416Y-37814729D01*
X147354913Y-37730305D01*
X147366474Y-37647631D01*
X147377586Y-37570493D01*
X147387734Y-37502676D01*
X147396406Y-37447963D01*
X147403087Y-37410141D01*
X147406492Y-37395105D01*
X147399276Y-37382933D01*
X147376852Y-37354886D01*
X147341222Y-37313242D01*
X147294388Y-37260278D01*
X147238351Y-37198269D01*
X147175113Y-37129495D01*
X147137142Y-37088705D01*
X147070436Y-37016725D01*
X147009579Y-36949841D01*
X146956623Y-36890404D01*
X146913620Y-36840764D01*
X146882621Y-36803272D01*
X146881914Y-36802312D01*
X146996259Y-36802312D01*
X147001850Y-36813398D01*
X147022617Y-36840288D01*
X147056530Y-36880634D01*
X147101557Y-36932084D01*
X147155668Y-36992291D01*
X147216833Y-37058904D01*
X147233876Y-37077235D01*
X147297295Y-37145670D01*
X147354975Y-37208675D01*
X147404737Y-37263810D01*
X147444404Y-37308632D01*
X147471795Y-37340702D01*
X147484732Y-37357577D01*
X147485439Y-37359076D01*
X147484516Y-37374449D01*
X147480383Y-37410574D01*
X147473607Y-37463478D01*
X147464753Y-37529187D01*
X147454388Y-37603729D01*
X147443076Y-37683130D01*
X147431384Y-37763417D01*
X147419877Y-37840615D01*
X147409122Y-37910752D01*
X147399683Y-37969855D01*
X147392417Y-38012353D01*
X147389496Y-38039779D01*
X147392122Y-38052825D01*
X147392807Y-38052998D01*
X147405610Y-38047620D01*
X147437768Y-38032454D01*
X147486296Y-38008958D01*
X147548208Y-37978589D01*
X147620515Y-37942804D01*
X147700233Y-37903058D01*
X147700500Y-37902925D01*
X147781269Y-37862970D01*
X147855694Y-37827020D01*
X147920571Y-37796553D01*
X147972692Y-37773051D01*
X148008853Y-37757992D01*
X148025660Y-37752851D01*
X148043218Y-37758285D01*
X148079863Y-37773604D01*
X148132398Y-37797331D01*
X148197626Y-37827991D01*
X148272352Y-37864108D01*
X148352276Y-37903653D01*
X148431958Y-37943296D01*
X148504045Y-37978730D01*
X148565608Y-38008550D01*
X148613717Y-38031351D01*
X148645441Y-38045727D01*
X148657850Y-38050272D01*
X148657891Y-38050244D01*
X148657223Y-38037264D01*
X148653181Y-38002849D01*
X148646214Y-37950283D01*
X148636769Y-37882849D01*
X148625297Y-37803833D01*
X148612957Y-37721229D01*
X148599740Y-37632891D01*
X148587886Y-37551773D01*
X148577894Y-37481443D01*
X148570262Y-37425469D01*
X148565490Y-37387419D01*
X148564052Y-37371413D01*
X148572628Y-37355041D01*
X148597226Y-37322517D01*
X148636374Y-37275566D01*
X148688599Y-37215914D01*
X148752428Y-37145284D01*
X148814242Y-37078404D01*
X148877245Y-37010231D01*
X148933773Y-36947865D01*
X148981797Y-36893641D01*
X149019290Y-36849895D01*
X149044223Y-36818959D01*
X149054570Y-36803168D01*
X149054552Y-36801755D01*
X149040151Y-36797376D01*
X149004376Y-36789379D01*
X148950501Y-36778411D01*
X148881798Y-36765120D01*
X148801541Y-36750151D01*
X148713002Y-36734151D01*
X148707245Y-36733128D01*
X148617913Y-36716940D01*
X148536322Y-36701545D01*
X148465821Y-36687621D01*
X148409759Y-36675851D01*
X148371482Y-36666915D01*
X148354342Y-36661493D01*
X148354098Y-36661326D01*
X148344483Y-36647399D01*
X148325275Y-36614174D01*
X148298121Y-36564700D01*
X148264670Y-36502022D01*
X148226567Y-36429188D01*
X148186230Y-36350756D01*
X148145557Y-36271680D01*
X148108282Y-36200462D01*
X148075969Y-36139994D01*
X148050186Y-36093168D01*
X148032499Y-36062878D01*
X148024474Y-36052015D01*
X148024452Y-36052014D01*
X148016543Y-36062717D01*
X147998999Y-36092900D01*
X147973376Y-36139674D01*
X147941229Y-36200150D01*
X147904115Y-36271438D01*
X147863589Y-36350649D01*
X147862676Y-36352448D01*
X147821502Y-36432554D01*
X147783018Y-36505410D01*
X147748911Y-36567981D01*
X147720868Y-36617230D01*
X147700576Y-36650122D01*
X147689763Y-36663599D01*
X147672358Y-36668590D01*
X147633761Y-36677195D01*
X147577421Y-36688727D01*
X147506785Y-36702498D01*
X147425302Y-36717821D01*
X147337821Y-36733757D01*
X147249697Y-36749824D01*
X147169638Y-36764920D01*
X147100955Y-36778379D01*
X147046959Y-36789539D01*
X147010962Y-36797733D01*
X146996275Y-36802298D01*
X146996259Y-36802312D01*
X146881914Y-36802312D01*
X146865677Y-36780279D01*
X146863093Y-36774684D01*
X146872674Y-36751709D01*
X146884473Y-36742327D01*
X146901943Y-36737419D01*
X146940803Y-36728802D01*
X146997810Y-36717121D01*
X147069724Y-36703019D01*
X147153302Y-36687140D01*
X147245304Y-36670127D01*
X147278029Y-36664180D01*
X147649698Y-36596945D01*
X147823063Y-36258822D01*
X147872968Y-36161877D01*
X147913074Y-36085067D01*
X147944729Y-36026138D01*
X147969281Y-35982835D01*
X147988079Y-35952902D01*
X148002471Y-35934085D01*
X148013805Y-35924127D01*
X148023429Y-35920775D01*
X148025212Y-35920699D01*
X148034653Y-35923027D01*
G37*
G36*
X117858993Y-56543027D02*
G01*
X117869874Y-56551514D01*
X117883544Y-56568415D01*
X117901346Y-56595986D01*
X117924629Y-56636480D01*
X117954739Y-56692154D01*
X117993021Y-56765263D01*
X118040822Y-56858061D01*
X118051675Y-56879244D01*
X118225015Y-57217789D01*
X118590905Y-57283231D01*
X118684694Y-57300221D01*
X118771495Y-57316353D01*
X118847965Y-57330975D01*
X118910759Y-57343432D01*
X118956533Y-57353071D01*
X118981941Y-57359239D01*
X118984933Y-57360248D01*
X119006691Y-57376523D01*
X119013072Y-57391745D01*
X119004820Y-57405447D01*
X118981419Y-57434994D01*
X118944903Y-57478054D01*
X118897305Y-57532297D01*
X118840660Y-57595390D01*
X118777000Y-57665003D01*
X118738241Y-57706828D01*
X118658537Y-57792865D01*
X118594892Y-57862640D01*
X118545917Y-57917811D01*
X118510223Y-57960036D01*
X118486419Y-57990974D01*
X118473117Y-58012283D01*
X118468926Y-58025622D01*
X118469153Y-58027966D01*
X118475569Y-58061531D01*
X118484103Y-58112808D01*
X118494233Y-58178003D01*
X118505436Y-58253327D01*
X118517192Y-58334987D01*
X118528977Y-58419192D01*
X118540269Y-58502149D01*
X118550547Y-58580068D01*
X118559289Y-58649157D01*
X118565972Y-58705623D01*
X118570075Y-58745676D01*
X118571075Y-58765523D01*
X118570866Y-58766713D01*
X118554124Y-58783402D01*
X118544395Y-58785554D01*
X118528727Y-58780132D01*
X118493674Y-58764790D01*
X118442159Y-58740912D01*
X118377108Y-58709882D01*
X118301446Y-58673085D01*
X118218099Y-58631906D01*
X118187577Y-58616676D01*
X117850000Y-58447798D01*
X117512423Y-58616676D01*
X117427073Y-58659065D01*
X117348381Y-58697557D01*
X117279274Y-58730768D01*
X117222677Y-58757313D01*
X117181514Y-58775808D01*
X117158712Y-58784868D01*
X117155605Y-58785554D01*
X117134832Y-58775405D01*
X117128896Y-58766091D01*
X117129218Y-58750644D01*
X117132687Y-58714238D01*
X117138789Y-58660659D01*
X117147010Y-58593691D01*
X117156837Y-58517120D01*
X117167756Y-58434729D01*
X117179253Y-58350305D01*
X117190814Y-58267631D01*
X117201926Y-58190493D01*
X117212074Y-58122676D01*
X117220746Y-58067963D01*
X117227427Y-58030141D01*
X117230832Y-58015105D01*
X117223616Y-58002933D01*
X117201192Y-57974886D01*
X117165562Y-57933242D01*
X117118728Y-57880278D01*
X117062691Y-57818269D01*
X116999453Y-57749495D01*
X116961482Y-57708705D01*
X116894776Y-57636725D01*
X116833919Y-57569841D01*
X116780963Y-57510404D01*
X116737960Y-57460764D01*
X116706961Y-57423272D01*
X116706254Y-57422312D01*
X116820599Y-57422312D01*
X116826190Y-57433398D01*
X116846957Y-57460288D01*
X116880870Y-57500634D01*
X116925897Y-57552084D01*
X116980008Y-57612291D01*
X117041173Y-57678904D01*
X117058216Y-57697235D01*
X117121635Y-57765670D01*
X117179315Y-57828675D01*
X117229077Y-57883810D01*
X117268744Y-57928632D01*
X117296135Y-57960702D01*
X117309072Y-57977577D01*
X117309779Y-57979076D01*
X117308856Y-57994449D01*
X117304723Y-58030574D01*
X117297947Y-58083478D01*
X117289093Y-58149187D01*
X117278728Y-58223729D01*
X117267416Y-58303130D01*
X117255724Y-58383417D01*
X117244217Y-58460615D01*
X117233462Y-58530752D01*
X117224023Y-58589855D01*
X117216757Y-58632353D01*
X117213836Y-58659779D01*
X117216462Y-58672825D01*
X117217147Y-58672998D01*
X117229950Y-58667620D01*
X117262108Y-58652454D01*
X117310636Y-58628958D01*
X117372548Y-58598589D01*
X117444855Y-58562804D01*
X117524573Y-58523058D01*
X117524840Y-58522925D01*
X117605609Y-58482970D01*
X117680034Y-58447020D01*
X117744911Y-58416553D01*
X117797032Y-58393051D01*
X117833193Y-58377992D01*
X117850000Y-58372851D01*
X117867558Y-58378285D01*
X117904203Y-58393604D01*
X117956738Y-58417331D01*
X118021966Y-58447991D01*
X118096692Y-58484108D01*
X118176616Y-58523653D01*
X118256298Y-58563296D01*
X118328385Y-58598730D01*
X118389948Y-58628550D01*
X118438057Y-58651351D01*
X118469781Y-58665727D01*
X118482190Y-58670272D01*
X118482231Y-58670244D01*
X118481563Y-58657264D01*
X118477521Y-58622849D01*
X118470554Y-58570283D01*
X118461109Y-58502849D01*
X118449637Y-58423833D01*
X118437297Y-58341229D01*
X118424080Y-58252891D01*
X118412226Y-58171773D01*
X118402234Y-58101443D01*
X118394602Y-58045469D01*
X118389830Y-58007419D01*
X118388392Y-57991413D01*
X118396968Y-57975041D01*
X118421566Y-57942517D01*
X118460714Y-57895566D01*
X118512939Y-57835914D01*
X118576768Y-57765284D01*
X118638582Y-57698404D01*
X118701585Y-57630231D01*
X118758113Y-57567865D01*
X118806137Y-57513641D01*
X118843630Y-57469895D01*
X118868563Y-57438959D01*
X118878910Y-57423168D01*
X118878892Y-57421755D01*
X118864491Y-57417376D01*
X118828716Y-57409379D01*
X118774841Y-57398411D01*
X118706138Y-57385120D01*
X118625881Y-57370151D01*
X118537342Y-57354151D01*
X118531585Y-57353128D01*
X118442253Y-57336940D01*
X118360662Y-57321545D01*
X118290161Y-57307621D01*
X118234099Y-57295851D01*
X118195822Y-57286915D01*
X118178682Y-57281493D01*
X118178438Y-57281326D01*
X118168823Y-57267399D01*
X118149615Y-57234174D01*
X118122461Y-57184700D01*
X118089010Y-57122022D01*
X118050907Y-57049188D01*
X118010570Y-56970756D01*
X117969897Y-56891680D01*
X117932622Y-56820462D01*
X117900309Y-56759994D01*
X117874526Y-56713168D01*
X117856839Y-56682878D01*
X117848814Y-56672015D01*
X117848792Y-56672014D01*
X117840883Y-56682717D01*
X117823339Y-56712900D01*
X117797716Y-56759674D01*
X117765569Y-56820150D01*
X117728455Y-56891438D01*
X117687929Y-56970649D01*
X117687016Y-56972448D01*
X117645842Y-57052554D01*
X117607358Y-57125410D01*
X117573251Y-57187981D01*
X117545208Y-57237230D01*
X117524916Y-57270122D01*
X117514103Y-57283599D01*
X117496698Y-57288590D01*
X117458101Y-57297195D01*
X117401761Y-57308727D01*
X117331125Y-57322498D01*
X117249642Y-57337821D01*
X117162161Y-57353757D01*
X117074037Y-57369824D01*
X116993978Y-57384920D01*
X116925295Y-57398379D01*
X116871299Y-57409539D01*
X116835302Y-57417733D01*
X116820615Y-57422298D01*
X116820599Y-57422312D01*
X116706254Y-57422312D01*
X116690017Y-57400279D01*
X116687433Y-57394684D01*
X116697014Y-57371709D01*
X116708813Y-57362327D01*
X116726283Y-57357419D01*
X116765143Y-57348802D01*
X116822150Y-57337121D01*
X116894064Y-57323019D01*
X116977642Y-57307140D01*
X117069644Y-57290127D01*
X117102369Y-57284180D01*
X117474038Y-57216945D01*
X117647403Y-56878822D01*
X117697308Y-56781877D01*
X117737414Y-56705067D01*
X117769069Y-56646138D01*
X117793621Y-56602835D01*
X117812419Y-56572902D01*
X117826811Y-56554085D01*
X117838145Y-56544127D01*
X117847769Y-56540775D01*
X117849552Y-56540699D01*
X117858993Y-56543027D01*
G37*
G36*
X140328993Y-61573027D02*
G01*
X140339874Y-61581514D01*
X140353544Y-61598415D01*
X140371346Y-61625986D01*
X140394629Y-61666480D01*
X140424739Y-61722154D01*
X140463021Y-61795263D01*
X140510822Y-61888061D01*
X140521675Y-61909244D01*
X140695015Y-62247789D01*
X141060905Y-62313231D01*
X141154694Y-62330221D01*
X141241495Y-62346353D01*
X141317965Y-62360975D01*
X141380759Y-62373432D01*
X141426533Y-62383071D01*
X141451941Y-62389239D01*
X141454933Y-62390248D01*
X141476691Y-62406523D01*
X141483072Y-62421745D01*
X141474820Y-62435447D01*
X141451419Y-62464994D01*
X141414903Y-62508054D01*
X141367305Y-62562297D01*
X141310660Y-62625390D01*
X141247000Y-62695003D01*
X141208241Y-62736828D01*
X141128537Y-62822865D01*
X141064892Y-62892640D01*
X141015917Y-62947811D01*
X140980223Y-62990036D01*
X140956419Y-63020974D01*
X140943117Y-63042283D01*
X140938926Y-63055622D01*
X140939153Y-63057966D01*
X140945569Y-63091531D01*
X140954103Y-63142808D01*
X140964233Y-63208003D01*
X140975436Y-63283327D01*
X140987192Y-63364987D01*
X140998977Y-63449192D01*
X141010269Y-63532149D01*
X141020547Y-63610068D01*
X141029289Y-63679157D01*
X141035972Y-63735623D01*
X141040075Y-63775676D01*
X141041075Y-63795523D01*
X141040866Y-63796713D01*
X141024124Y-63813402D01*
X141014395Y-63815554D01*
X140998727Y-63810132D01*
X140963674Y-63794790D01*
X140912159Y-63770912D01*
X140847108Y-63739882D01*
X140771446Y-63703085D01*
X140688099Y-63661906D01*
X140657577Y-63646676D01*
X140320000Y-63477798D01*
X139982423Y-63646676D01*
X139897073Y-63689065D01*
X139818381Y-63727557D01*
X139749274Y-63760768D01*
X139692677Y-63787313D01*
X139651514Y-63805808D01*
X139628712Y-63814868D01*
X139625605Y-63815554D01*
X139604832Y-63805405D01*
X139598896Y-63796091D01*
X139599218Y-63780644D01*
X139602687Y-63744238D01*
X139608789Y-63690659D01*
X139617010Y-63623691D01*
X139626837Y-63547120D01*
X139637756Y-63464729D01*
X139649253Y-63380305D01*
X139660814Y-63297631D01*
X139671926Y-63220493D01*
X139682074Y-63152676D01*
X139690746Y-63097963D01*
X139697427Y-63060141D01*
X139700832Y-63045105D01*
X139693616Y-63032933D01*
X139671192Y-63004886D01*
X139635562Y-62963242D01*
X139588728Y-62910278D01*
X139532691Y-62848269D01*
X139469453Y-62779495D01*
X139431482Y-62738705D01*
X139364776Y-62666725D01*
X139303919Y-62599841D01*
X139250963Y-62540404D01*
X139207960Y-62490764D01*
X139176961Y-62453272D01*
X139176254Y-62452312D01*
X139290599Y-62452312D01*
X139296190Y-62463398D01*
X139316957Y-62490288D01*
X139350870Y-62530634D01*
X139395897Y-62582084D01*
X139450008Y-62642291D01*
X139511173Y-62708904D01*
X139528216Y-62727235D01*
X139591635Y-62795670D01*
X139649315Y-62858675D01*
X139699077Y-62913810D01*
X139738744Y-62958632D01*
X139766135Y-62990702D01*
X139779072Y-63007577D01*
X139779779Y-63009076D01*
X139778856Y-63024449D01*
X139774723Y-63060574D01*
X139767947Y-63113478D01*
X139759093Y-63179187D01*
X139748728Y-63253729D01*
X139737416Y-63333130D01*
X139725724Y-63413417D01*
X139714217Y-63490615D01*
X139703462Y-63560752D01*
X139694023Y-63619855D01*
X139686757Y-63662353D01*
X139683836Y-63689779D01*
X139686462Y-63702825D01*
X139687147Y-63702998D01*
X139699950Y-63697620D01*
X139732108Y-63682454D01*
X139780636Y-63658958D01*
X139842548Y-63628589D01*
X139914855Y-63592804D01*
X139994573Y-63553058D01*
X139994840Y-63552925D01*
X140075609Y-63512970D01*
X140150034Y-63477020D01*
X140214911Y-63446553D01*
X140267032Y-63423051D01*
X140303193Y-63407992D01*
X140320000Y-63402851D01*
X140337558Y-63408285D01*
X140374203Y-63423604D01*
X140426738Y-63447331D01*
X140491966Y-63477991D01*
X140566692Y-63514108D01*
X140646616Y-63553653D01*
X140726298Y-63593296D01*
X140798385Y-63628730D01*
X140859948Y-63658550D01*
X140908057Y-63681351D01*
X140939781Y-63695727D01*
X140952190Y-63700272D01*
X140952231Y-63700244D01*
X140951563Y-63687264D01*
X140947521Y-63652849D01*
X140940554Y-63600283D01*
X140931109Y-63532849D01*
X140919637Y-63453833D01*
X140907297Y-63371229D01*
X140894080Y-63282891D01*
X140882226Y-63201773D01*
X140872234Y-63131443D01*
X140864602Y-63075469D01*
X140859830Y-63037419D01*
X140858392Y-63021413D01*
X140866968Y-63005041D01*
X140891566Y-62972517D01*
X140930714Y-62925566D01*
X140982939Y-62865914D01*
X141046768Y-62795284D01*
X141108582Y-62728404D01*
X141171585Y-62660231D01*
X141228113Y-62597865D01*
X141276137Y-62543641D01*
X141313630Y-62499895D01*
X141338563Y-62468959D01*
X141348910Y-62453168D01*
X141348892Y-62451755D01*
X141334491Y-62447376D01*
X141298716Y-62439379D01*
X141244841Y-62428411D01*
X141176138Y-62415120D01*
X141095881Y-62400151D01*
X141007342Y-62384151D01*
X141001585Y-62383128D01*
X140912253Y-62366940D01*
X140830662Y-62351545D01*
X140760161Y-62337621D01*
X140704099Y-62325851D01*
X140665822Y-62316915D01*
X140648682Y-62311493D01*
X140648438Y-62311326D01*
X140638823Y-62297399D01*
X140619615Y-62264174D01*
X140592461Y-62214700D01*
X140559010Y-62152022D01*
X140520907Y-62079188D01*
X140480570Y-62000756D01*
X140439897Y-61921680D01*
X140402622Y-61850462D01*
X140370309Y-61789994D01*
X140344526Y-61743168D01*
X140326839Y-61712878D01*
X140318814Y-61702015D01*
X140318792Y-61702014D01*
X140310883Y-61712717D01*
X140293339Y-61742900D01*
X140267716Y-61789674D01*
X140235569Y-61850150D01*
X140198455Y-61921438D01*
X140157929Y-62000649D01*
X140157016Y-62002448D01*
X140115842Y-62082554D01*
X140077358Y-62155410D01*
X140043251Y-62217981D01*
X140015208Y-62267230D01*
X139994916Y-62300122D01*
X139984103Y-62313599D01*
X139966698Y-62318590D01*
X139928101Y-62327195D01*
X139871761Y-62338727D01*
X139801125Y-62352498D01*
X139719642Y-62367821D01*
X139632161Y-62383757D01*
X139544037Y-62399824D01*
X139463978Y-62414920D01*
X139395295Y-62428379D01*
X139341299Y-62439539D01*
X139305302Y-62447733D01*
X139290615Y-62452298D01*
X139290599Y-62452312D01*
X139176254Y-62452312D01*
X139160017Y-62430279D01*
X139157433Y-62424684D01*
X139167014Y-62401709D01*
X139178813Y-62392327D01*
X139196283Y-62387419D01*
X139235143Y-62378802D01*
X139292150Y-62367121D01*
X139364064Y-62353019D01*
X139447642Y-62337140D01*
X139539644Y-62320127D01*
X139572369Y-62314180D01*
X139944038Y-62246945D01*
X140117403Y-61908822D01*
X140167308Y-61811877D01*
X140207414Y-61735067D01*
X140239069Y-61676138D01*
X140263621Y-61632835D01*
X140282419Y-61602902D01*
X140296811Y-61584085D01*
X140308145Y-61574127D01*
X140317769Y-61570775D01*
X140319552Y-61570699D01*
X140328993Y-61573027D01*
G37*
G36*
X119948993Y-46383027D02*
G01*
X119959874Y-46391514D01*
X119973544Y-46408415D01*
X119991346Y-46435986D01*
X120014629Y-46476480D01*
X120044739Y-46532154D01*
X120083021Y-46605263D01*
X120130822Y-46698061D01*
X120141675Y-46719244D01*
X120315015Y-47057789D01*
X120680905Y-47123231D01*
X120774694Y-47140221D01*
X120861495Y-47156353D01*
X120937965Y-47170975D01*
X121000759Y-47183432D01*
X121046533Y-47193071D01*
X121071941Y-47199239D01*
X121074933Y-47200248D01*
X121096691Y-47216523D01*
X121103072Y-47231745D01*
X121094820Y-47245447D01*
X121071419Y-47274994D01*
X121034903Y-47318054D01*
X120987305Y-47372297D01*
X120930660Y-47435390D01*
X120867000Y-47505003D01*
X120828241Y-47546828D01*
X120748537Y-47632865D01*
X120684892Y-47702640D01*
X120635917Y-47757811D01*
X120600223Y-47800036D01*
X120576419Y-47830974D01*
X120563117Y-47852283D01*
X120558926Y-47865622D01*
X120559153Y-47867966D01*
X120565569Y-47901531D01*
X120574103Y-47952808D01*
X120584233Y-48018003D01*
X120595436Y-48093327D01*
X120607192Y-48174987D01*
X120618977Y-48259192D01*
X120630269Y-48342149D01*
X120640547Y-48420068D01*
X120649289Y-48489157D01*
X120655972Y-48545623D01*
X120660075Y-48585676D01*
X120661075Y-48605523D01*
X120660866Y-48606713D01*
X120644124Y-48623402D01*
X120634395Y-48625554D01*
X120618727Y-48620132D01*
X120583674Y-48604790D01*
X120532159Y-48580912D01*
X120467108Y-48549882D01*
X120391446Y-48513085D01*
X120308099Y-48471906D01*
X120277577Y-48456676D01*
X119940000Y-48287798D01*
X119602423Y-48456676D01*
X119517073Y-48499065D01*
X119438381Y-48537557D01*
X119369274Y-48570768D01*
X119312677Y-48597313D01*
X119271514Y-48615808D01*
X119248712Y-48624868D01*
X119245605Y-48625554D01*
X119224832Y-48615405D01*
X119218896Y-48606091D01*
X119219218Y-48590644D01*
X119222687Y-48554238D01*
X119228789Y-48500659D01*
X119237010Y-48433691D01*
X119246837Y-48357120D01*
X119257756Y-48274729D01*
X119269253Y-48190305D01*
X119280814Y-48107631D01*
X119291926Y-48030493D01*
X119302074Y-47962676D01*
X119310746Y-47907963D01*
X119317427Y-47870141D01*
X119320832Y-47855105D01*
X119313616Y-47842933D01*
X119291192Y-47814886D01*
X119255562Y-47773242D01*
X119208728Y-47720278D01*
X119152691Y-47658269D01*
X119089453Y-47589495D01*
X119051482Y-47548705D01*
X118984776Y-47476725D01*
X118923919Y-47409841D01*
X118870963Y-47350404D01*
X118827960Y-47300764D01*
X118796961Y-47263272D01*
X118796254Y-47262312D01*
X118910599Y-47262312D01*
X118916190Y-47273398D01*
X118936957Y-47300288D01*
X118970870Y-47340634D01*
X119015897Y-47392084D01*
X119070008Y-47452291D01*
X119131173Y-47518904D01*
X119148216Y-47537235D01*
X119211635Y-47605670D01*
X119269315Y-47668675D01*
X119319077Y-47723810D01*
X119358744Y-47768632D01*
X119386135Y-47800702D01*
X119399072Y-47817577D01*
X119399779Y-47819076D01*
X119398856Y-47834449D01*
X119394723Y-47870574D01*
X119387947Y-47923478D01*
X119379093Y-47989187D01*
X119368728Y-48063729D01*
X119357416Y-48143130D01*
X119345724Y-48223417D01*
X119334217Y-48300615D01*
X119323462Y-48370752D01*
X119314023Y-48429855D01*
X119306757Y-48472353D01*
X119303836Y-48499779D01*
X119306462Y-48512825D01*
X119307147Y-48512998D01*
X119319950Y-48507620D01*
X119352108Y-48492454D01*
X119400636Y-48468958D01*
X119462548Y-48438589D01*
X119534855Y-48402804D01*
X119614573Y-48363058D01*
X119614840Y-48362925D01*
X119695609Y-48322970D01*
X119770034Y-48287020D01*
X119834911Y-48256553D01*
X119887032Y-48233051D01*
X119923193Y-48217992D01*
X119940000Y-48212851D01*
X119957558Y-48218285D01*
X119994203Y-48233604D01*
X120046738Y-48257331D01*
X120111966Y-48287991D01*
X120186692Y-48324108D01*
X120266616Y-48363653D01*
X120346298Y-48403296D01*
X120418385Y-48438730D01*
X120479948Y-48468550D01*
X120528057Y-48491351D01*
X120559781Y-48505727D01*
X120572190Y-48510272D01*
X120572231Y-48510244D01*
X120571563Y-48497264D01*
X120567521Y-48462849D01*
X120560554Y-48410283D01*
X120551109Y-48342849D01*
X120539637Y-48263833D01*
X120527297Y-48181229D01*
X120514080Y-48092891D01*
X120502226Y-48011773D01*
X120492234Y-47941443D01*
X120484602Y-47885469D01*
X120479830Y-47847419D01*
X120478392Y-47831413D01*
X120486968Y-47815041D01*
X120511566Y-47782517D01*
X120550714Y-47735566D01*
X120602939Y-47675914D01*
X120666768Y-47605284D01*
X120728582Y-47538404D01*
X120791585Y-47470231D01*
X120848113Y-47407865D01*
X120896137Y-47353641D01*
X120933630Y-47309895D01*
X120958563Y-47278959D01*
X120968910Y-47263168D01*
X120968892Y-47261755D01*
X120954491Y-47257376D01*
X120918716Y-47249379D01*
X120864841Y-47238411D01*
X120796138Y-47225120D01*
X120715881Y-47210151D01*
X120627342Y-47194151D01*
X120621585Y-47193128D01*
X120532253Y-47176940D01*
X120450662Y-47161545D01*
X120380161Y-47147621D01*
X120324099Y-47135851D01*
X120285822Y-47126915D01*
X120268682Y-47121493D01*
X120268438Y-47121326D01*
X120258823Y-47107399D01*
X120239615Y-47074174D01*
X120212461Y-47024700D01*
X120179010Y-46962022D01*
X120140907Y-46889188D01*
X120100570Y-46810756D01*
X120059897Y-46731680D01*
X120022622Y-46660462D01*
X119990309Y-46599994D01*
X119964526Y-46553168D01*
X119946839Y-46522878D01*
X119938814Y-46512015D01*
X119938792Y-46512014D01*
X119930883Y-46522717D01*
X119913339Y-46552900D01*
X119887716Y-46599674D01*
X119855569Y-46660150D01*
X119818455Y-46731438D01*
X119777929Y-46810649D01*
X119777016Y-46812448D01*
X119735842Y-46892554D01*
X119697358Y-46965410D01*
X119663251Y-47027981D01*
X119635208Y-47077230D01*
X119614916Y-47110122D01*
X119604103Y-47123599D01*
X119586698Y-47128590D01*
X119548101Y-47137195D01*
X119491761Y-47148727D01*
X119421125Y-47162498D01*
X119339642Y-47177821D01*
X119252161Y-47193757D01*
X119164037Y-47209824D01*
X119083978Y-47224920D01*
X119015295Y-47238379D01*
X118961299Y-47249539D01*
X118925302Y-47257733D01*
X118910615Y-47262298D01*
X118910599Y-47262312D01*
X118796254Y-47262312D01*
X118780017Y-47240279D01*
X118777433Y-47234684D01*
X118787014Y-47211709D01*
X118798813Y-47202327D01*
X118816283Y-47197419D01*
X118855143Y-47188802D01*
X118912150Y-47177121D01*
X118984064Y-47163019D01*
X119067642Y-47147140D01*
X119159644Y-47130127D01*
X119192369Y-47124180D01*
X119564038Y-47056945D01*
X119737403Y-46718822D01*
X119787308Y-46621877D01*
X119827414Y-46545067D01*
X119859069Y-46486138D01*
X119883621Y-46442835D01*
X119902419Y-46412902D01*
X119916811Y-46394085D01*
X119928145Y-46384127D01*
X119937769Y-46380775D01*
X119939552Y-46380699D01*
X119948993Y-46383027D01*
G37*
G36*
X109088993Y-48623027D02*
G01*
X109099874Y-48631514D01*
X109113544Y-48648415D01*
X109131346Y-48675986D01*
X109154629Y-48716480D01*
X109184739Y-48772154D01*
X109223021Y-48845263D01*
X109270822Y-48938061D01*
X109281675Y-48959244D01*
X109455015Y-49297789D01*
X109820905Y-49363231D01*
X109914694Y-49380221D01*
X110001495Y-49396353D01*
X110077965Y-49410975D01*
X110140759Y-49423432D01*
X110186533Y-49433071D01*
X110211941Y-49439239D01*
X110214933Y-49440248D01*
X110236691Y-49456523D01*
X110243072Y-49471745D01*
X110234820Y-49485447D01*
X110211419Y-49514994D01*
X110174903Y-49558054D01*
X110127305Y-49612297D01*
X110070660Y-49675390D01*
X110007000Y-49745003D01*
X109968241Y-49786828D01*
X109888537Y-49872865D01*
X109824892Y-49942640D01*
X109775917Y-49997811D01*
X109740223Y-50040036D01*
X109716419Y-50070974D01*
X109703117Y-50092283D01*
X109698926Y-50105622D01*
X109699153Y-50107966D01*
X109705569Y-50141531D01*
X109714103Y-50192808D01*
X109724233Y-50258003D01*
X109735436Y-50333327D01*
X109747192Y-50414987D01*
X109758977Y-50499192D01*
X109770269Y-50582149D01*
X109780547Y-50660068D01*
X109789289Y-50729157D01*
X109795972Y-50785623D01*
X109800075Y-50825676D01*
X109801075Y-50845523D01*
X109800866Y-50846713D01*
X109784124Y-50863402D01*
X109774395Y-50865554D01*
X109758727Y-50860132D01*
X109723674Y-50844790D01*
X109672159Y-50820912D01*
X109607108Y-50789882D01*
X109531446Y-50753085D01*
X109448099Y-50711906D01*
X109417577Y-50696676D01*
X109080000Y-50527798D01*
X108742423Y-50696676D01*
X108657073Y-50739065D01*
X108578381Y-50777557D01*
X108509274Y-50810768D01*
X108452677Y-50837313D01*
X108411514Y-50855808D01*
X108388712Y-50864868D01*
X108385605Y-50865554D01*
X108364832Y-50855405D01*
X108358896Y-50846091D01*
X108359218Y-50830644D01*
X108362687Y-50794238D01*
X108368789Y-50740659D01*
X108377010Y-50673691D01*
X108386837Y-50597120D01*
X108397756Y-50514729D01*
X108409253Y-50430305D01*
X108420814Y-50347631D01*
X108431926Y-50270493D01*
X108442074Y-50202676D01*
X108450746Y-50147963D01*
X108457427Y-50110141D01*
X108460832Y-50095105D01*
X108453616Y-50082933D01*
X108431192Y-50054886D01*
X108395562Y-50013242D01*
X108348728Y-49960278D01*
X108292691Y-49898269D01*
X108229453Y-49829495D01*
X108191482Y-49788705D01*
X108124776Y-49716725D01*
X108063919Y-49649841D01*
X108010963Y-49590404D01*
X107967960Y-49540764D01*
X107936961Y-49503272D01*
X107936254Y-49502312D01*
X108050599Y-49502312D01*
X108056190Y-49513398D01*
X108076957Y-49540288D01*
X108110870Y-49580634D01*
X108155897Y-49632084D01*
X108210008Y-49692291D01*
X108271173Y-49758904D01*
X108288216Y-49777235D01*
X108351635Y-49845670D01*
X108409315Y-49908675D01*
X108459077Y-49963810D01*
X108498744Y-50008632D01*
X108526135Y-50040702D01*
X108539072Y-50057577D01*
X108539779Y-50059076D01*
X108538856Y-50074449D01*
X108534723Y-50110574D01*
X108527947Y-50163478D01*
X108519093Y-50229187D01*
X108508728Y-50303729D01*
X108497416Y-50383130D01*
X108485724Y-50463417D01*
X108474217Y-50540615D01*
X108463462Y-50610752D01*
X108454023Y-50669855D01*
X108446757Y-50712353D01*
X108443836Y-50739779D01*
X108446462Y-50752825D01*
X108447147Y-50752998D01*
X108459950Y-50747620D01*
X108492108Y-50732454D01*
X108540636Y-50708958D01*
X108602548Y-50678589D01*
X108674855Y-50642804D01*
X108754573Y-50603058D01*
X108754840Y-50602925D01*
X108835609Y-50562970D01*
X108910034Y-50527020D01*
X108974911Y-50496553D01*
X109027032Y-50473051D01*
X109063193Y-50457992D01*
X109080000Y-50452851D01*
X109097558Y-50458285D01*
X109134203Y-50473604D01*
X109186738Y-50497331D01*
X109251966Y-50527991D01*
X109326692Y-50564108D01*
X109406616Y-50603653D01*
X109486298Y-50643296D01*
X109558385Y-50678730D01*
X109619948Y-50708550D01*
X109668057Y-50731351D01*
X109699781Y-50745727D01*
X109712190Y-50750272D01*
X109712231Y-50750244D01*
X109711563Y-50737264D01*
X109707521Y-50702849D01*
X109700554Y-50650283D01*
X109691109Y-50582849D01*
X109679637Y-50503833D01*
X109667297Y-50421229D01*
X109654080Y-50332891D01*
X109642226Y-50251773D01*
X109632234Y-50181443D01*
X109624602Y-50125469D01*
X109619830Y-50087419D01*
X109618392Y-50071413D01*
X109626968Y-50055041D01*
X109651566Y-50022517D01*
X109690714Y-49975566D01*
X109742939Y-49915914D01*
X109806768Y-49845284D01*
X109868582Y-49778404D01*
X109931585Y-49710231D01*
X109988113Y-49647865D01*
X110036137Y-49593641D01*
X110073630Y-49549895D01*
X110098563Y-49518959D01*
X110108910Y-49503168D01*
X110108892Y-49501755D01*
X110094491Y-49497376D01*
X110058716Y-49489379D01*
X110004841Y-49478411D01*
X109936138Y-49465120D01*
X109855881Y-49450151D01*
X109767342Y-49434151D01*
X109761585Y-49433128D01*
X109672253Y-49416940D01*
X109590662Y-49401545D01*
X109520161Y-49387621D01*
X109464099Y-49375851D01*
X109425822Y-49366915D01*
X109408682Y-49361493D01*
X109408438Y-49361326D01*
X109398823Y-49347399D01*
X109379615Y-49314174D01*
X109352461Y-49264700D01*
X109319010Y-49202022D01*
X109280907Y-49129188D01*
X109240570Y-49050756D01*
X109199897Y-48971680D01*
X109162622Y-48900462D01*
X109130309Y-48839994D01*
X109104526Y-48793168D01*
X109086839Y-48762878D01*
X109078814Y-48752015D01*
X109078792Y-48752014D01*
X109070883Y-48762717D01*
X109053339Y-48792900D01*
X109027716Y-48839674D01*
X108995569Y-48900150D01*
X108958455Y-48971438D01*
X108917929Y-49050649D01*
X108917016Y-49052448D01*
X108875842Y-49132554D01*
X108837358Y-49205410D01*
X108803251Y-49267981D01*
X108775208Y-49317230D01*
X108754916Y-49350122D01*
X108744103Y-49363599D01*
X108726698Y-49368590D01*
X108688101Y-49377195D01*
X108631761Y-49388727D01*
X108561125Y-49402498D01*
X108479642Y-49417821D01*
X108392161Y-49433757D01*
X108304037Y-49449824D01*
X108223978Y-49464920D01*
X108155295Y-49478379D01*
X108101299Y-49489539D01*
X108065302Y-49497733D01*
X108050615Y-49502298D01*
X108050599Y-49502312D01*
X107936254Y-49502312D01*
X107920017Y-49480279D01*
X107917433Y-49474684D01*
X107927014Y-49451709D01*
X107938813Y-49442327D01*
X107956283Y-49437419D01*
X107995143Y-49428802D01*
X108052150Y-49417121D01*
X108124064Y-49403019D01*
X108207642Y-49387140D01*
X108299644Y-49370127D01*
X108332369Y-49364180D01*
X108704038Y-49296945D01*
X108877403Y-48958822D01*
X108927308Y-48861877D01*
X108967414Y-48785067D01*
X108999069Y-48726138D01*
X109023621Y-48682835D01*
X109042419Y-48652902D01*
X109056811Y-48634085D01*
X109068145Y-48624127D01*
X109077769Y-48620775D01*
X109079552Y-48620699D01*
X109088993Y-48623027D01*
G37*
G36*
X163148993Y-53003027D02*
G01*
X163159874Y-53011514D01*
X163173544Y-53028415D01*
X163191346Y-53055986D01*
X163214629Y-53096480D01*
X163244739Y-53152154D01*
X163283021Y-53225263D01*
X163330822Y-53318061D01*
X163341675Y-53339244D01*
X163515015Y-53677789D01*
X163880905Y-53743231D01*
X163974694Y-53760221D01*
X164061495Y-53776353D01*
X164137965Y-53790975D01*
X164200759Y-53803432D01*
X164246533Y-53813071D01*
X164271941Y-53819239D01*
X164274933Y-53820248D01*
X164296691Y-53836523D01*
X164303072Y-53851745D01*
X164294820Y-53865447D01*
X164271419Y-53894994D01*
X164234903Y-53938054D01*
X164187305Y-53992297D01*
X164130660Y-54055390D01*
X164067000Y-54125003D01*
X164028241Y-54166828D01*
X163948537Y-54252865D01*
X163884892Y-54322640D01*
X163835917Y-54377811D01*
X163800223Y-54420036D01*
X163776419Y-54450974D01*
X163763117Y-54472283D01*
X163758926Y-54485622D01*
X163759153Y-54487966D01*
X163765569Y-54521531D01*
X163774103Y-54572808D01*
X163784233Y-54638003D01*
X163795436Y-54713327D01*
X163807192Y-54794987D01*
X163818977Y-54879192D01*
X163830269Y-54962149D01*
X163840547Y-55040068D01*
X163849289Y-55109157D01*
X163855972Y-55165623D01*
X163860075Y-55205676D01*
X163861075Y-55225523D01*
X163860866Y-55226713D01*
X163844124Y-55243402D01*
X163834395Y-55245554D01*
X163818727Y-55240132D01*
X163783674Y-55224790D01*
X163732159Y-55200912D01*
X163667108Y-55169882D01*
X163591446Y-55133085D01*
X163508099Y-55091906D01*
X163477577Y-55076676D01*
X163140000Y-54907798D01*
X162802423Y-55076676D01*
X162717073Y-55119065D01*
X162638381Y-55157557D01*
X162569274Y-55190768D01*
X162512677Y-55217313D01*
X162471514Y-55235808D01*
X162448712Y-55244868D01*
X162445605Y-55245554D01*
X162424832Y-55235405D01*
X162418896Y-55226091D01*
X162419218Y-55210644D01*
X162422687Y-55174238D01*
X162428789Y-55120659D01*
X162437010Y-55053691D01*
X162446837Y-54977120D01*
X162457756Y-54894729D01*
X162469253Y-54810305D01*
X162480814Y-54727631D01*
X162491926Y-54650493D01*
X162502074Y-54582676D01*
X162510746Y-54527963D01*
X162517427Y-54490141D01*
X162520832Y-54475105D01*
X162513616Y-54462933D01*
X162491192Y-54434886D01*
X162455562Y-54393242D01*
X162408728Y-54340278D01*
X162352691Y-54278269D01*
X162289453Y-54209495D01*
X162251482Y-54168705D01*
X162184776Y-54096725D01*
X162123919Y-54029841D01*
X162070963Y-53970404D01*
X162027960Y-53920764D01*
X161996961Y-53883272D01*
X161996254Y-53882312D01*
X162110599Y-53882312D01*
X162116190Y-53893398D01*
X162136957Y-53920288D01*
X162170870Y-53960634D01*
X162215897Y-54012084D01*
X162270008Y-54072291D01*
X162331173Y-54138904D01*
X162348216Y-54157235D01*
X162411635Y-54225670D01*
X162469315Y-54288675D01*
X162519077Y-54343810D01*
X162558744Y-54388632D01*
X162586135Y-54420702D01*
X162599072Y-54437577D01*
X162599779Y-54439076D01*
X162598856Y-54454449D01*
X162594723Y-54490574D01*
X162587947Y-54543478D01*
X162579093Y-54609187D01*
X162568728Y-54683729D01*
X162557416Y-54763130D01*
X162545724Y-54843417D01*
X162534217Y-54920615D01*
X162523462Y-54990752D01*
X162514023Y-55049855D01*
X162506757Y-55092353D01*
X162503836Y-55119779D01*
X162506462Y-55132825D01*
X162507147Y-55132998D01*
X162519950Y-55127620D01*
X162552108Y-55112454D01*
X162600636Y-55088958D01*
X162662548Y-55058589D01*
X162734855Y-55022804D01*
X162814573Y-54983058D01*
X162814840Y-54982925D01*
X162895609Y-54942970D01*
X162970034Y-54907020D01*
X163034911Y-54876553D01*
X163087032Y-54853051D01*
X163123193Y-54837992D01*
X163140000Y-54832851D01*
X163157558Y-54838285D01*
X163194203Y-54853604D01*
X163246738Y-54877331D01*
X163311966Y-54907991D01*
X163386692Y-54944108D01*
X163466616Y-54983653D01*
X163546298Y-55023296D01*
X163618385Y-55058730D01*
X163679948Y-55088550D01*
X163728057Y-55111351D01*
X163759781Y-55125727D01*
X163772190Y-55130272D01*
X163772231Y-55130244D01*
X163771563Y-55117264D01*
X163767521Y-55082849D01*
X163760554Y-55030283D01*
X163751109Y-54962849D01*
X163739637Y-54883833D01*
X163727297Y-54801229D01*
X163714080Y-54712891D01*
X163702226Y-54631773D01*
X163692234Y-54561443D01*
X163684602Y-54505469D01*
X163679830Y-54467419D01*
X163678392Y-54451413D01*
X163686968Y-54435041D01*
X163711566Y-54402517D01*
X163750714Y-54355566D01*
X163802939Y-54295914D01*
X163866768Y-54225284D01*
X163928582Y-54158404D01*
X163991585Y-54090231D01*
X164048113Y-54027865D01*
X164096137Y-53973641D01*
X164133630Y-53929895D01*
X164158563Y-53898959D01*
X164168910Y-53883168D01*
X164168892Y-53881755D01*
X164154491Y-53877376D01*
X164118716Y-53869379D01*
X164064841Y-53858411D01*
X163996138Y-53845120D01*
X163915881Y-53830151D01*
X163827342Y-53814151D01*
X163821585Y-53813128D01*
X163732253Y-53796940D01*
X163650662Y-53781545D01*
X163580161Y-53767621D01*
X163524099Y-53755851D01*
X163485822Y-53746915D01*
X163468682Y-53741493D01*
X163468438Y-53741326D01*
X163458823Y-53727399D01*
X163439615Y-53694174D01*
X163412461Y-53644700D01*
X163379010Y-53582022D01*
X163340907Y-53509188D01*
X163300570Y-53430756D01*
X163259897Y-53351680D01*
X163222622Y-53280462D01*
X163190309Y-53219994D01*
X163164526Y-53173168D01*
X163146839Y-53142878D01*
X163138814Y-53132015D01*
X163138792Y-53132014D01*
X163130883Y-53142717D01*
X163113339Y-53172900D01*
X163087716Y-53219674D01*
X163055569Y-53280150D01*
X163018455Y-53351438D01*
X162977929Y-53430649D01*
X162977016Y-53432448D01*
X162935842Y-53512554D01*
X162897358Y-53585410D01*
X162863251Y-53647981D01*
X162835208Y-53697230D01*
X162814916Y-53730122D01*
X162804103Y-53743599D01*
X162786698Y-53748590D01*
X162748101Y-53757195D01*
X162691761Y-53768727D01*
X162621125Y-53782498D01*
X162539642Y-53797821D01*
X162452161Y-53813757D01*
X162364037Y-53829824D01*
X162283978Y-53844920D01*
X162215295Y-53858379D01*
X162161299Y-53869539D01*
X162125302Y-53877733D01*
X162110615Y-53882298D01*
X162110599Y-53882312D01*
X161996254Y-53882312D01*
X161980017Y-53860279D01*
X161977433Y-53854684D01*
X161987014Y-53831709D01*
X161998813Y-53822327D01*
X162016283Y-53817419D01*
X162055143Y-53808802D01*
X162112150Y-53797121D01*
X162184064Y-53783019D01*
X162267642Y-53767140D01*
X162359644Y-53750127D01*
X162392369Y-53744180D01*
X162764038Y-53676945D01*
X162937403Y-53338822D01*
X162987308Y-53241877D01*
X163027414Y-53165067D01*
X163059069Y-53106138D01*
X163083621Y-53062835D01*
X163102419Y-53032902D01*
X163116811Y-53014085D01*
X163128145Y-53004127D01*
X163137769Y-53000775D01*
X163139552Y-53000699D01*
X163148993Y-53003027D01*
G37*
D13*
%TO.C,U2*%
X135030000Y-81005000D02*
G75*
G02*
X134830000Y-81005000I-100000J0D01*
G01*
X134830000Y-81005000D02*
G75*
G02*
X135030000Y-81005000I100000J0D01*
G01*
D14*
X134045000Y-79145000D02*
X134045000Y-72795000D01*
X153595000Y-79145000D02*
X153595000Y-72795000D01*
D15*
%TO.C,U1*%
X129965000Y-51320000D02*
X129965000Y-61600000D01*
X129965000Y-61600000D02*
X135265000Y-61600000D01*
X131615000Y-51320000D02*
X129965000Y-51320000D01*
X135265000Y-51320000D02*
X133615000Y-51320000D01*
X135265000Y-61600000D02*
X135265000Y-51320000D01*
X133615000Y-51320000D02*
G75*
G02*
X131615000Y-51320000I-1000000J0D01*
G01*
%TO.C,RV1*%
X142600000Y-63490000D02*
X142600000Y-68710000D01*
X142600000Y-63490000D02*
X144720000Y-63490000D01*
X142600000Y-68710000D02*
X152520000Y-68710000D01*
X145420000Y-63490000D02*
X152520000Y-63490000D01*
X152520000Y-63490000D02*
X152520000Y-68710000D01*
X145020000Y-63490000D02*
X144780000Y-63160000D01*
X145260000Y-63160000D01*
X145020000Y-63490000D01*
G36*
X145020000Y-63490000D02*
G01*
X144780000Y-63160000D01*
X145260000Y-63160000D01*
X145020000Y-63490000D01*
G37*
%TO.C,R3*%
X129340000Y-61970000D02*
X135880000Y-61970000D01*
X129340000Y-62300000D02*
X129340000Y-61970000D01*
X129340000Y-64380000D02*
X129340000Y-64710000D01*
X129340000Y-64710000D02*
X135880000Y-64710000D01*
X135880000Y-61970000D02*
X135880000Y-62300000D01*
X135880000Y-64710000D02*
X135880000Y-64380000D01*
%TO.C,R2*%
X129450000Y-47960000D02*
X135990000Y-47960000D01*
X129450000Y-48290000D02*
X129450000Y-47960000D01*
X129450000Y-50370000D02*
X129450000Y-50700000D01*
X129450000Y-50700000D02*
X135990000Y-50700000D01*
X135990000Y-47960000D02*
X135990000Y-48290000D01*
X135990000Y-50700000D02*
X135990000Y-50370000D01*
%TO.C,J2*%
X124125000Y-83305000D02*
X124125000Y-82035000D01*
X125395000Y-83305000D02*
X124125000Y-83305000D01*
X127505000Y-80957642D02*
X127505000Y-80645000D01*
X128365000Y-80957642D02*
X128365000Y-80645000D01*
X124965000Y-80875000D02*
X124965000Y-80645000D01*
X125825000Y-80875000D02*
X125825000Y-80645000D01*
X124015000Y-80645000D02*
X129315000Y-80645000D01*
X126665000Y-80645000D02*
X126665000Y-77885000D01*
X129315000Y-80645000D02*
X129315000Y-77885000D01*
X124015000Y-77885000D02*
X124015000Y-80645000D01*
X127505000Y-77885000D02*
X127505000Y-71885000D01*
X129315000Y-77885000D02*
X124015000Y-77885000D01*
X127505000Y-71885000D02*
X128365000Y-71885000D01*
X128365000Y-71885000D02*
X128365000Y-77885000D01*
X124965000Y-77885000D02*
X125825000Y-77885000D01*
X125825000Y-71885000D01*
X124965000Y-71885000D01*
X124965000Y-77885000D01*
G36*
X124965000Y-77885000D02*
G01*
X125825000Y-77885000D01*
X125825000Y-71885000D01*
X124965000Y-71885000D01*
X124965000Y-77885000D01*
G37*
%TO.C,J1*%
X127405000Y-66440000D02*
X128675000Y-66440000D01*
X127405000Y-67710000D02*
X127405000Y-66440000D01*
X129835000Y-67280000D02*
X130065000Y-67280000D01*
X129835000Y-68140000D02*
X130065000Y-68140000D01*
X130065000Y-66330000D02*
X130065000Y-69090000D01*
X130065000Y-69090000D02*
X132825000Y-69090000D01*
X132825000Y-66330000D02*
X130065000Y-66330000D01*
X132825000Y-69090000D02*
X132825000Y-66330000D01*
X132825000Y-67280000D02*
X138825000Y-67280000D01*
X138825000Y-68140000D01*
X132825000Y-68140000D01*
X132825000Y-67280000D01*
G36*
X132825000Y-67280000D02*
G01*
X138825000Y-67280000D01*
X138825000Y-68140000D01*
X132825000Y-68140000D01*
X132825000Y-67280000D01*
G37*
%TO.C,D10*%
X141360000Y-54104000D02*
X141360000Y-54260000D01*
X141360000Y-56420000D02*
X141360000Y-56576000D01*
X141360000Y-54104484D02*
G75*
G02*
X144591437Y-54260000I1560000J-1235516D01*
G01*
X141879039Y-54260000D02*
G75*
G02*
X143960961Y-54260000I1040961J-1080000D01*
G01*
X143960961Y-56420000D02*
G75*
G02*
X141879039Y-56420000I-1040961J1080000D01*
G01*
X144591437Y-56420000D02*
G75*
G02*
X141360000Y-56575516I-1671437J1080000D01*
G01*
%TO.C,D9*%
X157390000Y-47044000D02*
X157390000Y-47200000D01*
X157390000Y-49360000D02*
X157390000Y-49516000D01*
X157390000Y-47044484D02*
G75*
G02*
X160621437Y-47200000I1560000J-1235516D01*
G01*
X157909039Y-47200000D02*
G75*
G02*
X159990961Y-47200000I1040961J-1080000D01*
G01*
X159990961Y-49360000D02*
G75*
G02*
X157909039Y-49360000I-1040961J1080000D01*
G01*
X160621437Y-49360000D02*
G75*
G02*
X157390000Y-49515516I-1671437J1080000D01*
G01*
%TO.C,D8*%
X113530000Y-49284000D02*
X113530000Y-49440000D01*
X113530000Y-51600000D02*
X113530000Y-51756000D01*
X113530000Y-49284484D02*
G75*
G02*
X116761437Y-49440000I1560000J-1235516D01*
G01*
X114049039Y-49440000D02*
G75*
G02*
X116130961Y-49440000I1040961J-1080000D01*
G01*
X116130961Y-51600000D02*
G75*
G02*
X114049039Y-51600000I-1040961J1080000D01*
G01*
X116761437Y-51600000D02*
G75*
G02*
X113530000Y-51755516I-1671437J1080000D01*
G01*
%TO.C,D7*%
X146370000Y-41884000D02*
X146370000Y-42040000D01*
X146370000Y-44200000D02*
X146370000Y-44356000D01*
X146370000Y-41884484D02*
G75*
G02*
X149601437Y-42040000I1560000J-1235516D01*
G01*
X146889039Y-42040000D02*
G75*
G02*
X148970961Y-42040000I1040961J-1080000D01*
G01*
X148970961Y-44200000D02*
G75*
G02*
X146889039Y-44200000I-1040961J1080000D01*
G01*
X149601437Y-44200000D02*
G75*
G02*
X146370000Y-44355516I-1671437J1080000D01*
G01*
%TO.C,D6*%
X141100000Y-31232837D02*
X141100000Y-31388837D01*
X141100000Y-33548837D02*
X141100000Y-33704837D01*
X141100000Y-31233321D02*
G75*
G02*
X144331437Y-31388837I1560000J-1235516D01*
G01*
X141619039Y-31388837D02*
G75*
G02*
X143700961Y-31388837I1040961J-1080000D01*
G01*
X143700961Y-33548837D02*
G75*
G02*
X141619039Y-33548837I-1040961J1080000D01*
G01*
X144331437Y-33548837D02*
G75*
G02*
X141100000Y-33704353I-1671437J1080000D01*
G01*
%TO.C,D5*%
X161010000Y-58924000D02*
X161010000Y-59080000D01*
X161010000Y-61240000D02*
X161010000Y-61396000D01*
X161010000Y-58924484D02*
G75*
G02*
X164241437Y-59080000I1560000J-1235516D01*
G01*
X161529039Y-59080000D02*
G75*
G02*
X163610961Y-59080000I1040961J-1080000D01*
G01*
X163610961Y-61240000D02*
G75*
G02*
X161529039Y-61240000I-1040961J1080000D01*
G01*
X164241437Y-61240000D02*
G75*
G02*
X161010000Y-61395516I-1671437J1080000D01*
G01*
%TO.C,D4*%
X169070000Y-49674000D02*
X169070000Y-49830000D01*
X169070000Y-51990000D02*
X169070000Y-52146000D01*
X169070000Y-49674484D02*
G75*
G02*
X172301437Y-49830000I1560000J-1235516D01*
G01*
X169589039Y-49830000D02*
G75*
G02*
X171670961Y-49830000I1040961J-1080000D01*
G01*
X171670961Y-51990000D02*
G75*
G02*
X169589039Y-51990000I-1040961J1080000D01*
G01*
X172301437Y-51990000D02*
G75*
G02*
X169070000Y-52145516I-1671437J1080000D01*
G01*
%TO.C,D3*%
X121180000Y-58024000D02*
X121180000Y-58180000D01*
X121180000Y-60340000D02*
X121180000Y-60496000D01*
X121180000Y-58024484D02*
G75*
G02*
X124411437Y-58180000I1560000J-1235516D01*
G01*
X121699039Y-58180000D02*
G75*
G02*
X123780961Y-58180000I1040961J-1080000D01*
G01*
X123780961Y-60340000D02*
G75*
G02*
X121699039Y-60340000I-1040961J1080000D01*
G01*
X124411437Y-60340000D02*
G75*
G02*
X121180000Y-60495516I-1671437J1080000D01*
G01*
%TO.C,D2*%
X122940000Y-47714000D02*
X122940000Y-47870000D01*
X122940000Y-50030000D02*
X122940000Y-50186000D01*
X122940000Y-47714484D02*
G75*
G02*
X126171437Y-47870000I1560000J-1235516D01*
G01*
X123459039Y-47870000D02*
G75*
G02*
X125540961Y-47870000I1040961J-1080000D01*
G01*
X125540961Y-50030000D02*
G75*
G02*
X123459039Y-50030000I-1040961J1080000D01*
G01*
X126171437Y-50030000D02*
G75*
G02*
X122940000Y-50185516I-1671437J1080000D01*
G01*
%TO.C,D1*%
X135160000Y-41843110D02*
X135160000Y-41999110D01*
X135160000Y-44159110D02*
X135160000Y-44315110D01*
X135160000Y-41843594D02*
G75*
G02*
X138391437Y-41999110I1560000J-1235516D01*
G01*
X135679039Y-41999110D02*
G75*
G02*
X137760961Y-41999110I1040961J-1080000D01*
G01*
X137760961Y-44159110D02*
G75*
G02*
X135679039Y-44159110I-1040961J1080000D01*
G01*
X138391437Y-44159110D02*
G75*
G02*
X135160000Y-44314626I-1671437J1080000D01*
G01*
%TO.C,C3*%
X150710000Y-54460000D02*
X158450000Y-54460000D01*
X150710000Y-57200000D02*
X150710000Y-54460000D01*
X158450000Y-54460000D02*
X158450000Y-57200000D01*
X158450000Y-57200000D02*
X150710000Y-57200000D01*
%TO.C,C2*%
X156605225Y-82335000D02*
X157105225Y-82335000D01*
X156855225Y-82085000D02*
X156855225Y-82585000D01*
X159410000Y-81230000D02*
X159410000Y-82770000D01*
X159410000Y-84850000D02*
X159410000Y-86390000D01*
X159450000Y-81230000D02*
X159450000Y-82770000D01*
X159450000Y-84850000D02*
X159450000Y-86390000D01*
X159490000Y-81231000D02*
X159490000Y-82770000D01*
X159490000Y-84850000D02*
X159490000Y-86389000D01*
X159530000Y-81233000D02*
X159530000Y-82770000D01*
X159530000Y-84850000D02*
X159530000Y-86387000D01*
X159570000Y-81235000D02*
X159570000Y-82770000D01*
X159570000Y-84850000D02*
X159570000Y-86385000D01*
X159610000Y-81238000D02*
X159610000Y-82770000D01*
X159610000Y-84850000D02*
X159610000Y-86382000D01*
X159650000Y-81241000D02*
X159650000Y-82770000D01*
X159650000Y-84850000D02*
X159650000Y-86379000D01*
X159690000Y-81245000D02*
X159690000Y-82770000D01*
X159690000Y-84850000D02*
X159690000Y-86375000D01*
X159730000Y-81250000D02*
X159730000Y-82770000D01*
X159730000Y-84850000D02*
X159730000Y-86370000D01*
X159770000Y-81255000D02*
X159770000Y-82770000D01*
X159770000Y-84850000D02*
X159770000Y-86365000D01*
X159810000Y-81261000D02*
X159810000Y-82770000D01*
X159810000Y-84850000D02*
X159810000Y-86359000D01*
X159850000Y-81267000D02*
X159850000Y-82770000D01*
X159850000Y-84850000D02*
X159850000Y-86353000D01*
X159890000Y-81274000D02*
X159890000Y-82770000D01*
X159890000Y-84850000D02*
X159890000Y-86346000D01*
X159930000Y-81282000D02*
X159930000Y-82770000D01*
X159930000Y-84850000D02*
X159930000Y-86338000D01*
X159970000Y-81291000D02*
X159970000Y-82770000D01*
X159970000Y-84850000D02*
X159970000Y-86329000D01*
X160010000Y-81300000D02*
X160010000Y-82770000D01*
X160010000Y-84850000D02*
X160010000Y-86320000D01*
X160050000Y-81309000D02*
X160050000Y-82770000D01*
X160050000Y-84850000D02*
X160050000Y-86311000D01*
X160090000Y-81320000D02*
X160090000Y-82770000D01*
X160090000Y-84850000D02*
X160090000Y-86300000D01*
X160130000Y-81331000D02*
X160130000Y-82770000D01*
X160130000Y-84850000D02*
X160130000Y-86289000D01*
X160170000Y-81343000D02*
X160170000Y-82770000D01*
X160170000Y-84850000D02*
X160170000Y-86277000D01*
X160210000Y-81355000D02*
X160210000Y-82770000D01*
X160210000Y-84850000D02*
X160210000Y-86265000D01*
X160250000Y-81368000D02*
X160250000Y-82770000D01*
X160250000Y-84850000D02*
X160250000Y-86252000D01*
X160290000Y-81382000D02*
X160290000Y-82770000D01*
X160290000Y-84850000D02*
X160290000Y-86238000D01*
X160330000Y-81397000D02*
X160330000Y-82770000D01*
X160330000Y-84850000D02*
X160330000Y-86223000D01*
X160370000Y-81412000D02*
X160370000Y-82770000D01*
X160370000Y-84850000D02*
X160370000Y-86208000D01*
X160410000Y-81428000D02*
X160410000Y-82770000D01*
X160410000Y-84850000D02*
X160410000Y-86192000D01*
X160450000Y-81445000D02*
X160450000Y-82770000D01*
X160450000Y-84850000D02*
X160450000Y-86175000D01*
X160490000Y-81463000D02*
X160490000Y-82770000D01*
X160490000Y-84850000D02*
X160490000Y-86157000D01*
X160530000Y-81481000D02*
X160530000Y-82770000D01*
X160530000Y-84850000D02*
X160530000Y-86139000D01*
X160570000Y-81501000D02*
X160570000Y-82770000D01*
X160570000Y-84850000D02*
X160570000Y-86119000D01*
X160610000Y-81521000D02*
X160610000Y-82770000D01*
X160610000Y-84850000D02*
X160610000Y-86099000D01*
X160650000Y-81542000D02*
X160650000Y-82770000D01*
X160650000Y-84850000D02*
X160650000Y-86078000D01*
X160690000Y-81564000D02*
X160690000Y-82770000D01*
X160690000Y-84850000D02*
X160690000Y-86056000D01*
X160730000Y-81587000D02*
X160730000Y-82770000D01*
X160730000Y-84850000D02*
X160730000Y-86033000D01*
X160770000Y-81611000D02*
X160770000Y-82770000D01*
X160770000Y-84850000D02*
X160770000Y-86009000D01*
X160810000Y-81635000D02*
X160810000Y-82770000D01*
X160810000Y-84850000D02*
X160810000Y-85985000D01*
X160850000Y-81661000D02*
X160850000Y-82770000D01*
X160850000Y-84850000D02*
X160850000Y-85959000D01*
X160890000Y-81688000D02*
X160890000Y-82770000D01*
X160890000Y-84850000D02*
X160890000Y-85932000D01*
X160930000Y-81716000D02*
X160930000Y-82770000D01*
X160930000Y-84850000D02*
X160930000Y-85904000D01*
X160970000Y-81745000D02*
X160970000Y-82770000D01*
X160970000Y-84850000D02*
X160970000Y-85875000D01*
X161010000Y-81775000D02*
X161010000Y-82770000D01*
X161010000Y-84850000D02*
X161010000Y-85845000D01*
X161050000Y-81807000D02*
X161050000Y-82770000D01*
X161050000Y-84850000D02*
X161050000Y-85813000D01*
X161090000Y-81840000D02*
X161090000Y-82770000D01*
X161090000Y-84850000D02*
X161090000Y-85780000D01*
X161130000Y-81874000D02*
X161130000Y-82770000D01*
X161130000Y-84850000D02*
X161130000Y-85746000D01*
X161170000Y-81909000D02*
X161170000Y-82770000D01*
X161170000Y-84850000D02*
X161170000Y-85711000D01*
X161210000Y-81946000D02*
X161210000Y-82770000D01*
X161210000Y-84850000D02*
X161210000Y-85674000D01*
X161250000Y-81985000D02*
X161250000Y-82770000D01*
X161250000Y-84850000D02*
X161250000Y-85635000D01*
X161290000Y-82025000D02*
X161290000Y-82770000D01*
X161290000Y-84850000D02*
X161290000Y-85595000D01*
X161330000Y-82067000D02*
X161330000Y-82770000D01*
X161330000Y-84850000D02*
X161330000Y-85553000D01*
X161370000Y-82111000D02*
X161370000Y-82770000D01*
X161370000Y-84850000D02*
X161370000Y-85509000D01*
X161410000Y-82158000D02*
X161410000Y-82770000D01*
X161410000Y-84850000D02*
X161410000Y-85462000D01*
X161450000Y-82206000D02*
X161450000Y-85414000D01*
X161490000Y-82257000D02*
X161490000Y-85363000D01*
X161530000Y-82311000D02*
X161530000Y-85309000D01*
X161570000Y-82367000D02*
X161570000Y-85253000D01*
X161610000Y-82427000D02*
X161610000Y-85193000D01*
X161650000Y-82491000D02*
X161650000Y-85129000D01*
X161690000Y-82559000D02*
X161690000Y-85061000D01*
X161730000Y-82633000D02*
X161730000Y-84987000D01*
X161770000Y-82712000D02*
X161770000Y-84908000D01*
X161810000Y-82799000D02*
X161810000Y-84821000D01*
X161850000Y-82896000D02*
X161850000Y-84724000D01*
X161890000Y-83005000D02*
X161890000Y-84615000D01*
X161930000Y-83133000D02*
X161930000Y-84487000D01*
X161970000Y-83293000D02*
X161970000Y-84327000D01*
X162010000Y-83527000D02*
X162010000Y-84093000D01*
X162030000Y-83810000D02*
G75*
G02*
X156790000Y-83810000I-2620000J0D01*
G01*
X156790000Y-83810000D02*
G75*
G02*
X162030000Y-83810000I2620000J0D01*
G01*
%TD*%
M02*
