%TF.GenerationSoftware,KiCad,Pcbnew,9.0.7*%
%TF.CreationDate,2026-03-30T23:30:41+02:00*%
%TF.ProjectId,Board,426f6172-642e-46b6-9963-61645f706362,rev?*%
%TF.SameCoordinates,Original*%
%TF.FileFunction,Copper,L1,Top*%
%TF.FilePolarity,Positive*%
%FSLAX46Y46*%
G04 Gerber Fmt 4.6, Leading zero omitted, Abs format (unit mm)*
G04 Created by KiCad (PCBNEW 9.0.7) date 2026-03-30 23:30:41*
%MOMM*%
%LPD*%
G01*
G04 APERTURE LIST*
G04 Aperture macros list*
%AMRoundRect*
0 Rectangle with rounded corners*
0 $1 Rounding radius*
0 $2 $3 $4 $5 $6 $7 $8 $9 X,Y pos of 4 corners*
0 Add a 4 corners polygon primitive as box body*
4,1,4,$2,$3,$4,$5,$6,$7,$8,$9,$2,$3,0*
0 Add four circle primitives for the rounded corners*
1,1,$1+$1,$2,$3*
1,1,$1+$1,$4,$5*
1,1,$1+$1,$6,$7*
1,1,$1+$1,$8,$9*
0 Add four rect primitives between the rounded corners*
20,1,$1+$1,$2,$3,$4,$5,0*
20,1,$1+$1,$4,$5,$6,$7,0*
20,1,$1+$1,$6,$7,$8,$9,0*
20,1,$1+$1,$8,$9,$2,$3,0*%
G04 Aperture macros list end*
%TA.AperFunction,ComponentPad*%
%ADD10R,1.130000X1.130000*%
%TD*%
%TA.AperFunction,ComponentPad*%
%ADD11C,1.130000*%
%TD*%
%TA.AperFunction,ComponentPad*%
%ADD12RoundRect,0.250000X-0.550000X-0.550000X0.550000X-0.550000X0.550000X0.550000X-0.550000X0.550000X0*%
%TD*%
%TA.AperFunction,ComponentPad*%
%ADD13C,1.600000*%
%TD*%
%TA.AperFunction,ComponentPad*%
%ADD14RoundRect,0.412500X-0.412500X-0.412500X0.412500X-0.412500X0.412500X0.412500X-0.412500X0.412500X0*%
%TD*%
%TA.AperFunction,ComponentPad*%
%ADD15C,1.650000*%
%TD*%
%TA.AperFunction,ComponentPad*%
%ADD16R,1.700000X1.700000*%
%TD*%
%TA.AperFunction,ComponentPad*%
%ADD17C,1.700000*%
%TD*%
%TA.AperFunction,ComponentPad*%
%ADD18R,1.800000X1.800000*%
%TD*%
%TA.AperFunction,ComponentPad*%
%ADD19C,1.800000*%
%TD*%
%TA.AperFunction,ComponentPad*%
%ADD20C,2.000000*%
%TD*%
%TA.AperFunction,ViaPad*%
%ADD21C,0.600000*%
%TD*%
%TA.AperFunction,Conductor*%
%ADD22C,0.200000*%
%TD*%
G04 APERTURE END LIST*
D10*
%TO.P,U2,1,Q5*%
%TO.N,Net-(D6-A)*%
X134930000Y-79940000D03*
D11*
%TO.P,U2,2,Q1*%
%TO.N,Net-(D2-A)*%
X137470000Y-79940000D03*
%TO.P,U2,3,Q0*%
%TO.N,Net-(D1-A)*%
X140010000Y-79940000D03*
%TO.P,U2,4,Q2*%
%TO.N,Net-(D3-A)*%
X142550000Y-79940000D03*
%TO.P,U2,5,Q6*%
%TO.N,Net-(D7-A)*%
X145090000Y-79940000D03*
%TO.P,U2,6,Q7*%
%TO.N,Net-(D8-A)*%
X147630000Y-79940000D03*
%TO.P,U2,7,Q3*%
%TO.N,Net-(D4-A)*%
X150170000Y-79940000D03*
%TO.P,U2,8,VSS*%
%TO.N,GND*%
X152710000Y-79940000D03*
%TO.P,U2,9,Q8*%
%TO.N,Net-(D9-A)*%
X152710000Y-72000000D03*
%TO.P,U2,10,Q4*%
%TO.N,Net-(D5-A)*%
X150170000Y-72000000D03*
%TO.P,U2,11,Q9*%
%TO.N,Net-(D10-A)*%
X147630000Y-72000000D03*
%TO.P,U2,12,Cout*%
%TO.N,unconnected-(U2-Cout-Pad12)*%
X145090000Y-72000000D03*
%TO.P,U2,13,CKEN*%
%TO.N,GND*%
X142550000Y-72000000D03*
%TO.P,U2,14,CLK*%
%TO.N,OUT*%
X140010000Y-72000000D03*
%TO.P,U2,15,Reset*%
%TO.N,GND*%
X137470000Y-72000000D03*
%TO.P,U2,16,VDD*%
%TO.N,+5V*%
X134930000Y-72000000D03*
%TD*%
D12*
%TO.P,U1,1,GND*%
%TO.N,GND*%
X128805000Y-52650000D03*
D13*
%TO.P,U1,2,TR*%
%TO.N,TR*%
X128805000Y-55190000D03*
%TO.P,U1,3,Q*%
%TO.N,OUT*%
X128805000Y-57730000D03*
%TO.P,U1,4,R*%
%TO.N,+5V*%
X128805000Y-60270000D03*
%TO.P,U1,5,CV*%
%TO.N,Net-(U1-CV)*%
X136425000Y-60270000D03*
%TO.P,U1,6,THR*%
%TO.N,TR*%
X136425000Y-57730000D03*
%TO.P,U1,7,DIS*%
%TO.N,Net-(U1-DIS)*%
X136425000Y-55190000D03*
%TO.P,U1,8,VCC*%
%TO.N,+5V*%
X136425000Y-52650000D03*
%TD*%
D14*
%TO.P,RV1,1,1*%
%TO.N,Net-(U1-DIS)*%
X145020000Y-66100000D03*
D15*
%TO.P,RV1,2,2*%
X147560000Y-66100000D03*
%TO.P,RV1,3,3*%
%TO.N,TR*%
X150100000Y-66100000D03*
%TD*%
D13*
%TO.P,R3,1*%
%TO.N,Net-(D1-K)*%
X128800000Y-63340000D03*
%TO.P,R3,2*%
%TO.N,GND*%
X136420000Y-63340000D03*
%TD*%
%TO.P,R2,1*%
%TO.N,+5V*%
X128910000Y-49330000D03*
%TO.P,R2,2*%
%TO.N,Net-(U1-DIS)*%
X136530000Y-49330000D03*
%TD*%
D16*
%TO.P,J2,1,Pin_1*%
%TO.N,+5V*%
X125395000Y-82035000D03*
D17*
%TO.P,J2,2,Pin_2*%
%TO.N,GND*%
X127935000Y-82035000D03*
%TD*%
D16*
%TO.P,J1,1,Pin_1*%
%TO.N,unconnected-(J1-Pin_1-Pad1)*%
X128675000Y-67710000D03*
%TD*%
D18*
%TO.P,D10,1,K*%
%TO.N,Net-(D1-K)*%
X141650000Y-55340000D03*
D19*
%TO.P,D10,2,A*%
%TO.N,Net-(D10-A)*%
X144190000Y-55340000D03*
%TD*%
D18*
%TO.P,D9,1,K*%
%TO.N,Net-(D1-K)*%
X157680000Y-48280000D03*
D19*
%TO.P,D9,2,A*%
%TO.N,Net-(D9-A)*%
X160220000Y-48280000D03*
%TD*%
D18*
%TO.P,D8,1,K*%
%TO.N,Net-(D1-K)*%
X113820000Y-50520000D03*
D19*
%TO.P,D8,2,A*%
%TO.N,Net-(D8-A)*%
X116360000Y-50520000D03*
%TD*%
D18*
%TO.P,D7,1,K*%
%TO.N,Net-(D1-K)*%
X146660000Y-43120000D03*
D19*
%TO.P,D7,2,A*%
%TO.N,Net-(D7-A)*%
X149200000Y-43120000D03*
%TD*%
D18*
%TO.P,D6,1,K*%
%TO.N,Net-(D1-K)*%
X141390000Y-32468837D03*
D19*
%TO.P,D6,2,A*%
%TO.N,Net-(D6-A)*%
X143930000Y-32468837D03*
%TD*%
D18*
%TO.P,D5,1,K*%
%TO.N,Net-(D1-K)*%
X161300000Y-60160000D03*
D19*
%TO.P,D5,2,A*%
%TO.N,Net-(D5-A)*%
X163840000Y-60160000D03*
%TD*%
D18*
%TO.P,D4,1,K*%
%TO.N,Net-(D1-K)*%
X169360000Y-50910000D03*
D19*
%TO.P,D4,2,A*%
%TO.N,Net-(D4-A)*%
X171900000Y-50910000D03*
%TD*%
D18*
%TO.P,D3,1,K*%
%TO.N,Net-(D1-K)*%
X121470000Y-59260000D03*
D19*
%TO.P,D3,2,A*%
%TO.N,Net-(D3-A)*%
X124010000Y-59260000D03*
%TD*%
D18*
%TO.P,D2,1,K*%
%TO.N,Net-(D1-K)*%
X123230000Y-48950000D03*
D19*
%TO.P,D2,2,A*%
%TO.N,Net-(D2-A)*%
X125770000Y-48950000D03*
%TD*%
D18*
%TO.P,D1,1,K*%
%TO.N,Net-(D1-K)*%
X135450000Y-43079110D03*
D19*
%TO.P,D1,2,A*%
%TO.N,Net-(D1-A)*%
X137990000Y-43079110D03*
%TD*%
D20*
%TO.P,C3,1*%
%TO.N,GND*%
X152080000Y-55830000D03*
%TO.P,C3,2*%
%TO.N,Net-(U1-CV)*%
X157080000Y-55830000D03*
%TD*%
D12*
%TO.P,C2,1*%
%TO.N,TR*%
X158410000Y-83810000D03*
D13*
%TO.P,C2,2*%
%TO.N,GND*%
X160410000Y-83810000D03*
%TD*%
D21*
%TO.N,+5V*%
X126720000Y-52848840D03*
X131110000Y-75180000D03*
%TO.N,Net-(D7-A)*%
X155940000Y-45220000D03*
%TO.N,Net-(U1-DIS)*%
X147990000Y-55430000D03*
X139220000Y-58870000D03*
%TO.N,Net-(D9-A)*%
X156020000Y-70930000D03*
%TO.N,Net-(D6-A)*%
X142360000Y-43500000D03*
%TD*%
D22*
%TO.N,Net-(D7-A)*%
X145956000Y-80806000D02*
X145090000Y-79940000D01*
X153068709Y-80806000D02*
X145956000Y-80806000D01*
X158738550Y-75136159D02*
X153068709Y-80806000D01*
X158738550Y-66959921D02*
X158738550Y-75136159D01*
X170561000Y-55137471D02*
X158738550Y-66959921D01*
X170561000Y-49709000D02*
X170561000Y-55137471D01*
X167211992Y-46359992D02*
X170561000Y-49709000D01*
X157740000Y-45220000D02*
X158879992Y-46359992D01*
X158879992Y-46359992D02*
X167211992Y-46359992D01*
X155940000Y-45220000D02*
X157740000Y-45220000D01*
%TO.N,+5V*%
X129901000Y-61366000D02*
X129901000Y-66971000D01*
X129901000Y-66971000D02*
X134930000Y-72000000D01*
X128805000Y-60270000D02*
X129901000Y-61366000D01*
X131110000Y-75180000D02*
X131030000Y-75180000D01*
X131030000Y-75180000D02*
X130970000Y-75120000D01*
X133145000Y-73935000D02*
X131900000Y-75180000D01*
X133145000Y-73785000D02*
X133145000Y-73935000D01*
X134930000Y-72000000D02*
X133145000Y-73785000D01*
X131900000Y-75180000D02*
X131110000Y-75180000D01*
X125495000Y-82035000D02*
X125395000Y-82035000D01*
X142111057Y-42899000D02*
X142608943Y-42899000D01*
X126720000Y-52848840D02*
X134677890Y-44890950D01*
X140119107Y-44890950D02*
X142111057Y-42899000D01*
X134677890Y-44890950D02*
X140119107Y-44890950D01*
%TO.N,Net-(D1-K)*%
X123230000Y-57500000D02*
X121470000Y-59260000D01*
X123230000Y-48950000D02*
X123230000Y-57500000D01*
%TO.N,Net-(U1-DIS)*%
X147560000Y-55860000D02*
X147560000Y-66100000D01*
%TO.N,OUT*%
X134517000Y-63442000D02*
X128805000Y-57730000D01*
X134517000Y-68539709D02*
X134517000Y-63442000D01*
X137111291Y-71134000D02*
X134517000Y-68539709D01*
X126784000Y-81461291D02*
X137111291Y-71134000D01*
X126784000Y-82511760D02*
X126784000Y-81461291D01*
X127458240Y-83186000D02*
X126784000Y-82511760D01*
X133983100Y-83186000D02*
X127458240Y-83186000D01*
X136197000Y-80972100D02*
X133983100Y-83186000D01*
X136197000Y-79807200D02*
X136197000Y-80972100D01*
X140010000Y-75994200D02*
X136197000Y-79807200D01*
X140010000Y-72000000D02*
X140010000Y-75994200D01*
%TO.N,GND*%
X127935000Y-82035000D02*
X132846000Y-77124000D01*
X136014000Y-77124000D02*
X134064000Y-79074000D01*
X132846000Y-77124000D02*
X136014000Y-77124000D01*
%TO.N,+5V*%
X142961000Y-46114000D02*
X136425000Y-52650000D01*
X142961000Y-43251057D02*
X142961000Y-46114000D01*
X142608943Y-42899000D02*
X142961000Y-43251057D01*
%TO.N,Net-(U1-DIS)*%
X147560000Y-55860000D02*
X147990000Y-55430000D01*
X139220000Y-57985000D02*
X139220000Y-58870000D01*
X136425000Y-55190000D02*
X139220000Y-57985000D01*
%TO.N,+5V*%
X141403950Y-42899000D02*
X134972950Y-49330000D01*
X142608943Y-42899000D02*
X141403950Y-42899000D01*
X134972950Y-49330000D02*
X128910000Y-49330000D01*
%TO.N,GND*%
X145636000Y-72866000D02*
X152710000Y-79940000D01*
X143416000Y-72866000D02*
X145636000Y-72866000D01*
X142550000Y-72000000D02*
X143416000Y-72866000D01*
X148690000Y-75920000D02*
X152710000Y-79940000D01*
X148690000Y-59220000D02*
X148690000Y-75920000D01*
X152080000Y-55830000D02*
X148690000Y-59220000D01*
X152080000Y-68774709D02*
X152080000Y-55830000D01*
X147988709Y-72866000D02*
X152080000Y-68774709D01*
X137745291Y-63340000D02*
X147271291Y-72866000D01*
X147271291Y-72866000D02*
X147988709Y-72866000D01*
X136420000Y-63340000D02*
X137745291Y-63340000D01*
X138737000Y-65657000D02*
X136420000Y-63340000D01*
X138737000Y-76700100D02*
X138737000Y-65657000D01*
X135796000Y-79641100D02*
X138737000Y-76700100D01*
X134064000Y-80806000D02*
X135796000Y-80806000D01*
X134064000Y-79074000D02*
X134064000Y-80806000D01*
X137935000Y-75203000D02*
X136014000Y-77124000D01*
X137935000Y-67740000D02*
X137935000Y-75203000D01*
X134918000Y-64723000D02*
X137935000Y-67740000D01*
X134918000Y-58763000D02*
X134918000Y-64723000D01*
X128805000Y-52650000D02*
X134918000Y-58763000D01*
X135796000Y-80806000D02*
X135796000Y-79641100D01*
%TO.N,Net-(D9-A)*%
X153780000Y-70930000D02*
X152710000Y-72000000D01*
X156020000Y-70930000D02*
X153780000Y-70930000D01*
%TO.N,Net-(D6-A)*%
X142360000Y-45057050D02*
X142360000Y-43500000D01*
X135319000Y-52098050D02*
X142360000Y-45057050D01*
X135319000Y-63796050D02*
X135319000Y-52098050D01*
X138336000Y-66813050D02*
X135319000Y-63796050D01*
X138336000Y-76534000D02*
X138336000Y-66813050D01*
X134930000Y-79940000D02*
X138336000Y-76534000D01*
%TO.N,GND*%
X137470000Y-72500000D02*
X137470000Y-72000000D01*
X127935000Y-82035000D02*
X137470000Y-72500000D01*
%TO.N,Net-(U1-CV)*%
X139122000Y-60270000D02*
X136425000Y-60270000D01*
X142989000Y-56403000D02*
X139122000Y-60270000D01*
X142989000Y-54842529D02*
X142989000Y-56403000D01*
X143692529Y-54139000D02*
X142989000Y-54842529D01*
X155389000Y-54139000D02*
X143692529Y-54139000D01*
X157080000Y-55830000D02*
X155389000Y-54139000D01*
%TO.N,Net-(D5-A)*%
X158910000Y-63260000D02*
X150170000Y-72000000D01*
X160740000Y-63260000D02*
X158910000Y-63260000D01*
X163840000Y-60160000D02*
X160740000Y-63260000D01*
%TO.N,Net-(D10-A)*%
X146434000Y-57584000D02*
X146434000Y-70804000D01*
X146434000Y-70804000D02*
X147630000Y-72000000D01*
X144190000Y-55340000D02*
X146434000Y-57584000D01*
%TO.N,Net-(D1-K)*%
X125550000Y-63340000D02*
X128800000Y-63340000D01*
X121470000Y-59260000D02*
X125550000Y-63340000D01*
X141650000Y-48130000D02*
X146660000Y-43120000D01*
X141650000Y-55340000D02*
X141650000Y-48130000D01*
X113820000Y-51610000D02*
X121470000Y-59260000D01*
X113820000Y-50520000D02*
X113820000Y-51610000D01*
X120459000Y-51721000D02*
X115021000Y-51721000D01*
X115021000Y-51721000D02*
X113820000Y-50520000D01*
X123230000Y-48950000D02*
X120459000Y-51721000D01*
X127919716Y-44260284D02*
X123230000Y-48950000D01*
X134268826Y-44260284D02*
X127919716Y-44260284D01*
X135450000Y-43079110D02*
X134268826Y-44260284D01*
X141390000Y-37139110D02*
X135450000Y-43079110D01*
X141390000Y-32468837D02*
X141390000Y-37139110D01*
X141390000Y-37850000D02*
X141390000Y-32468837D01*
X146660000Y-43120000D02*
X141390000Y-37850000D01*
X147861000Y-41919000D02*
X146660000Y-43120000D01*
X151319000Y-41919000D02*
X147861000Y-41919000D01*
X157680000Y-48280000D02*
X151319000Y-41919000D01*
X169360000Y-52100000D02*
X161300000Y-60160000D01*
X169360000Y-50910000D02*
X169360000Y-52100000D01*
X165529000Y-47079000D02*
X169360000Y-50910000D01*
X158881000Y-47079000D02*
X165529000Y-47079000D01*
X157680000Y-48280000D02*
X158881000Y-47079000D01*
%TD*%
M02*
