M48
; DRILL file {KiCad 9.0.7} date 2026-03-30T23:30:43+0200
; FORMAT={-:-/ absolute / metric / decimal}
; #@! TF.CreationDate,2026-03-30T23:30:43+02:00
; #@! TF.GenerationSoftware,Kicad,Pcbnew,9.0.7
; #@! TF.FileFunction,Plated,1,2,PTH
FMAT,2
METRIC
; #@! TA.AperFunction,Plated,PTH,ViaDrill
T1C0.300
; #@! TA.AperFunction,Plated,PTH,ComponentDrill
T2C0.780
; #@! TA.AperFunction,Plated,PTH,ComponentDrill
T3C0.800
; #@! TA.AperFunction,Plated,PTH,ComponentDrill
T4C0.850
; #@! TA.AperFunction,Plated,PTH,ComponentDrill
T5C0.900
; #@! TA.AperFunction,Plated,PTH,ComponentDrill
T6C1.000
%
G90
G05
T1
X126.72Y-52.849
X131.11Y-75.18
X139.22Y-58.87
X142.36Y-43.5
X147.99Y-55.43
X155.94Y-45.22
X156.02Y-70.93
T2
X134.93Y-72.0
X134.93Y-79.94
X137.47Y-72.0
X137.47Y-79.94
X140.01Y-72.0
X140.01Y-79.94
X142.55Y-72.0
X142.55Y-79.94
X145.09Y-72.0
X145.09Y-79.94
X147.63Y-72.0
X147.63Y-79.94
X150.17Y-72.0
X150.17Y-79.94
X152.71Y-72.0
X152.71Y-79.94
T3
X128.8Y-63.34
X128.805Y-52.65
X128.805Y-55.19
X128.805Y-57.73
X128.805Y-60.27
X128.91Y-49.33
X136.42Y-63.34
X136.425Y-52.65
X136.425Y-55.19
X136.425Y-57.73
X136.425Y-60.27
X136.53Y-49.33
X158.41Y-83.81
X160.41Y-83.81
T4
X145.02Y-66.1
X147.56Y-66.1
X150.1Y-66.1
T5
X113.82Y-50.52
X116.36Y-50.52
X121.47Y-59.26
X123.23Y-48.95
X124.01Y-59.26
X125.77Y-48.95
X135.45Y-43.079
X137.99Y-43.079
X141.39Y-32.469
X141.65Y-55.34
X143.93Y-32.469
X144.19Y-55.34
X146.66Y-43.12
X149.2Y-43.12
X157.68Y-48.28
X160.22Y-48.28
X161.3Y-60.16
X163.84Y-60.16
X169.36Y-50.91
X171.9Y-50.91
T6
X125.395Y-82.035
X127.935Y-82.035
X128.675Y-67.71
X152.08Y-55.83
X157.08Y-55.83
M30
